<svg width="1119" height="629" viewBox="0 0 1119 629" fill="none" xmlns="http://www.w3.org/2000/svg">
<path d="M848.88 128V126.28H852.74C853.767 126.28 854.667 126.06 855.44 125.62C856.213 125.167 856.813 124.547 857.24 123.76C857.68 122.973 857.9 122.067 857.9 121.04C857.9 120.027 857.68 119.127 857.24 118.34C856.8 117.553 856.193 116.94 855.42 116.5C854.647 116.06 853.753 115.84 852.74 115.84H848.9V114.12H852.78C853.793 114.12 854.727 114.293 855.58 114.64C856.447 114.987 857.193 115.473 857.82 116.1C858.46 116.727 858.953 117.46 859.3 118.3C859.66 119.14 859.84 120.06 859.84 121.06C859.84 122.047 859.66 122.967 859.3 123.82C858.953 124.66 858.467 125.393 857.84 126.02C857.213 126.647 856.467 127.133 855.6 127.48C854.747 127.827 853.82 128 852.82 128H848.88ZM847.64 128V114.12H849.52V128H847.64ZM862.145 128V118.5H863.945V128H862.145ZM863.045 116.6C862.711 116.6 862.438 116.493 862.225 116.28C862.011 116.053 861.905 115.773 861.905 115.44C861.905 115.12 862.011 114.853 862.225 114.64C862.438 114.413 862.711 114.3 863.045 114.3C863.378 114.3 863.651 114.413 863.865 114.64C864.078 114.853 864.185 115.12 864.185 115.44C864.185 115.773 864.078 116.053 863.865 116.28C863.651 116.493 863.378 116.6 863.045 116.6ZM866.597 128V118.5H868.397V128H866.597ZM868.397 122.58L867.717 122.28C867.717 121.067 867.997 120.1 868.557 119.38C869.117 118.66 869.924 118.3 870.977 118.3C871.457 118.3 871.891 118.387 872.277 118.56C872.664 118.72 873.024 118.993 873.357 119.38L872.177 120.6C871.977 120.387 871.757 120.233 871.517 120.14C871.277 120.047 870.997 120 870.677 120C870.011 120 869.464 120.213 869.037 120.64C868.611 121.067 868.397 121.713 868.397 122.58ZM878.712 128.2C877.766 128.2 876.912 127.987 876.152 127.56C875.392 127.12 874.792 126.527 874.352 125.78C873.912 125.033 873.692 124.187 873.692 123.24C873.692 122.307 873.906 121.467 874.332 120.72C874.772 119.973 875.359 119.387 876.092 118.96C876.839 118.52 877.672 118.3 878.592 118.3C879.472 118.3 880.246 118.5 880.912 118.9C881.592 119.3 882.119 119.853 882.492 120.56C882.879 121.267 883.072 122.067 883.072 122.96C883.072 123.093 883.066 123.24 883.052 123.4C883.039 123.547 883.012 123.72 882.972 123.92H874.952V122.42H882.012L881.352 123C881.352 122.36 881.239 121.82 881.012 121.38C880.786 120.927 880.466 120.58 880.052 120.34C879.639 120.087 879.139 119.96 878.552 119.96C877.939 119.96 877.399 120.093 876.932 120.36C876.466 120.627 876.106 121 875.852 121.48C875.599 121.96 875.472 122.527 875.472 123.18C875.472 123.847 875.606 124.433 875.872 124.94C876.139 125.433 876.519 125.82 877.012 126.1C877.506 126.367 878.072 126.5 878.712 126.5C879.246 126.5 879.732 126.407 880.172 126.22C880.626 126.033 881.012 125.753 881.332 125.38L882.492 126.56C882.039 127.093 881.479 127.5 880.812 127.78C880.159 128.06 879.459 128.2 878.712 128.2ZM889.375 128.2C888.442 128.2 887.595 127.98 886.835 127.54C886.088 127.1 885.495 126.507 885.055 125.76C884.628 125 884.415 124.16 884.415 123.24C884.415 122.307 884.628 121.467 885.055 120.72C885.495 119.973 886.088 119.387 886.835 118.96C887.595 118.52 888.442 118.3 889.375 118.3C890.108 118.3 890.788 118.44 891.415 118.72C892.042 118.987 892.582 119.38 893.035 119.9L891.835 121.1C891.542 120.753 891.182 120.493 890.755 120.32C890.342 120.133 889.882 120.04 889.375 120.04C888.775 120.04 888.242 120.18 887.775 120.46C887.308 120.727 886.942 121.1 886.675 121.58C886.408 122.06 886.275 122.613 886.275 123.24C886.275 123.867 886.408 124.42 886.675 124.9C886.942 125.38 887.308 125.76 887.775 126.04C888.242 126.32 888.775 126.46 889.375 126.46C889.882 126.46 890.342 126.373 890.755 126.2C891.182 126.013 891.548 125.747 891.855 125.4L893.035 126.6C892.595 127.107 892.055 127.5 891.415 127.78C890.788 128.06 890.108 128.2 889.375 128.2ZM896.163 128V114.52H897.963V128H896.163ZM893.823 120.14V118.5H900.303V120.14H893.823ZM906.113 128.2C905.18 128.2 904.34 127.98 903.593 127.54C902.846 127.1 902.253 126.507 901.813 125.76C901.373 125 901.153 124.153 901.153 123.22C901.153 122.3 901.373 121.473 901.813 120.74C902.253 119.993 902.846 119.4 903.593 118.96C904.34 118.52 905.18 118.3 906.113 118.3C907.033 118.3 907.866 118.52 908.613 118.96C909.373 119.387 909.973 119.973 910.413 120.72C910.853 121.467 911.073 122.3 911.073 123.22C911.073 124.153 910.853 125 910.413 125.76C909.973 126.507 909.373 127.1 908.613 127.54C907.866 127.98 907.033 128.2 906.113 128.2ZM906.113 126.46C906.713 126.46 907.246 126.32 907.713 126.04C908.18 125.76 908.546 125.38 908.813 124.9C909.08 124.407 909.213 123.847 909.213 123.22C909.213 122.607 909.073 122.06 908.793 121.58C908.526 121.1 908.16 120.727 907.693 120.46C907.24 120.18 906.713 120.04 906.113 120.04C905.513 120.04 904.98 120.18 904.513 120.46C904.046 120.727 903.68 121.1 903.413 121.58C903.146 122.06 903.013 122.607 903.013 123.22C903.013 123.847 903.146 124.407 903.413 124.9C903.68 125.38 904.046 125.76 904.513 126.04C904.98 126.32 905.513 126.46 906.113 126.46ZM913.101 128V118.5H914.901V128H913.101ZM914.901 122.58L914.221 122.28C914.221 121.067 914.501 120.1 915.061 119.38C915.621 118.66 916.428 118.3 917.481 118.3C917.961 118.3 918.395 118.387 918.781 118.56C919.168 118.72 919.528 118.993 919.861 119.38L918.681 120.6C918.481 120.387 918.261 120.233 918.021 120.14C917.781 120.047 917.501 120 917.181 120C916.515 120 915.968 120.213 915.541 120.64C915.115 121.067 914.901 121.713 914.901 122.58ZM919.112 128.8L924.672 113.34H926.352L920.812 128.8H919.112ZM934.018 128.2C933.018 128.2 932.091 128.02 931.238 127.66C930.385 127.287 929.638 126.773 928.998 126.12C928.371 125.467 927.885 124.707 927.538 123.84C927.191 122.973 927.018 122.047 927.018 121.06C927.018 120.06 927.191 119.127 927.538 118.26C927.885 117.393 928.371 116.64 928.998 116C929.638 115.347 930.378 114.84 931.218 114.48C932.071 114.107 932.998 113.92 933.998 113.92C935.091 113.92 936.051 114.107 936.878 114.48C937.705 114.853 938.438 115.36 939.078 116L937.778 117.3C937.338 116.807 936.798 116.42 936.158 116.14C935.531 115.86 934.811 115.72 933.998 115.72C933.265 115.72 932.591 115.853 931.978 116.12C931.365 116.373 930.831 116.74 930.378 117.22C929.925 117.7 929.571 118.267 929.318 118.92C929.078 119.573 928.958 120.287 928.958 121.06C928.958 121.833 929.078 122.547 929.318 123.2C929.571 123.853 929.925 124.42 930.378 124.9C930.831 125.38 931.365 125.753 931.978 126.02C932.591 126.273 933.265 126.4 933.998 126.4C934.865 126.4 935.618 126.26 936.258 125.98C936.898 125.687 937.438 125.293 937.878 124.8L939.178 126.08C938.538 126.747 937.785 127.267 936.918 127.64C936.065 128.013 935.098 128.2 934.018 128.2ZM940.757 123.76V122.06H947.338V123.76H940.757ZM953.551 128.2C952.457 128.2 951.524 128 950.751 127.6C949.977 127.2 949.291 126.62 948.691 125.86L949.971 124.58C950.411 125.193 950.917 125.66 951.491 125.98C952.064 126.287 952.771 126.44 953.611 126.44C954.437 126.44 955.097 126.26 955.591 125.9C956.097 125.54 956.351 125.047 956.351 124.42C956.351 123.9 956.231 123.48 955.991 123.16C955.751 122.84 955.424 122.58 955.011 122.38C954.611 122.167 954.171 121.98 953.691 121.82C953.211 121.647 952.731 121.467 952.251 121.28C951.771 121.08 951.331 120.84 950.931 120.56C950.531 120.267 950.204 119.887 949.951 119.42C949.711 118.953 949.591 118.367 949.591 117.66C949.591 116.873 949.777 116.207 950.151 115.66C950.537 115.1 951.057 114.673 951.711 114.38C952.377 114.073 953.124 113.92 953.951 113.92C954.857 113.92 955.671 114.1 956.391 114.46C957.111 114.807 957.697 115.267 958.151 115.84L956.871 117.12C956.457 116.64 956.011 116.28 955.531 116.04C955.064 115.8 954.524 115.68 953.911 115.68C953.164 115.68 952.571 115.847 952.131 116.18C951.691 116.5 951.471 116.953 951.471 117.54C951.471 118.007 951.591 118.387 951.831 118.68C952.084 118.96 952.411 119.2 952.811 119.4C953.211 119.6 953.651 119.787 954.131 119.96C954.624 120.12 955.111 120.3 955.591 120.5C956.071 120.7 956.511 120.953 956.911 121.26C957.311 121.567 957.631 121.967 957.871 122.46C958.124 122.94 958.251 123.547 958.251 124.28C958.251 125.507 957.824 126.467 956.971 127.16C956.131 127.853 954.991 128.2 953.551 128.2ZM964.285 128.2C963.511 128.2 962.811 128.027 962.185 127.68C961.571 127.32 961.091 126.827 960.745 126.2C960.398 125.573 960.225 124.847 960.225 124.02V118.5H962.025V123.94C962.025 124.46 962.111 124.913 962.285 125.3C962.471 125.673 962.738 125.96 963.085 126.16C963.431 126.36 963.838 126.46 964.305 126.46C965.011 126.46 965.565 126.24 965.965 125.8C966.365 125.347 966.565 124.727 966.565 123.94V118.5H968.365V124.02C968.365 124.847 968.191 125.573 967.845 126.2C967.498 126.827 967.018 127.32 966.405 127.68C965.805 128.027 965.098 128.2 964.285 128.2ZM970.797 128V118.5H972.597V128H970.797ZM971.697 116.6C971.364 116.6 971.09 116.493 970.877 116.28C970.664 116.053 970.557 115.773 970.557 115.44C970.557 115.12 970.664 114.853 970.877 114.64C971.09 114.413 971.364 114.3 971.697 114.3C972.03 114.3 972.304 114.413 972.517 114.64C972.73 114.853 972.837 115.12 972.837 115.44C972.837 115.773 972.73 116.053 972.517 116.28C972.304 116.493 972.03 116.6 971.697 116.6ZM976.71 128V114.52H978.51V128H976.71ZM974.37 120.14V118.5H980.85V120.14H974.37ZM986.72 128.2C985.773 128.2 984.92 127.987 984.16 127.56C983.4 127.12 982.8 126.527 982.36 125.78C981.92 125.033 981.7 124.187 981.7 123.24C981.7 122.307 981.913 121.467 982.34 120.72C982.78 119.973 983.367 119.387 984.1 118.96C984.847 118.52 985.68 118.3 986.6 118.3C987.48 118.3 988.253 118.5 988.92 118.9C989.6 119.3 990.127 119.853 990.5 120.56C990.887 121.267 991.08 122.067 991.08 122.96C991.08 123.093 991.073 123.24 991.06 123.4C991.047 123.547 991.02 123.72 990.98 123.92H982.96V122.42H990.02L989.36 123C989.36 122.36 989.247 121.82 989.02 121.38C988.793 120.927 988.473 120.58 988.06 120.34C987.647 120.087 987.147 119.96 986.56 119.96C985.947 119.96 985.407 120.093 984.94 120.36C984.473 120.627 984.113 121 983.86 121.48C983.607 121.96 983.48 122.527 983.48 123.18C983.48 123.847 983.613 124.433 983.88 124.94C984.147 125.433 984.527 125.82 985.02 126.1C985.513 126.367 986.08 126.5 986.72 126.5C987.253 126.5 987.74 126.407 988.18 126.22C988.633 126.033 989.02 125.753 989.34 125.38L990.5 126.56C990.047 127.093 989.487 127.5 988.82 127.78C988.167 128.06 987.467 128.2 986.72 128.2ZM997.523 128V114.12H999.403V128H997.523ZM998.803 128V126.28H1006.24V128H998.803ZM1012.23 128.2C1011.28 128.2 1010.43 127.987 1009.67 127.56C1008.91 127.12 1008.31 126.527 1007.87 125.78C1007.43 125.033 1007.21 124.187 1007.21 123.24C1007.21 122.307 1007.42 121.467 1007.85 120.72C1008.29 119.973 1008.87 119.387 1009.61 118.96C1010.35 118.52 1011.19 118.3 1012.11 118.3C1012.99 118.3 1013.76 118.5 1014.43 118.9C1015.11 119.3 1015.63 119.853 1016.01 120.56C1016.39 121.267 1016.59 122.067 1016.59 122.96C1016.59 123.093 1016.58 123.24 1016.57 123.4C1016.55 123.547 1016.53 123.72 1016.49 123.92H1008.47V122.42H1015.53L1014.87 123C1014.87 122.36 1014.75 121.82 1014.53 121.38C1014.3 120.927 1013.98 120.58 1013.57 120.34C1013.15 120.087 1012.65 119.96 1012.07 119.96C1011.45 119.96 1010.91 120.093 1010.45 120.36C1009.98 120.627 1009.62 121 1009.37 121.48C1009.11 121.96 1008.99 122.527 1008.99 123.18C1008.99 123.847 1009.12 124.433 1009.39 124.94C1009.65 125.433 1010.03 125.82 1010.53 126.1C1011.02 126.367 1011.59 126.5 1012.23 126.5C1012.76 126.5 1013.25 126.407 1013.69 126.22C1014.14 126.033 1014.53 125.753 1014.85 125.38L1016.01 126.56C1015.55 127.093 1014.99 127.5 1014.33 127.78C1013.67 128.06 1012.97 128.2 1012.23 128.2ZM1021.65 128L1017.29 118.5H1019.29L1022.79 126.52H1021.63L1025.15 118.5H1027.07L1022.71 128H1021.65ZM1032.64 128.2C1031.69 128.2 1030.84 127.987 1030.08 127.56C1029.32 127.12 1028.72 126.527 1028.28 125.78C1027.84 125.033 1027.62 124.187 1027.62 123.24C1027.62 122.307 1027.83 121.467 1028.26 120.72C1028.7 119.973 1029.28 119.387 1030.02 118.96C1030.76 118.52 1031.6 118.3 1032.52 118.3C1033.4 118.3 1034.17 118.5 1034.84 118.9C1035.52 119.3 1036.04 119.853 1036.42 120.56C1036.8 121.267 1037 122.067 1037 122.96C1037 123.093 1036.99 123.24 1036.98 123.4C1036.96 123.547 1036.94 123.72 1036.9 123.92H1028.88V122.42H1035.94L1035.28 123C1035.28 122.36 1035.16 121.82 1034.94 121.38C1034.71 120.927 1034.39 120.58 1033.98 120.34C1033.56 120.087 1033.06 119.96 1032.48 119.96C1031.86 119.96 1031.32 120.093 1030.86 120.36C1030.39 120.627 1030.03 121 1029.78 121.48C1029.52 121.96 1029.4 122.527 1029.4 123.18C1029.4 123.847 1029.53 124.433 1029.8 124.94C1030.06 125.433 1030.44 125.82 1030.94 126.1C1031.43 126.367 1032 126.5 1032.64 126.5C1033.17 126.5 1033.66 126.407 1034.1 126.22C1034.55 126.033 1034.94 125.753 1035.26 125.38L1036.42 126.56C1035.96 127.093 1035.4 127.5 1034.74 127.78C1034.08 128.06 1033.38 128.2 1032.64 128.2ZM1038.96 128V113.72H1040.76V128H1038.96Z" fill="white"/>
<path d="M854.61 98.33C853.13 98.33 851.79 98 850.59 97.34C849.41 96.68 848.47 95.8 847.77 94.7C847.09 93.58 846.75 92.33 846.75 90.95C846.75 89.15 847.38 87.33 848.64 85.49L854.61 76.82H859.92L853.29 86.06L851.52 86.21C851.8 85.73 852.09 85.32 852.39 84.98C852.71 84.62 853.11 84.35 853.59 84.17C854.07 83.97 854.68 83.87 855.42 83.87C856.74 83.87 857.92 84.18 858.96 84.8C860.02 85.4 860.87 86.23 861.51 87.29C862.15 88.33 862.47 89.53 862.47 90.89C862.47 92.27 862.12 93.53 861.42 94.67C860.72 95.79 859.78 96.68 858.6 97.34C857.42 98 856.09 98.33 854.61 98.33ZM854.61 94.22C855.23 94.22 855.79 94.07 856.29 93.77C856.79 93.47 857.18 93.06 857.46 92.54C857.74 92.02 857.88 91.44 857.88 90.8C857.88 90.14 857.74 89.56 857.46 89.06C857.18 88.54 856.79 88.14 856.29 87.86C855.79 87.56 855.23 87.41 854.61 87.41C853.97 87.41 853.4 87.56 852.9 87.86C852.42 88.14 852.04 88.54 851.76 89.06C851.48 89.56 851.34 90.14 851.34 90.8C851.34 91.44 851.48 92.02 851.76 92.54C852.04 93.06 852.42 93.47 852.9 93.77C853.4 94.07 853.97 94.22 854.61 94.22ZM873.217 98.33C871.517 98.33 869.977 97.87 868.597 96.95C867.217 96.03 866.127 94.75 865.327 93.11C864.547 91.45 864.157 89.54 864.157 87.38C864.157 85.2 864.547 83.3 865.327 81.68C866.107 80.04 867.177 78.77 868.537 77.87C869.897 76.95 871.437 76.49 873.157 76.49C874.897 76.49 876.447 76.95 877.807 77.87C879.167 78.77 880.237 80.04 881.017 81.68C881.817 83.32 882.217 85.23 882.217 87.41C882.217 89.59 881.817 91.5 881.017 93.14C880.237 94.78 879.167 96.06 877.807 96.98C876.467 97.88 874.937 98.33 873.217 98.33ZM873.187 94.16C874.067 94.16 874.827 93.91 875.467 93.41C876.107 92.89 876.597 92.13 876.937 91.13C877.297 90.11 877.477 88.87 877.477 87.41C877.477 85.93 877.297 84.69 876.937 83.69C876.597 82.69 876.107 81.94 875.467 81.44C874.827 80.92 874.057 80.66 873.157 80.66C872.297 80.66 871.537 80.91 870.877 81.41C870.237 81.91 869.747 82.66 869.407 83.66C869.067 84.66 868.897 85.9 868.897 87.38C868.897 88.86 869.067 90.1 869.407 91.1C869.747 92.1 870.237 92.86 870.877 93.38C871.537 93.9 872.307 94.16 873.187 94.16ZM888.608 85.34C887.788 85.34 887.038 85.15 886.358 84.77C885.698 84.37 885.168 83.84 884.768 83.18C884.368 82.5 884.168 81.74 884.168 80.9C884.168 80.08 884.368 79.34 884.768 78.68C885.168 78.02 885.698 77.5 886.358 77.12C887.018 76.72 887.758 76.52 888.578 76.52C889.438 76.52 890.198 76.72 890.858 77.12C891.538 77.5 892.078 78.02 892.478 78.68C892.878 79.34 893.078 80.08 893.078 80.9C893.078 81.74 892.878 82.5 892.478 83.18C892.078 83.84 891.538 84.37 890.858 84.77C890.198 85.15 889.448 85.34 888.608 85.34ZM888.608 82.22C888.988 82.22 889.298 82.1 889.538 81.86C889.778 81.62 889.898 81.31 889.898 80.93C889.898 80.55 889.778 80.24 889.538 80C889.298 79.76 888.988 79.64 888.608 79.64C888.248 79.64 887.948 79.76 887.708 80C887.468 80.24 887.348 80.55 887.348 80.93C887.348 81.31 887.468 81.62 887.708 81.86C887.948 82.1 888.248 82.22 888.608 82.22ZM898.268 98.3C897.448 98.3 896.698 98.1 896.018 97.7C895.358 97.3 894.828 96.77 894.428 96.11C894.028 95.43 893.828 94.68 893.828 93.86C893.828 93.02 894.028 92.28 894.428 91.64C894.828 90.98 895.358 90.45 896.018 90.05C896.678 89.65 897.418 89.45 898.238 89.45C899.098 89.45 899.858 89.65 900.518 90.05C901.198 90.45 901.738 90.98 902.138 91.64C902.538 92.28 902.738 93.02 902.738 93.86C902.738 94.68 902.538 95.43 902.138 96.11C901.738 96.79 901.198 97.33 900.518 97.73C899.858 98.11 899.108 98.3 898.268 98.3ZM898.268 95.18C898.648 95.18 898.958 95.06 899.198 94.82C899.438 94.58 899.558 94.26 899.558 93.86C899.558 93.5 899.438 93.2 899.198 92.96C898.958 92.7 898.648 92.57 898.268 92.57C897.908 92.57 897.608 92.7 897.368 92.96C897.128 93.2 897.008 93.5 897.008 93.86C897.008 94.26 897.128 94.58 897.368 94.82C897.608 95.06 897.908 95.18 898.268 95.18ZM885.008 98L897.698 76.82H901.898L889.208 98H885.008Z" fill="#ED1356"/>
<path d="M206.18 508L200.62 494.12H202.66L207.24 505.86H206.5L211.12 494.12H213.14L207.54 508H206.18ZM216.67 502.6V500.96H220.45C220.97 500.96 221.43 500.853 221.83 500.64C222.243 500.427 222.563 500.127 222.79 499.74C223.03 499.353 223.15 498.893 223.15 498.36C223.15 497.827 223.03 497.367 222.79 496.98C222.563 496.593 222.243 496.293 221.83 496.08C221.43 495.867 220.97 495.76 220.45 495.76H216.67V494.12H220.57C221.423 494.12 222.183 494.293 222.85 494.64C223.53 494.987 224.063 495.48 224.45 496.12C224.85 496.747 225.05 497.493 225.05 498.36C225.05 499.213 224.85 499.96 224.45 500.6C224.063 501.227 223.53 501.72 222.85 502.08C222.183 502.427 221.423 502.6 220.57 502.6H216.67ZM215.41 508V494.12H217.29V508H215.41ZM231.347 508V494.12H233.227V508H231.347ZM232.627 508V506.28H240.067V508H232.627ZM246.052 508.2C245.105 508.2 244.252 507.987 243.492 507.56C242.732 507.12 242.132 506.527 241.692 505.78C241.252 505.033 241.032 504.187 241.032 503.24C241.032 502.307 241.245 501.467 241.672 500.72C242.112 499.973 242.699 499.387 243.432 498.96C244.179 498.52 245.012 498.3 245.932 498.3C246.812 498.3 247.585 498.5 248.252 498.9C248.932 499.3 249.459 499.853 249.832 500.56C250.219 501.267 250.412 502.067 250.412 502.96C250.412 503.093 250.405 503.24 250.392 503.4C250.379 503.547 250.352 503.72 250.312 503.92H242.292V502.42H249.352L248.692 503C248.692 502.36 248.579 501.82 248.352 501.38C248.125 500.927 247.805 500.58 247.392 500.34C246.979 500.087 246.479 499.96 245.892 499.96C245.279 499.96 244.739 500.093 244.272 500.36C243.805 500.627 243.445 501 243.192 501.48C242.939 501.96 242.812 502.527 242.812 503.18C242.812 503.847 242.945 504.433 243.212 504.94C243.479 505.433 243.859 505.82 244.352 506.1C244.845 506.367 245.412 506.5 246.052 506.5C246.585 506.5 247.072 506.407 247.512 506.22C247.965 506.033 248.352 505.753 248.672 505.38L249.832 506.56C249.379 507.093 248.819 507.5 248.152 507.78C247.499 508.06 246.799 508.2 246.052 508.2ZM255.478 508L251.118 498.5H253.118L256.618 506.52H255.458L258.978 498.5H260.898L256.538 508H255.478ZM266.462 508.2C265.516 508.2 264.662 507.987 263.902 507.56C263.142 507.12 262.542 506.527 262.102 505.78C261.662 505.033 261.442 504.187 261.442 503.24C261.442 502.307 261.656 501.467 262.082 500.72C262.522 499.973 263.109 499.387 263.842 498.96C264.589 498.52 265.422 498.3 266.342 498.3C267.222 498.3 267.996 498.5 268.662 498.9C269.342 499.3 269.869 499.853 270.242 500.56C270.629 501.267 270.822 502.067 270.822 502.96C270.822 503.093 270.816 503.24 270.802 503.4C270.789 503.547 270.762 503.72 270.722 503.92H262.702V502.42H269.762L269.102 503C269.102 502.36 268.989 501.82 268.762 501.38C268.536 500.927 268.216 500.58 267.802 500.34C267.389 500.087 266.889 499.96 266.302 499.96C265.689 499.96 265.149 500.093 264.682 500.36C264.216 500.627 263.856 501 263.602 501.48C263.349 501.96 263.222 502.527 263.222 503.18C263.222 503.847 263.356 504.433 263.622 504.94C263.889 505.433 264.269 505.82 264.762 506.1C265.256 506.367 265.822 506.5 266.462 506.5C266.996 506.5 267.482 506.407 267.922 506.22C268.376 506.033 268.762 505.753 269.082 505.38L270.242 506.56C269.789 507.093 269.229 507.5 268.562 507.78C267.909 508.06 267.209 508.2 266.462 508.2ZM272.785 508V493.72H274.585V508H272.785Z" fill="white"/>
<path d="M223.72 475.36L231.85 466.96C232.35 466.46 232.75 466 233.05 465.58C233.35 465.16 233.57 464.77 233.71 464.41C233.85 464.03 233.92 463.65 233.92 463.27C233.92 462.45 233.65 461.81 233.11 461.35C232.59 460.87 231.9 460.63 231.04 460.63C230.2 460.63 229.44 460.86 228.76 461.32C228.1 461.76 227.46 462.49 226.84 463.51L223.69 460.78C224.53 459.36 225.6 458.29 226.9 457.57C228.2 456.85 229.69 456.49 231.37 456.49C232.83 456.49 234.09 456.76 235.15 457.3C236.23 457.84 237.06 458.61 237.64 459.61C238.24 460.61 238.54 461.78 238.54 463.12C238.54 463.96 238.43 464.74 238.21 465.46C237.99 466.16 237.63 466.86 237.13 467.56C236.65 468.24 236 468.99 235.18 469.81L229.54 475.42L223.72 475.36ZM223.72 478V475.36L227.71 473.98H238.96V478H223.72ZM249.954 478.33C248.254 478.33 246.714 477.87 245.334 476.95C243.954 476.03 242.864 474.75 242.064 473.11C241.284 471.45 240.894 469.54 240.894 467.38C240.894 465.2 241.284 463.3 242.064 461.68C242.844 460.04 243.914 458.77 245.274 457.87C246.634 456.95 248.174 456.49 249.894 456.49C251.634 456.49 253.184 456.95 254.544 457.87C255.904 458.77 256.974 460.04 257.754 461.68C258.554 463.32 258.954 465.23 258.954 467.41C258.954 469.59 258.554 471.5 257.754 473.14C256.974 474.78 255.904 476.06 254.544 476.98C253.204 477.88 251.674 478.33 249.954 478.33ZM249.924 474.16C250.804 474.16 251.564 473.91 252.204 473.41C252.844 472.89 253.334 472.13 253.674 471.13C254.034 470.11 254.214 468.87 254.214 467.41C254.214 465.93 254.034 464.69 253.674 463.69C253.334 462.69 252.844 461.94 252.204 461.44C251.564 460.92 250.794 460.66 249.894 460.66C249.034 460.66 248.274 460.91 247.614 461.41C246.974 461.91 246.484 462.66 246.144 463.66C245.804 464.66 245.634 465.9 245.634 467.38C245.634 468.86 245.804 470.1 246.144 471.1C246.484 472.1 246.974 472.86 247.614 473.38C248.274 473.9 249.044 474.16 249.924 474.16ZM265.344 465.34C264.524 465.34 263.774 465.15 263.094 464.77C262.434 464.37 261.904 463.84 261.504 463.18C261.104 462.5 260.904 461.74 260.904 460.9C260.904 460.08 261.104 459.34 261.504 458.68C261.904 458.02 262.434 457.5 263.094 457.12C263.754 456.72 264.494 456.52 265.314 456.52C266.174 456.52 266.934 456.72 267.594 457.12C268.274 457.5 268.814 458.02 269.214 458.68C269.614 459.34 269.814 460.08 269.814 460.9C269.814 461.74 269.614 462.5 269.214 463.18C268.814 463.84 268.274 464.37 267.594 464.77C266.934 465.15 266.184 465.34 265.344 465.34ZM265.344 462.22C265.724 462.22 266.034 462.1 266.274 461.86C266.514 461.62 266.634 461.31 266.634 460.93C266.634 460.55 266.514 460.24 266.274 460C266.034 459.76 265.724 459.64 265.344 459.64C264.984 459.64 264.684 459.76 264.444 460C264.204 460.24 264.084 460.55 264.084 460.93C264.084 461.31 264.204 461.62 264.444 461.86C264.684 462.1 264.984 462.22 265.344 462.22ZM275.004 478.3C274.184 478.3 273.434 478.1 272.754 477.7C272.094 477.3 271.564 476.77 271.164 476.11C270.764 475.43 270.564 474.68 270.564 473.86C270.564 473.02 270.764 472.28 271.164 471.64C271.564 470.98 272.094 470.45 272.754 470.05C273.414 469.65 274.154 469.45 274.974 469.45C275.834 469.45 276.594 469.65 277.254 470.05C277.934 470.45 278.474 470.98 278.874 471.64C279.274 472.28 279.474 473.02 279.474 473.86C279.474 474.68 279.274 475.43 278.874 476.11C278.474 476.79 277.934 477.33 277.254 477.73C276.594 478.11 275.844 478.3 275.004 478.3ZM275.004 475.18C275.384 475.18 275.694 475.06 275.934 474.82C276.174 474.58 276.294 474.26 276.294 473.86C276.294 473.5 276.174 473.2 275.934 472.96C275.694 472.7 275.384 472.57 275.004 472.57C274.644 472.57 274.344 472.7 274.104 472.96C273.864 473.2 273.744 473.5 273.744 473.86C273.744 474.26 273.864 474.58 274.104 474.82C274.344 475.06 274.644 475.18 275.004 475.18ZM261.744 478L274.434 456.82H278.634L265.944 478H261.744Z" fill="#84D14D"/>
<path d="M74.64 355V341.12H75.96L81.84 350.78H80.94L86.82 341.12H88.14V355H86.26V344.42L86.7 344.54L82.06 352.16H80.74L76.1 344.54L76.52 344.42V355H74.64ZM95.1373 355.2C94.2707 355.2 93.484 354.987 92.7773 354.56C92.0707 354.12 91.5107 353.527 91.0973 352.78C90.6973 352.033 90.4973 351.193 90.4973 350.26C90.4973 349.327 90.6973 348.487 91.0973 347.74C91.5107 346.993 92.064 346.4 92.7573 345.96C93.464 345.52 94.2573 345.3 95.1373 345.3C95.8573 345.3 96.4973 345.453 97.0573 345.76C97.6307 346.053 98.0907 346.467 98.4373 347C98.784 347.52 98.9773 348.127 99.0173 348.82V351.68C98.9773 352.36 98.784 352.967 98.4373 353.5C98.104 354.033 97.6507 354.453 97.0773 354.76C96.5173 355.053 95.8707 355.2 95.1373 355.2ZM95.4373 353.5C96.3307 353.5 97.0507 353.2 97.5973 352.6C98.144 351.987 98.4173 351.207 98.4173 350.26C98.4173 349.607 98.2907 349.04 98.0373 348.56C97.7973 348.067 97.4507 347.687 96.9973 347.42C96.544 347.14 96.0173 347 95.4173 347C94.8173 347 94.284 347.14 93.8173 347.42C93.364 347.7 93.004 348.087 92.7373 348.58C92.484 349.06 92.3573 349.613 92.3573 350.24C92.3573 350.88 92.484 351.447 92.7373 351.94C93.004 352.42 93.3707 352.8 93.8373 353.08C94.304 353.36 94.8373 353.5 95.4373 353.5ZM98.2973 355V352.44L98.6373 350.12L98.2973 347.82V345.5H100.117V355H98.2973ZM109.458 355V349.46C109.458 348.74 109.231 348.147 108.778 347.68C108.325 347.213 107.738 346.98 107.018 346.98C106.538 346.98 106.111 347.087 105.738 347.3C105.365 347.513 105.071 347.807 104.858 348.18C104.645 348.553 104.538 348.98 104.538 349.46L103.798 349.04C103.798 348.32 103.958 347.68 104.278 347.12C104.598 346.56 105.045 346.12 105.618 345.8C106.191 345.467 106.838 345.3 107.558 345.3C108.278 345.3 108.911 345.48 109.458 345.84C110.018 346.2 110.458 346.673 110.778 347.26C111.098 347.833 111.258 348.447 111.258 349.1V355H109.458ZM102.738 355V345.5H104.538V355H102.738ZM117.735 355.2C116.868 355.2 116.082 354.987 115.375 354.56C114.668 354.12 114.108 353.527 113.695 352.78C113.295 352.033 113.095 351.193 113.095 350.26C113.095 349.327 113.295 348.487 113.695 347.74C114.108 346.993 114.662 346.4 115.355 345.96C116.062 345.52 116.855 345.3 117.735 345.3C118.455 345.3 119.095 345.453 119.655 345.76C120.228 346.053 120.688 346.467 121.035 347C121.382 347.52 121.575 348.127 121.615 348.82V351.68C121.575 352.36 121.382 352.967 121.035 353.5C120.702 354.033 120.248 354.453 119.675 354.76C119.115 355.053 118.468 355.2 117.735 355.2ZM118.035 353.5C118.928 353.5 119.648 353.2 120.195 352.6C120.742 351.987 121.015 351.207 121.015 350.26C121.015 349.607 120.888 349.04 120.635 348.56C120.395 348.067 120.048 347.687 119.595 347.42C119.142 347.14 118.615 347 118.015 347C117.415 347 116.882 347.14 116.415 347.42C115.962 347.7 115.602 348.087 115.335 348.58C115.082 349.06 114.955 349.613 114.955 350.24C114.955 350.88 115.082 351.447 115.335 351.94C115.602 352.42 115.968 352.8 116.435 353.08C116.902 353.36 117.435 353.5 118.035 353.5ZM120.895 355V352.44L121.235 350.12L120.895 347.82V345.5H122.715V355H120.895ZM129.276 359.18C128.302 359.18 127.436 359 126.676 358.64C125.929 358.28 125.329 357.773 124.876 357.12L126.036 355.94C126.422 356.433 126.882 356.807 127.416 357.06C127.949 357.327 128.582 357.46 129.316 357.46C130.289 357.46 131.056 357.2 131.616 356.68C132.189 356.173 132.476 355.487 132.476 354.62V352.26L132.796 350.12L132.476 348V345.5H134.276V354.62C134.276 355.527 134.062 356.32 133.636 357C133.222 357.68 132.636 358.213 131.876 358.6C131.129 358.987 130.262 359.18 129.276 359.18ZM129.276 354.84C128.409 354.84 127.629 354.633 126.936 354.22C126.256 353.807 125.716 353.24 125.316 352.52C124.916 351.787 124.716 350.967 124.716 350.06C124.716 349.153 124.916 348.347 125.316 347.64C125.716 346.92 126.256 346.353 126.936 345.94C127.629 345.513 128.409 345.3 129.276 345.3C130.022 345.3 130.682 345.447 131.256 345.74C131.829 346.033 132.282 346.447 132.616 346.98C132.962 347.5 133.149 348.113 133.176 348.82V351.34C133.136 352.033 132.942 352.647 132.596 353.18C132.262 353.7 131.809 354.107 131.236 354.4C130.662 354.693 130.009 354.84 129.276 354.84ZM129.636 353.14C130.222 353.14 130.736 353.013 131.176 352.76C131.629 352.507 131.976 352.153 132.216 351.7C132.456 351.233 132.576 350.693 132.576 350.08C132.576 349.467 132.449 348.933 132.196 348.48C131.956 348.013 131.616 347.653 131.176 347.4C130.736 347.133 130.216 347 129.616 347C129.016 347 128.489 347.133 128.036 347.4C127.582 347.653 127.222 348.013 126.956 348.48C126.702 348.933 126.576 349.46 126.576 350.06C126.576 350.66 126.702 351.193 126.956 351.66C127.222 352.127 127.582 352.493 128.036 352.76C128.502 353.013 129.036 353.14 129.636 353.14ZM141.318 355.2C140.371 355.2 139.518 354.987 138.758 354.56C137.998 354.12 137.398 353.527 136.958 352.78C136.518 352.033 136.298 351.187 136.298 350.24C136.298 349.307 136.511 348.467 136.938 347.72C137.378 346.973 137.964 346.387 138.698 345.96C139.444 345.52 140.278 345.3 141.198 345.3C142.078 345.3 142.851 345.5 143.518 345.9C144.198 346.3 144.724 346.853 145.098 347.56C145.484 348.267 145.678 349.067 145.678 349.96C145.678 350.093 145.671 350.24 145.658 350.4C145.644 350.547 145.618 350.72 145.578 350.92H137.558V349.42H144.618L143.958 350C143.958 349.36 143.844 348.82 143.618 348.38C143.391 347.927 143.071 347.58 142.658 347.34C142.244 347.087 141.744 346.96 141.158 346.96C140.544 346.96 140.004 347.093 139.538 347.36C139.071 347.627 138.711 348 138.458 348.48C138.204 348.96 138.078 349.527 138.078 350.18C138.078 350.847 138.211 351.433 138.478 351.94C138.744 352.433 139.124 352.82 139.618 353.1C140.111 353.367 140.678 353.5 141.318 353.5C141.851 353.5 142.338 353.407 142.778 353.22C143.231 353.033 143.618 352.753 143.938 352.38L145.098 353.56C144.644 354.093 144.084 354.5 143.418 354.78C142.764 355.06 142.064 355.2 141.318 355.2ZM147.64 355V345.5H149.44V355H147.64ZM149.44 349.58L148.76 349.28C148.76 348.067 149.04 347.1 149.6 346.38C150.16 345.66 150.967 345.3 152.02 345.3C152.5 345.3 152.934 345.387 153.32 345.56C153.707 345.72 154.067 345.993 154.4 346.38L153.22 347.6C153.02 347.387 152.8 347.233 152.56 347.14C152.32 347.047 152.04 347 151.72 347C151.054 347 150.507 347.213 150.08 347.64C149.654 348.067 149.44 348.713 149.44 349.58ZM160.499 355V341.12H162.379V355H160.499ZM161.779 355V353.28H169.219V355H161.779ZM175.204 355.2C174.258 355.2 173.404 354.987 172.644 354.56C171.884 354.12 171.284 353.527 170.844 352.78C170.404 352.033 170.184 351.187 170.184 350.24C170.184 349.307 170.398 348.467 170.824 347.72C171.264 346.973 171.851 346.387 172.584 345.96C173.331 345.52 174.164 345.3 175.084 345.3C175.964 345.3 176.738 345.5 177.404 345.9C178.084 346.3 178.611 346.853 178.984 347.56C179.371 348.267 179.564 349.067 179.564 349.96C179.564 350.093 179.558 350.24 179.544 350.4C179.531 350.547 179.504 350.72 179.464 350.92H171.444V349.42H178.504L177.844 350C177.844 349.36 177.731 348.82 177.504 348.38C177.278 347.927 176.958 347.58 176.544 347.34C176.131 347.087 175.631 346.96 175.044 346.96C174.431 346.96 173.891 347.093 173.424 347.36C172.958 347.627 172.598 348 172.344 348.48C172.091 348.96 171.964 349.527 171.964 350.18C171.964 350.847 172.098 351.433 172.364 351.94C172.631 352.433 173.011 352.82 173.504 353.1C173.998 353.367 174.564 353.5 175.204 353.5C175.738 353.5 176.224 353.407 176.664 353.22C177.118 353.033 177.504 352.753 177.824 352.38L178.984 353.56C178.531 354.093 177.971 354.5 177.304 354.78C176.651 355.06 175.951 355.2 175.204 355.2ZM184.631 355L180.271 345.5H182.271L185.771 353.52H184.611L188.131 345.5H190.051L185.691 355H184.631ZM195.615 355.2C194.668 355.2 193.815 354.987 193.055 354.56C192.295 354.12 191.695 353.527 191.255 352.78C190.815 352.033 190.595 351.187 190.595 350.24C190.595 349.307 190.808 348.467 191.235 347.72C191.675 346.973 192.261 346.387 192.995 345.96C193.741 345.52 194.575 345.3 195.495 345.3C196.375 345.3 197.148 345.5 197.815 345.9C198.495 346.3 199.021 346.853 199.395 347.56C199.781 348.267 199.975 349.067 199.975 349.96C199.975 350.093 199.968 350.24 199.955 350.4C199.941 350.547 199.915 350.72 199.875 350.92H191.855V349.42H198.915L198.255 350C198.255 349.36 198.141 348.82 197.915 348.38C197.688 347.927 197.368 347.58 196.955 347.34C196.541 347.087 196.041 346.96 195.455 346.96C194.841 346.96 194.301 347.093 193.835 347.36C193.368 347.627 193.008 348 192.755 348.48C192.501 348.96 192.375 349.527 192.375 350.18C192.375 350.847 192.508 351.433 192.775 351.94C193.041 352.433 193.421 352.82 193.915 353.1C194.408 353.367 194.975 353.5 195.615 353.5C196.148 353.5 196.635 353.407 197.075 353.22C197.528 353.033 197.915 352.753 198.235 352.38L199.395 353.56C198.941 354.093 198.381 354.5 197.715 354.78C197.061 355.06 196.361 355.2 195.615 355.2ZM201.937 355V340.72H203.737V355H201.937Z" fill="white"/>
<path d="M158.68 325V303.82H163.36V325H158.68ZM154.6 307.81V303.82H163.06V307.81H154.6ZM175.358 325.33C173.658 325.33 172.118 324.87 170.738 323.95C169.358 323.03 168.268 321.75 167.468 320.11C166.688 318.45 166.298 316.54 166.298 314.38C166.298 312.2 166.688 310.3 167.468 308.68C168.248 307.04 169.318 305.77 170.678 304.87C172.038 303.95 173.578 303.49 175.298 303.49C177.038 303.49 178.588 303.95 179.948 304.87C181.308 305.77 182.378 307.04 183.158 308.68C183.958 310.32 184.358 312.23 184.358 314.41C184.358 316.59 183.958 318.5 183.158 320.14C182.378 321.78 181.308 323.06 179.948 323.98C178.608 324.88 177.078 325.33 175.358 325.33ZM175.328 321.16C176.208 321.16 176.968 320.91 177.608 320.41C178.248 319.89 178.738 319.13 179.078 318.13C179.438 317.11 179.618 315.87 179.618 314.41C179.618 312.93 179.438 311.69 179.078 310.69C178.738 309.69 178.248 308.94 177.608 308.44C176.968 307.92 176.198 307.66 175.298 307.66C174.438 307.66 173.678 307.91 173.018 308.41C172.378 308.91 171.888 309.66 171.548 310.66C171.208 311.66 171.038 312.9 171.038 314.38C171.038 315.86 171.208 317.1 171.548 318.1C171.888 319.1 172.378 319.86 173.018 320.38C173.678 320.9 174.448 321.16 175.328 321.16ZM190.748 312.34C189.928 312.34 189.178 312.15 188.498 311.77C187.838 311.37 187.308 310.84 186.908 310.18C186.508 309.5 186.308 308.74 186.308 307.9C186.308 307.08 186.508 306.34 186.908 305.68C187.308 305.02 187.838 304.5 188.498 304.12C189.158 303.72 189.898 303.52 190.718 303.52C191.578 303.52 192.338 303.72 192.998 304.12C193.678 304.5 194.218 305.02 194.618 305.68C195.018 306.34 195.218 307.08 195.218 307.9C195.218 308.74 195.018 309.5 194.618 310.18C194.218 310.84 193.678 311.37 192.998 311.77C192.338 312.15 191.588 312.34 190.748 312.34ZM190.748 309.22C191.128 309.22 191.438 309.1 191.678 308.86C191.918 308.62 192.038 308.31 192.038 307.93C192.038 307.55 191.918 307.24 191.678 307C191.438 306.76 191.128 306.64 190.748 306.64C190.388 306.64 190.088 306.76 189.848 307C189.608 307.24 189.488 307.55 189.488 307.93C189.488 308.31 189.608 308.62 189.848 308.86C190.088 309.1 190.388 309.22 190.748 309.22ZM200.408 325.3C199.588 325.3 198.838 325.1 198.158 324.7C197.498 324.3 196.968 323.77 196.568 323.11C196.168 322.43 195.968 321.68 195.968 320.86C195.968 320.02 196.168 319.28 196.568 318.64C196.968 317.98 197.498 317.45 198.158 317.05C198.818 316.65 199.558 316.45 200.378 316.45C201.238 316.45 201.998 316.65 202.658 317.05C203.338 317.45 203.878 317.98 204.278 318.64C204.678 319.28 204.878 320.02 204.878 320.86C204.878 321.68 204.678 322.43 204.278 323.11C203.878 323.79 203.338 324.33 202.658 324.73C201.998 325.11 201.248 325.3 200.408 325.3ZM200.408 322.18C200.788 322.18 201.098 322.06 201.338 321.82C201.578 321.58 201.698 321.26 201.698 320.86C201.698 320.5 201.578 320.2 201.338 319.96C201.098 319.7 200.788 319.57 200.408 319.57C200.048 319.57 199.748 319.7 199.508 319.96C199.268 320.2 199.148 320.5 199.148 320.86C199.148 321.26 199.268 321.58 199.508 321.82C199.748 322.06 200.048 322.18 200.408 322.18ZM187.148 325L199.838 303.82H204.038L191.348 325H187.148Z" fill="#59A82A"/>
<path d="M80.9141 176.041L76.207 189H74.2832L79.7031 174.781H80.9434L80.9141 176.041ZM84.8594 189L80.1426 176.041L80.1133 174.781H81.3535L86.793 189H84.8594ZM84.6152 183.736V185.279H76.627V183.736H84.6152ZM94.5762 186.197C94.5762 185.937 94.5176 185.696 94.4004 185.475C94.2897 185.247 94.0586 185.042 93.707 184.859C93.362 184.671 92.8411 184.508 92.1445 184.371C91.5586 184.247 91.028 184.101 90.5527 183.932C90.084 183.762 89.6836 183.557 89.3516 183.316C89.026 183.076 88.7754 182.792 88.5996 182.467C88.4238 182.141 88.3359 181.76 88.3359 181.324C88.3359 180.908 88.4271 180.514 88.6094 180.143C88.7982 179.771 89.0618 179.443 89.4004 179.156C89.7454 178.87 90.1589 178.645 90.6406 178.482C91.1224 178.32 91.6595 178.238 92.252 178.238C93.0983 178.238 93.821 178.388 94.4199 178.688C95.0189 178.987 95.4779 179.387 95.7969 179.889C96.1159 180.383 96.2754 180.934 96.2754 181.539H94.4688C94.4688 181.246 94.3809 180.963 94.2051 180.689C94.0358 180.41 93.7852 180.178 93.4531 179.996C93.1276 179.814 92.7272 179.723 92.252 179.723C91.7507 179.723 91.3438 179.801 91.0312 179.957C90.7253 180.107 90.5007 180.299 90.3574 180.533C90.2207 180.768 90.1523 181.015 90.1523 181.275C90.1523 181.471 90.1849 181.646 90.25 181.803C90.3216 181.952 90.4453 182.092 90.6211 182.223C90.7969 182.346 91.0443 182.464 91.3633 182.574C91.6823 182.685 92.0892 182.796 92.584 182.906C93.4499 183.102 94.1628 183.336 94.7227 183.609C95.2826 183.883 95.6992 184.218 95.9727 184.615C96.2461 185.012 96.3828 185.494 96.3828 186.061C96.3828 186.523 96.2852 186.946 96.0898 187.33C95.901 187.714 95.6243 188.046 95.2598 188.326C94.9017 188.6 94.472 188.814 93.9707 188.971C93.4759 189.12 92.9193 189.195 92.3008 189.195C91.3698 189.195 90.582 189.029 89.9375 188.697C89.293 188.365 88.8047 187.936 88.4727 187.408C88.1406 186.881 87.9746 186.324 87.9746 185.738H89.791C89.8171 186.233 89.9603 186.627 90.2207 186.92C90.4811 187.206 90.8001 187.411 91.1777 187.535C91.5553 187.652 91.9297 187.711 92.3008 187.711C92.7956 187.711 93.209 187.646 93.541 187.516C93.8796 187.385 94.1367 187.206 94.3125 186.979C94.4883 186.751 94.5762 186.49 94.5762 186.197ZM104.908 186.197C104.908 185.937 104.85 185.696 104.732 185.475C104.622 185.247 104.391 185.042 104.039 184.859C103.694 184.671 103.173 184.508 102.477 184.371C101.891 184.247 101.36 184.101 100.885 183.932C100.416 183.762 100.016 183.557 99.6836 183.316C99.3581 183.076 99.1074 182.792 98.9316 182.467C98.7559 182.141 98.668 181.76 98.668 181.324C98.668 180.908 98.7591 180.514 98.9414 180.143C99.1302 179.771 99.3939 179.443 99.7324 179.156C100.077 178.87 100.491 178.645 100.973 178.482C101.454 178.32 101.992 178.238 102.584 178.238C103.43 178.238 104.153 178.388 104.752 178.688C105.351 178.987 105.81 179.387 106.129 179.889C106.448 180.383 106.607 180.934 106.607 181.539H104.801C104.801 181.246 104.713 180.963 104.537 180.689C104.368 180.41 104.117 180.178 103.785 179.996C103.46 179.814 103.059 179.723 102.584 179.723C102.083 179.723 101.676 179.801 101.363 179.957C101.057 180.107 100.833 180.299 100.689 180.533C100.553 180.768 100.484 181.015 100.484 181.275C100.484 181.471 100.517 181.646 100.582 181.803C100.654 181.952 100.777 182.092 100.953 182.223C101.129 182.346 101.376 182.464 101.695 182.574C102.014 182.685 102.421 182.796 102.916 182.906C103.782 183.102 104.495 183.336 105.055 183.609C105.615 183.883 106.031 184.218 106.305 184.615C106.578 185.012 106.715 185.494 106.715 186.061C106.715 186.523 106.617 186.946 106.422 187.33C106.233 187.714 105.956 188.046 105.592 188.326C105.234 188.6 104.804 188.814 104.303 188.971C103.808 189.12 103.251 189.195 102.633 189.195C101.702 189.195 100.914 189.029 100.27 188.697C99.625 188.365 99.1367 187.936 98.8047 187.408C98.4727 186.881 98.3066 186.324 98.3066 185.738H100.123C100.149 186.233 100.292 186.627 100.553 186.92C100.813 187.206 101.132 187.411 101.51 187.535C101.887 187.652 102.262 187.711 102.633 187.711C103.128 187.711 103.541 187.646 103.873 187.516C104.212 187.385 104.469 187.206 104.645 186.979C104.82 186.751 104.908 186.49 104.908 186.197ZM108.609 183.834V183.609C108.609 182.848 108.72 182.141 108.941 181.49C109.163 180.833 109.482 180.263 109.898 179.781C110.315 179.293 110.82 178.915 111.412 178.648C112.005 178.375 112.669 178.238 113.404 178.238C114.146 178.238 114.814 178.375 115.406 178.648C116.005 178.915 116.513 179.293 116.93 179.781C117.353 180.263 117.675 180.833 117.896 181.49C118.118 182.141 118.229 182.848 118.229 183.609V183.834C118.229 184.596 118.118 185.302 117.896 185.953C117.675 186.604 117.353 187.174 116.93 187.662C116.513 188.144 116.008 188.521 115.416 188.795C114.83 189.062 114.166 189.195 113.424 189.195C112.682 189.195 112.014 189.062 111.422 188.795C110.829 188.521 110.322 188.144 109.898 187.662C109.482 187.174 109.163 186.604 108.941 185.953C108.72 185.302 108.609 184.596 108.609 183.834ZM110.416 183.609V183.834C110.416 184.361 110.478 184.859 110.602 185.328C110.725 185.79 110.911 186.201 111.158 186.559C111.412 186.917 111.728 187.2 112.105 187.408C112.483 187.61 112.923 187.711 113.424 187.711C113.919 187.711 114.352 187.61 114.723 187.408C115.1 187.2 115.413 186.917 115.66 186.559C115.908 186.201 116.093 185.79 116.217 185.328C116.347 184.859 116.412 184.361 116.412 183.834V183.609C116.412 183.089 116.347 182.597 116.217 182.135C116.093 181.666 115.904 181.253 115.65 180.895C115.403 180.53 115.09 180.243 114.713 180.035C114.342 179.827 113.906 179.723 113.404 179.723C112.91 179.723 112.473 179.827 112.096 180.035C111.725 180.243 111.412 180.53 111.158 180.895C110.911 181.253 110.725 181.666 110.602 182.135C110.478 182.597 110.416 183.089 110.416 183.609ZM124.723 187.711C125.152 187.711 125.549 187.623 125.914 187.447C126.279 187.271 126.578 187.031 126.812 186.725C127.047 186.412 127.18 186.057 127.213 185.66H128.932C128.899 186.285 128.688 186.868 128.297 187.408C127.913 187.942 127.408 188.375 126.783 188.707C126.158 189.033 125.471 189.195 124.723 189.195C123.928 189.195 123.235 189.055 122.643 188.775C122.057 188.495 121.568 188.111 121.178 187.623C120.794 187.135 120.504 186.575 120.309 185.943C120.12 185.305 120.025 184.632 120.025 183.922V183.512C120.025 182.802 120.12 182.132 120.309 181.5C120.504 180.862 120.794 180.299 121.178 179.811C121.568 179.322 122.057 178.938 122.643 178.658C123.235 178.378 123.928 178.238 124.723 178.238C125.549 178.238 126.272 178.408 126.891 178.746C127.509 179.078 127.994 179.534 128.346 180.113C128.704 180.686 128.899 181.337 128.932 182.066H127.213C127.18 181.63 127.057 181.236 126.842 180.885C126.633 180.533 126.347 180.253 125.982 180.045C125.624 179.83 125.204 179.723 124.723 179.723C124.169 179.723 123.704 179.833 123.326 180.055C122.955 180.27 122.659 180.562 122.438 180.934C122.223 181.298 122.066 181.705 121.969 182.154C121.878 182.597 121.832 183.049 121.832 183.512V183.922C121.832 184.384 121.878 184.84 121.969 185.289C122.06 185.738 122.213 186.145 122.428 186.51C122.649 186.874 122.945 187.167 123.316 187.389C123.694 187.604 124.163 187.711 124.723 187.711ZM132.926 178.434V189H131.109V178.434H132.926ZM130.973 175.631C130.973 175.338 131.061 175.09 131.236 174.889C131.419 174.687 131.686 174.586 132.037 174.586C132.382 174.586 132.646 174.687 132.828 174.889C133.017 175.09 133.111 175.338 133.111 175.631C133.111 175.911 133.017 176.152 132.828 176.354C132.646 176.549 132.382 176.646 132.037 176.646C131.686 176.646 131.419 176.549 131.236 176.354C131.061 176.152 130.973 175.911 130.973 175.631ZM142.057 187.193V181.754C142.057 181.337 141.972 180.976 141.803 180.67C141.64 180.357 141.393 180.117 141.061 179.947C140.729 179.778 140.318 179.693 139.83 179.693C139.374 179.693 138.974 179.771 138.629 179.928C138.29 180.084 138.023 180.289 137.828 180.543C137.639 180.797 137.545 181.07 137.545 181.363H135.738C135.738 180.986 135.836 180.611 136.031 180.24C136.227 179.869 136.507 179.534 136.871 179.234C137.242 178.928 137.685 178.688 138.199 178.512C138.72 178.329 139.299 178.238 139.938 178.238C140.706 178.238 141.383 178.368 141.969 178.629C142.561 178.889 143.023 179.283 143.355 179.811C143.694 180.331 143.863 180.986 143.863 181.773V186.695C143.863 187.047 143.893 187.421 143.951 187.818C144.016 188.215 144.111 188.557 144.234 188.844V189H142.35C142.258 188.792 142.187 188.515 142.135 188.17C142.083 187.818 142.057 187.493 142.057 187.193ZM142.369 182.594L142.389 183.863H140.562C140.048 183.863 139.589 183.906 139.186 183.99C138.782 184.068 138.443 184.189 138.17 184.352C137.896 184.514 137.688 184.719 137.545 184.967C137.402 185.208 137.33 185.491 137.33 185.816C137.33 186.148 137.405 186.451 137.555 186.725C137.704 186.998 137.929 187.216 138.229 187.379C138.535 187.535 138.909 187.613 139.352 187.613C139.905 187.613 140.393 187.496 140.816 187.262C141.24 187.027 141.575 186.741 141.822 186.402C142.076 186.064 142.213 185.735 142.232 185.416L143.004 186.285C142.958 186.559 142.835 186.861 142.633 187.193C142.431 187.525 142.161 187.844 141.822 188.15C141.49 188.45 141.093 188.701 140.631 188.902C140.175 189.098 139.661 189.195 139.088 189.195C138.372 189.195 137.743 189.055 137.203 188.775C136.669 188.495 136.253 188.121 135.953 187.652C135.66 187.177 135.514 186.646 135.514 186.061C135.514 185.494 135.624 184.996 135.846 184.566C136.067 184.13 136.386 183.769 136.803 183.482C137.219 183.189 137.721 182.968 138.307 182.818C138.893 182.669 139.547 182.594 140.27 182.594H142.369ZM151.129 178.434V179.82H145.416V178.434H151.129ZM147.35 175.865H149.156V186.383C149.156 186.741 149.212 187.011 149.322 187.193C149.433 187.376 149.576 187.496 149.752 187.555C149.928 187.613 150.117 187.643 150.318 187.643C150.468 187.643 150.624 187.63 150.787 187.604C150.956 187.571 151.083 187.545 151.168 187.525L151.178 189C151.035 189.046 150.846 189.088 150.611 189.127C150.383 189.173 150.107 189.195 149.781 189.195C149.339 189.195 148.932 189.107 148.561 188.932C148.189 188.756 147.893 188.463 147.672 188.053C147.457 187.636 147.35 187.076 147.35 186.373V175.865ZM157.633 189.195C156.897 189.195 156.23 189.072 155.631 188.824C155.038 188.57 154.527 188.215 154.098 187.76C153.674 187.304 153.349 186.764 153.121 186.139C152.893 185.514 152.779 184.83 152.779 184.088V183.678C152.779 182.818 152.906 182.053 153.16 181.383C153.414 180.706 153.759 180.133 154.195 179.664C154.632 179.195 155.126 178.84 155.68 178.6C156.233 178.359 156.806 178.238 157.398 178.238C158.154 178.238 158.805 178.368 159.352 178.629C159.905 178.889 160.357 179.254 160.709 179.723C161.061 180.185 161.321 180.732 161.49 181.363C161.66 181.988 161.744 182.672 161.744 183.414V184.225H153.854V182.75H159.938V182.613C159.911 182.145 159.814 181.689 159.645 181.246C159.482 180.803 159.221 180.439 158.863 180.152C158.505 179.866 158.017 179.723 157.398 179.723C156.988 179.723 156.611 179.811 156.266 179.986C155.921 180.156 155.624 180.41 155.377 180.748C155.13 181.087 154.938 181.5 154.801 181.988C154.664 182.477 154.596 183.04 154.596 183.678V184.088C154.596 184.589 154.664 185.061 154.801 185.504C154.944 185.94 155.149 186.324 155.416 186.656C155.689 186.988 156.018 187.249 156.402 187.438C156.793 187.626 157.236 187.721 157.73 187.721C158.368 187.721 158.909 187.59 159.352 187.33C159.794 187.07 160.182 186.721 160.514 186.285L161.607 187.154C161.38 187.499 161.09 187.828 160.738 188.141C160.387 188.453 159.954 188.707 159.439 188.902C158.932 189.098 158.329 189.195 157.633 189.195ZM177.711 187.467V189H170.602V187.467H177.711ZM170.973 174.781V189H169.088V174.781H170.973ZM183.98 189.195C183.245 189.195 182.577 189.072 181.979 188.824C181.386 188.57 180.875 188.215 180.445 187.76C180.022 187.304 179.697 186.764 179.469 186.139C179.241 185.514 179.127 184.83 179.127 184.088V183.678C179.127 182.818 179.254 182.053 179.508 181.383C179.762 180.706 180.107 180.133 180.543 179.664C180.979 179.195 181.474 178.84 182.027 178.6C182.581 178.359 183.154 178.238 183.746 178.238C184.501 178.238 185.152 178.368 185.699 178.629C186.253 178.889 186.705 179.254 187.057 179.723C187.408 180.185 187.669 180.732 187.838 181.363C188.007 181.988 188.092 182.672 188.092 183.414V184.225H180.201V182.75H186.285V182.613C186.259 182.145 186.161 181.689 185.992 181.246C185.829 180.803 185.569 180.439 185.211 180.152C184.853 179.866 184.365 179.723 183.746 179.723C183.336 179.723 182.958 179.811 182.613 179.986C182.268 180.156 181.972 180.41 181.725 180.748C181.477 181.087 181.285 181.5 181.148 181.988C181.012 182.477 180.943 183.04 180.943 183.678V184.088C180.943 184.589 181.012 185.061 181.148 185.504C181.292 185.94 181.497 186.324 181.764 186.656C182.037 186.988 182.366 187.249 182.75 187.438C183.141 187.626 183.583 187.721 184.078 187.721C184.716 187.721 185.257 187.59 185.699 187.33C186.142 187.07 186.529 186.721 186.861 186.285L187.955 187.154C187.727 187.499 187.438 187.828 187.086 188.141C186.734 188.453 186.301 188.707 185.787 188.902C185.279 189.098 184.677 189.195 183.98 189.195ZM193.277 187.369L196.168 178.434H198.014L194.215 189H193.004L193.277 187.369ZM190.865 178.434L193.844 187.418L194.049 189H192.838L189.01 178.434H190.865ZM204 189.195C203.264 189.195 202.597 189.072 201.998 188.824C201.406 188.57 200.895 188.215 200.465 187.76C200.042 187.304 199.716 186.764 199.488 186.139C199.26 185.514 199.146 184.83 199.146 184.088V183.678C199.146 182.818 199.273 182.053 199.527 181.383C199.781 180.706 200.126 180.133 200.562 179.664C200.999 179.195 201.493 178.84 202.047 178.6C202.6 178.359 203.173 178.238 203.766 178.238C204.521 178.238 205.172 178.368 205.719 178.629C206.272 178.889 206.725 179.254 207.076 179.723C207.428 180.185 207.688 180.732 207.857 181.363C208.027 181.988 208.111 182.672 208.111 183.414V184.225H200.221V182.75H206.305V182.613C206.279 182.145 206.181 181.689 206.012 181.246C205.849 180.803 205.589 180.439 205.23 180.152C204.872 179.866 204.384 179.723 203.766 179.723C203.355 179.723 202.978 179.811 202.633 179.986C202.288 180.156 201.992 180.41 201.744 180.748C201.497 181.087 201.305 181.5 201.168 181.988C201.031 182.477 200.963 183.04 200.963 183.678V184.088C200.963 184.589 201.031 185.061 201.168 185.504C201.311 185.94 201.516 186.324 201.783 186.656C202.057 186.988 202.385 187.249 202.77 187.438C203.16 187.626 203.603 187.721 204.098 187.721C204.736 187.721 205.276 187.59 205.719 187.33C206.161 187.07 206.549 186.721 206.881 186.285L207.975 187.154C207.747 187.499 207.457 187.828 207.105 188.141C206.754 188.453 206.321 188.707 205.807 188.902C205.299 189.098 204.697 189.195 204 189.195ZM212.184 174V189H210.367V174H212.184Z" fill="white"/>
<path d="M167.734 159V137.82H172.414V159H167.734ZM163.654 141.81V137.82H172.114V141.81H163.654ZM184.412 159.33C182.712 159.33 181.172 158.87 179.792 157.95C178.412 157.03 177.322 155.75 176.522 154.11C175.742 152.45 175.352 150.54 175.352 148.38C175.352 146.2 175.742 144.3 176.522 142.68C177.302 141.04 178.372 139.77 179.732 138.87C181.092 137.95 182.632 137.49 184.352 137.49C186.092 137.49 187.642 137.95 189.002 138.87C190.362 139.77 191.432 141.04 192.212 142.68C193.012 144.32 193.412 146.23 193.412 148.41C193.412 150.59 193.012 152.5 192.212 154.14C191.432 155.78 190.362 157.06 189.002 157.98C187.662 158.88 186.132 159.33 184.412 159.33ZM184.382 155.16C185.262 155.16 186.022 154.91 186.662 154.41C187.302 153.89 187.792 153.13 188.132 152.13C188.492 151.11 188.672 149.87 188.672 148.41C188.672 146.93 188.492 145.69 188.132 144.69C187.792 143.69 187.302 142.94 186.662 142.44C186.022 141.92 185.252 141.66 184.352 141.66C183.492 141.66 182.732 141.91 182.072 142.41C181.432 142.91 180.942 143.66 180.602 144.66C180.262 145.66 180.092 146.9 180.092 148.38C180.092 149.86 180.262 151.1 180.602 152.1C180.942 153.1 181.432 153.86 182.072 154.38C182.732 154.9 183.502 155.16 184.382 155.16ZM199.802 146.34C198.982 146.34 198.232 146.15 197.552 145.77C196.892 145.37 196.362 144.84 195.962 144.18C195.562 143.5 195.362 142.74 195.362 141.9C195.362 141.08 195.562 140.34 195.962 139.68C196.362 139.02 196.892 138.5 197.552 138.12C198.212 137.72 198.952 137.52 199.772 137.52C200.632 137.52 201.392 137.72 202.052 138.12C202.732 138.5 203.272 139.02 203.672 139.68C204.072 140.34 204.272 141.08 204.272 141.9C204.272 142.74 204.072 143.5 203.672 144.18C203.272 144.84 202.732 145.37 202.052 145.77C201.392 146.15 200.642 146.34 199.802 146.34ZM199.802 143.22C200.182 143.22 200.492 143.1 200.732 142.86C200.972 142.62 201.092 142.31 201.092 141.93C201.092 141.55 200.972 141.24 200.732 141C200.492 140.76 200.182 140.64 199.802 140.64C199.442 140.64 199.142 140.76 198.902 141C198.662 141.24 198.542 141.55 198.542 141.93C198.542 142.31 198.662 142.62 198.902 142.86C199.142 143.1 199.442 143.22 199.802 143.22ZM209.462 159.3C208.642 159.3 207.892 159.1 207.212 158.7C206.552 158.3 206.022 157.77 205.622 157.11C205.222 156.43 205.022 155.68 205.022 154.86C205.022 154.02 205.222 153.28 205.622 152.64C206.022 151.98 206.552 151.45 207.212 151.05C207.872 150.65 208.612 150.45 209.432 150.45C210.292 150.45 211.052 150.65 211.712 151.05C212.392 151.45 212.932 151.98 213.332 152.64C213.732 153.28 213.932 154.02 213.932 154.86C213.932 155.68 213.732 156.43 213.332 157.11C212.932 157.79 212.392 158.33 211.712 158.73C211.052 159.11 210.302 159.3 209.462 159.3ZM209.462 156.18C209.842 156.18 210.152 156.06 210.392 155.82C210.632 155.58 210.752 155.26 210.752 154.86C210.752 154.5 210.632 154.2 210.392 153.96C210.152 153.7 209.842 153.57 209.462 153.57C209.102 153.57 208.802 153.7 208.562 153.96C208.322 154.2 208.202 154.5 208.202 154.86C208.202 155.26 208.322 155.58 208.562 155.82C208.802 156.06 209.102 156.18 209.462 156.18ZM196.202 159L208.892 137.82H213.092L200.402 159H196.202Z" fill="#43861B"/>
<path d="M394.781 149.644C386.017 142.92 373.366 144.527 367.559 153.924C352.657 178.042 343.107 205.085 339.558 233.212C338.175 244.171 347.011 253.368 358.053 253.638L405.947 254.812C416.989 255.083 425.978 246.274 428.239 235.462C430.245 225.871 433.523 216.589 437.985 207.865C443.015 198.031 441.552 185.531 432.789 178.807L394.781 149.644Z" fill="#43861B"/>
<path d="M399.519 372.266C391.049 379.357 389.866 392.056 397.775 399.767C418.372 419.85 443.161 435.262 470.458 444.838C497.756 454.413 526.74 457.865 555.37 455.05C566.363 453.97 573.372 443.315 571.188 432.487L561.718 385.525C559.534 374.697 548.952 367.885 537.908 368.076C524.911 368.301 511.923 366.224 499.557 361.886C487.192 357.548 475.752 351.057 465.744 342.761C457.24 335.713 444.721 334.422 436.252 341.512L399.519 372.266Z" fill="url(#paint0_linear_512_1581)"/>
<path d="M358 258C346.954 258 337.895 266.977 339.009 277.967C342.099 308.458 352.23 337.825 368.597 363.736C374.495 373.075 387.163 374.558 395.859 367.747L433.577 338.21C442.273 331.399 443.613 318.885 438.486 309.101C433.349 299.299 429.719 288.776 427.719 277.891C425.723 267.027 416.953 258 405.907 258H358Z" fill="#59A82A"/>
<path d="M578.639 430.818C581.285 441.542 592.17 448.186 602.573 444.473C625.6 436.252 646.962 423.816 665.541 407.743C689.175 387.298 707.634 361.549 719.408 332.602C731.182 303.655 735.938 272.332 733.286 241.195C730.633 210.058 720.649 179.991 704.148 153.452C687.647 126.914 665.1 104.658 638.348 88.5043C611.597 72.3508 581.402 62.7587 550.233 60.5122C519.064 58.2658 487.806 63.429 459.015 75.5794C436.382 85.131 415.779 98.7873 398.219 115.802C390.286 123.488 391.429 136.19 399.877 143.307L436.513 174.176C444.96 181.293 457.483 180.041 466.01 173.019C474.201 166.273 483.353 160.723 493.194 156.57C509.203 149.814 526.583 146.943 543.914 148.192C561.245 149.441 578.034 154.775 592.908 163.757C607.782 172.738 620.319 185.113 629.494 199.869C638.669 214.625 644.221 231.343 645.695 248.656C647.17 265.969 644.526 283.385 637.979 299.481C631.432 315.576 621.169 329.893 608.028 341.261C599.949 348.25 590.924 354.002 581.249 358.364C571.18 362.904 564.517 373.581 567.163 384.305L578.639 430.818Z" fill="#ED1356"/>
<path d="M835 95H735.541L694 124" stroke="white" stroke-width="2" stroke-dasharray="2 2"/>
<path d="M312.396 479H420.488L483.215 456" stroke="white" stroke-width="2" stroke-dasharray="2 2"/>
<path d="M221 160H300.731L347 183" stroke="white" stroke-width="2" stroke-dasharray="2 2"/>
<path d="M231.748 325H291.114L342.08 325" stroke="white" stroke-width="2" stroke-dasharray="2 2"/>
<defs>
<linearGradient id="paint0_linear_512_1581" x1="387" y1="304" x2="536" y2="456" gradientUnits="userSpaceOnUse">
<stop stop-color="#A1DC67"/>
<stop offset="1" stop-color="#72CA3D"/>
</linearGradient>
</defs>
</svg>
