<svg width="1047" height="464" viewBox="0 0 1047 464" fill="none" xmlns="http://www.w3.org/2000/svg">
<path d="M845.535 70.7812V85H843.65V70.7812H845.535ZM851.492 77.1777V78.7207H845.125V77.1777H851.492ZM852.459 70.7812V72.3242H845.125V70.7812H852.459ZM853.738 79.834V79.6094C853.738 78.8477 853.849 78.1413 854.07 77.4902C854.292 76.8327 854.611 76.263 855.027 75.7812C855.444 75.293 855.949 74.9154 856.541 74.6484C857.133 74.375 857.798 74.2383 858.533 74.2383C859.275 74.2383 859.943 74.375 860.535 74.6484C861.134 74.9154 861.642 75.293 862.059 75.7812C862.482 76.263 862.804 76.8327 863.025 77.4902C863.247 78.1413 863.357 78.8477 863.357 79.6094V79.834C863.357 80.5957 863.247 81.3021 863.025 81.9531C862.804 82.6042 862.482 83.1738 862.059 83.6621C861.642 84.1439 861.137 84.5215 860.545 84.7949C859.959 85.0618 859.295 85.1953 858.553 85.1953C857.811 85.1953 857.143 85.0618 856.551 84.7949C855.958 84.5215 855.451 84.1439 855.027 83.6621C854.611 83.1738 854.292 82.6042 854.07 81.9531C853.849 81.3021 853.738 80.5957 853.738 79.834ZM855.545 79.6094V79.834C855.545 80.3613 855.607 80.8594 855.73 81.3281C855.854 81.7904 856.04 82.2005 856.287 82.5586C856.541 82.9167 856.857 83.1999 857.234 83.4082C857.612 83.61 858.051 83.7109 858.553 83.7109C859.048 83.7109 859.48 83.61 859.852 83.4082C860.229 83.1999 860.542 82.9167 860.789 82.5586C861.036 82.2005 861.222 81.7904 861.346 81.3281C861.476 80.8594 861.541 80.3613 861.541 79.834V79.6094C861.541 79.0885 861.476 78.597 861.346 78.1348C861.222 77.666 861.033 77.2526 860.779 76.8945C860.532 76.5299 860.219 76.2435 859.842 76.0352C859.471 75.8268 859.035 75.7227 858.533 75.7227C858.038 75.7227 857.602 75.8268 857.225 76.0352C856.854 76.2435 856.541 76.5299 856.287 76.8945C856.04 77.2526 855.854 77.666 855.73 78.1348C855.607 78.597 855.545 79.0885 855.545 79.6094ZM872.088 82.5586V74.4336H873.904V85H872.176L872.088 82.5586ZM872.43 80.332L873.182 80.3125C873.182 81.0156 873.107 81.6667 872.957 82.2656C872.814 82.8581 872.579 83.3724 872.254 83.8086C871.928 84.2448 871.502 84.5866 870.975 84.834C870.447 85.0749 869.806 85.1953 869.051 85.1953C868.536 85.1953 868.064 85.1204 867.635 84.9707C867.212 84.821 866.847 84.5898 866.541 84.2773C866.235 83.9648 865.997 83.5579 865.828 83.0566C865.665 82.5553 865.584 81.9531 865.584 81.25V74.4336H867.391V81.2695C867.391 81.7448 867.443 82.1387 867.547 82.4512C867.658 82.7572 867.804 83.0013 867.986 83.1836C868.175 83.3594 868.383 83.4831 868.611 83.5547C868.846 83.6263 869.087 83.6621 869.334 83.6621C870.102 83.6621 870.711 83.5156 871.16 83.2227C871.609 82.9232 871.932 82.5228 872.127 82.0215C872.329 81.5137 872.43 80.9505 872.43 80.332ZM878.465 76.6895V85H876.658V74.4336H878.367L878.465 76.6895ZM878.035 79.3164L877.283 79.2871C877.29 78.5645 877.397 77.8971 877.605 77.2852C877.814 76.6667 878.107 76.1296 878.484 75.6738C878.862 75.2181 879.311 74.8665 879.832 74.6191C880.359 74.3652 880.942 74.2383 881.58 74.2383C882.101 74.2383 882.57 74.3099 882.986 74.4531C883.403 74.5898 883.758 74.8112 884.051 75.1172C884.35 75.4232 884.578 75.8203 884.734 76.3086C884.891 76.7904 884.969 77.3796 884.969 78.0762V85H883.152V78.0566C883.152 77.5033 883.071 77.0605 882.908 76.7285C882.745 76.39 882.508 76.1458 882.195 75.9961C881.883 75.8398 881.499 75.7617 881.043 75.7617C880.594 75.7617 880.184 75.8561 879.812 76.0449C879.448 76.2337 879.132 76.4941 878.865 76.8262C878.605 77.1582 878.4 77.5391 878.25 77.9688C878.107 78.3919 878.035 78.8411 878.035 79.3164ZM894.373 82.9492V70H896.189V85H894.529L894.373 82.9492ZM887.264 79.834V79.6289C887.264 78.8216 887.361 78.0892 887.557 77.4316C887.758 76.7676 888.042 76.1979 888.406 75.7227C888.777 75.2474 889.217 74.8828 889.725 74.6289C890.239 74.3685 890.812 74.2383 891.443 74.2383C892.107 74.2383 892.687 74.3555 893.182 74.5898C893.683 74.8177 894.106 75.153 894.451 75.5957C894.803 76.0319 895.079 76.5592 895.281 77.1777C895.483 77.7962 895.623 78.4961 895.701 79.2773V80.1758C895.63 80.9505 895.49 81.6471 895.281 82.2656C895.079 82.8841 894.803 83.4115 894.451 83.8477C894.106 84.2839 893.683 84.6191 893.182 84.8535C892.68 85.0814 892.094 85.1953 891.424 85.1953C890.805 85.1953 890.239 85.0618 889.725 84.7949C889.217 84.528 888.777 84.1536 888.406 83.6719C888.042 83.1901 887.758 82.6237 887.557 81.9727C887.361 81.3151 887.264 80.6022 887.264 79.834ZM889.08 79.6289V79.834C889.08 80.3613 889.132 80.8561 889.236 81.3184C889.347 81.7806 889.516 82.1875 889.744 82.5391C889.972 82.8906 890.262 83.1673 890.613 83.3691C890.965 83.5645 891.385 83.6621 891.873 83.6621C892.472 83.6621 892.964 83.5352 893.348 83.2812C893.738 83.0273 894.051 82.6921 894.285 82.2754C894.52 81.8587 894.702 81.4062 894.832 80.918V78.5645C894.754 78.2064 894.64 77.8613 894.49 77.5293C894.347 77.1908 894.158 76.8913 893.924 76.6309C893.696 76.3639 893.413 76.1523 893.074 75.9961C892.742 75.8398 892.348 75.7617 891.893 75.7617C891.398 75.7617 890.971 75.8659 890.613 76.0742C890.262 76.276 889.972 76.556 889.744 76.9141C889.516 77.2656 889.347 77.6758 889.236 78.1445C889.132 78.6068 889.08 79.1016 889.08 79.6289ZM903.387 85.1953C902.651 85.1953 901.984 85.0716 901.385 84.8242C900.792 84.5703 900.281 84.2155 899.852 83.7598C899.428 83.304 899.103 82.7637 898.875 82.1387C898.647 81.5137 898.533 80.8301 898.533 80.0879V79.6777C898.533 78.8184 898.66 78.0534 898.914 77.3828C899.168 76.7057 899.513 76.1328 899.949 75.6641C900.385 75.1953 900.88 74.8405 901.434 74.5996C901.987 74.3587 902.56 74.2383 903.152 74.2383C903.908 74.2383 904.559 74.3685 905.105 74.6289C905.659 74.8893 906.111 75.2539 906.463 75.7227C906.814 76.1849 907.075 76.7318 907.244 77.3633C907.413 77.9883 907.498 78.6719 907.498 79.4141V80.2246H899.607V78.75H905.691V78.6133C905.665 78.1445 905.568 77.6888 905.398 77.2461C905.236 76.8034 904.975 76.4388 904.617 76.1523C904.259 75.8659 903.771 75.7227 903.152 75.7227C902.742 75.7227 902.365 75.8105 902.02 75.9863C901.674 76.1556 901.378 76.4095 901.131 76.748C900.883 77.0866 900.691 77.5 900.555 77.9883C900.418 78.4766 900.35 79.0397 900.35 79.6777V80.0879C900.35 80.5892 900.418 81.0612 900.555 81.5039C900.698 81.9401 900.903 82.3242 901.17 82.6562C901.443 82.9883 901.772 83.2487 902.156 83.4375C902.547 83.6263 902.99 83.7207 903.484 83.7207C904.122 83.7207 904.663 83.5905 905.105 83.3301C905.548 83.0697 905.936 82.7214 906.268 82.2852L907.361 83.1543C907.133 83.4993 906.844 83.8281 906.492 84.1406C906.141 84.4531 905.708 84.707 905.193 84.9023C904.686 85.0977 904.083 85.1953 903.387 85.1953ZM911.414 76.0938V85H909.607V74.4336H911.365L911.414 76.0938ZM914.715 74.375L914.705 76.0547C914.555 76.0221 914.412 76.0026 914.275 75.9961C914.145 75.9831 913.995 75.9766 913.826 75.9766C913.41 75.9766 913.042 76.0417 912.723 76.1719C912.404 76.3021 912.133 76.4844 911.912 76.7188C911.691 76.9531 911.515 77.2331 911.385 77.5586C911.261 77.8776 911.18 78.2292 911.141 78.6133L910.633 78.9062C910.633 78.2682 910.695 77.6693 910.818 77.1094C910.949 76.5495 911.147 76.0547 911.414 75.625C911.681 75.1888 912.02 74.8503 912.43 74.6094C912.846 74.362 913.341 74.2383 913.914 74.2383C914.044 74.2383 914.194 74.2546 914.363 74.2871C914.533 74.3132 914.65 74.3424 914.715 74.375ZM922.537 82.1973C922.537 81.9368 922.479 81.696 922.361 81.4746C922.251 81.2467 922.02 81.0417 921.668 80.8594C921.323 80.6706 920.802 80.5078 920.105 80.3711C919.52 80.2474 918.989 80.1009 918.514 79.9316C918.045 79.7624 917.645 79.5573 917.312 79.3164C916.987 79.0755 916.736 78.7923 916.561 78.4668C916.385 78.1413 916.297 77.7604 916.297 77.3242C916.297 76.9076 916.388 76.5137 916.57 76.1426C916.759 75.7715 917.023 75.4427 917.361 75.1562C917.706 74.8698 918.12 74.6452 918.602 74.4824C919.083 74.3197 919.62 74.2383 920.213 74.2383C921.059 74.2383 921.782 74.388 922.381 74.6875C922.98 74.987 923.439 75.3874 923.758 75.8887C924.077 76.3835 924.236 76.9336 924.236 77.5391H922.43C922.43 77.2461 922.342 76.9629 922.166 76.6895C921.997 76.4095 921.746 76.1784 921.414 75.9961C921.089 75.8138 920.688 75.7227 920.213 75.7227C919.712 75.7227 919.305 75.8008 918.992 75.957C918.686 76.1068 918.462 76.2988 918.318 76.5332C918.182 76.7676 918.113 77.015 918.113 77.2754C918.113 77.4707 918.146 77.6465 918.211 77.8027C918.283 77.9525 918.406 78.0924 918.582 78.2227C918.758 78.3464 919.005 78.4635 919.324 78.5742C919.643 78.6849 920.05 78.7956 920.545 78.9062C921.411 79.1016 922.124 79.3359 922.684 79.6094C923.243 79.8828 923.66 80.2181 923.934 80.6152C924.207 81.0124 924.344 81.4941 924.344 82.0605C924.344 82.5228 924.246 82.946 924.051 83.3301C923.862 83.7142 923.585 84.0462 923.221 84.3262C922.863 84.5996 922.433 84.8145 921.932 84.9707C921.437 85.1204 920.88 85.1953 920.262 85.1953C919.331 85.1953 918.543 85.0293 917.898 84.6973C917.254 84.3652 916.766 83.9355 916.434 83.4082C916.102 82.8809 915.936 82.3242 915.936 81.7383H917.752C917.778 82.2331 917.921 82.627 918.182 82.9199C918.442 83.2064 918.761 83.4115 919.139 83.5352C919.516 83.6523 919.891 83.7109 920.262 83.7109C920.757 83.7109 921.17 83.6458 921.502 83.5156C921.84 83.3854 922.098 83.2064 922.273 82.9785C922.449 82.7507 922.537 82.4902 922.537 82.1973ZM937.908 83.1934V77.7539C937.908 77.3372 937.824 76.9759 937.654 76.6699C937.492 76.3574 937.244 76.1165 936.912 75.9473C936.58 75.778 936.17 75.6934 935.682 75.6934C935.226 75.6934 934.826 75.7715 934.48 75.9277C934.142 76.084 933.875 76.2891 933.68 76.543C933.491 76.7969 933.396 77.0703 933.396 77.3633H931.59C931.59 76.9857 931.688 76.6113 931.883 76.2402C932.078 75.8691 932.358 75.5339 932.723 75.2344C933.094 74.9284 933.536 74.6875 934.051 74.5117C934.572 74.3294 935.151 74.2383 935.789 74.2383C936.557 74.2383 937.234 74.3685 937.82 74.6289C938.413 74.8893 938.875 75.2832 939.207 75.8105C939.546 76.3314 939.715 76.9857 939.715 77.7734V82.6953C939.715 83.0469 939.744 83.4212 939.803 83.8184C939.868 84.2155 939.962 84.5573 940.086 84.8438V85H938.201C938.11 84.7917 938.038 84.515 937.986 84.1699C937.934 83.8184 937.908 83.4928 937.908 83.1934ZM938.221 78.5938L938.24 79.8633H936.414C935.9 79.8633 935.441 79.9056 935.037 79.9902C934.633 80.0684 934.295 80.1888 934.021 80.3516C933.748 80.5143 933.54 80.7194 933.396 80.9668C933.253 81.2077 933.182 81.4909 933.182 81.8164C933.182 82.1484 933.257 82.4512 933.406 82.7246C933.556 82.998 933.781 83.2161 934.08 83.3789C934.386 83.5352 934.76 83.6133 935.203 83.6133C935.757 83.6133 936.245 83.4961 936.668 83.2617C937.091 83.0273 937.426 82.7409 937.674 82.4023C937.928 82.0638 938.064 81.735 938.084 81.416L938.855 82.2852C938.81 82.5586 938.686 82.8613 938.484 83.1934C938.283 83.5254 938.012 83.8444 937.674 84.1504C937.342 84.4499 936.945 84.7005 936.482 84.9023C936.027 85.0977 935.512 85.1953 934.939 85.1953C934.223 85.1953 933.595 85.0553 933.055 84.7754C932.521 84.4954 932.104 84.1211 931.805 83.6523C931.512 83.1771 931.365 82.6465 931.365 82.0605C931.365 81.4941 931.476 80.9961 931.697 80.5664C931.919 80.1302 932.238 79.7689 932.654 79.4824C933.071 79.1895 933.572 78.9681 934.158 78.8184C934.744 78.6686 935.398 78.5938 936.121 78.5938H938.221ZM944.363 76.6895V85H942.557V74.4336H944.266L944.363 76.6895ZM943.934 79.3164L943.182 79.2871C943.188 78.5645 943.296 77.8971 943.504 77.2852C943.712 76.6667 944.005 76.1296 944.383 75.6738C944.76 75.2181 945.21 74.8665 945.73 74.6191C946.258 74.3652 946.84 74.2383 947.479 74.2383C947.999 74.2383 948.468 74.3099 948.885 74.4531C949.301 74.5898 949.656 74.8112 949.949 75.1172C950.249 75.4232 950.477 75.8203 950.633 76.3086C950.789 76.7904 950.867 77.3796 950.867 78.0762V85H949.051V78.0566C949.051 77.5033 948.969 77.0605 948.807 76.7285C948.644 76.39 948.406 76.1458 948.094 75.9961C947.781 75.8398 947.397 75.7617 946.941 75.7617C946.492 75.7617 946.082 75.8561 945.711 76.0449C945.346 76.2337 945.031 76.4941 944.764 76.8262C944.503 77.1582 944.298 77.5391 944.148 77.9688C944.005 78.3919 943.934 78.8411 943.934 79.3164ZM960.271 82.9492V70H962.088V85H960.428L960.271 82.9492ZM953.162 79.834V79.6289C953.162 78.8216 953.26 78.0892 953.455 77.4316C953.657 76.7676 953.94 76.1979 954.305 75.7227C954.676 75.2474 955.115 74.8828 955.623 74.6289C956.137 74.3685 956.71 74.2383 957.342 74.2383C958.006 74.2383 958.585 74.3555 959.08 74.5898C959.581 74.8177 960.005 75.153 960.35 75.5957C960.701 76.0319 960.978 76.5592 961.18 77.1777C961.382 77.7962 961.521 78.4961 961.6 79.2773V80.1758C961.528 80.9505 961.388 81.6471 961.18 82.2656C960.978 82.8841 960.701 83.4115 960.35 83.8477C960.005 84.2839 959.581 84.6191 959.08 84.8535C958.579 85.0814 957.993 85.1953 957.322 85.1953C956.704 85.1953 956.137 85.0618 955.623 84.7949C955.115 84.528 954.676 84.1536 954.305 83.6719C953.94 83.1901 953.657 82.6237 953.455 81.9727C953.26 81.3151 953.162 80.6022 953.162 79.834ZM954.979 79.6289V79.834C954.979 80.3613 955.031 80.8561 955.135 81.3184C955.245 81.7806 955.415 82.1875 955.643 82.5391C955.87 82.8906 956.16 83.1673 956.512 83.3691C956.863 83.5645 957.283 83.6621 957.771 83.6621C958.37 83.6621 958.862 83.5352 959.246 83.2812C959.637 83.0273 959.949 82.6921 960.184 82.2754C960.418 81.8587 960.6 81.4062 960.73 80.918V78.5645C960.652 78.2064 960.538 77.8613 960.389 77.5293C960.245 77.1908 960.057 76.8913 959.822 76.6309C959.594 76.3639 959.311 76.1523 958.973 75.9961C958.641 75.8398 958.247 75.7617 957.791 75.7617C957.296 75.7617 956.87 75.8659 956.512 76.0742C956.16 76.276 955.87 76.556 955.643 76.9141C955.415 77.2656 955.245 77.6758 955.135 78.1445C955.031 78.6068 954.979 79.1016 954.979 79.6289ZM978.719 80.4785H980.594C980.496 81.377 980.239 82.181 979.822 82.8906C979.406 83.6003 978.816 84.1634 978.055 84.5801C977.293 84.9902 976.342 85.1953 975.203 85.1953C974.37 85.1953 973.611 85.0391 972.928 84.7266C972.251 84.4141 971.668 83.9714 971.18 83.3984C970.691 82.819 970.314 82.1257 970.047 81.3184C969.786 80.5046 969.656 79.5996 969.656 78.6035V77.1875C969.656 76.1914 969.786 75.2897 970.047 74.4824C970.314 73.6686 970.695 72.972 971.189 72.3926C971.691 71.8132 972.293 71.3672 972.996 71.0547C973.699 70.7422 974.49 70.5859 975.369 70.5859C976.443 70.5859 977.352 70.7878 978.094 71.1914C978.836 71.5951 979.412 72.1549 979.822 72.8711C980.239 73.5807 980.496 74.4043 980.594 75.3418H978.719C978.628 74.6777 978.458 74.1081 978.211 73.6328C977.964 73.151 977.612 72.7799 977.156 72.5195C976.701 72.2591 976.105 72.1289 975.369 72.1289C974.738 72.1289 974.181 72.2493 973.699 72.4902C973.224 72.7311 972.824 73.0729 972.498 73.5156C972.179 73.9583 971.938 74.4889 971.775 75.1074C971.613 75.7259 971.531 76.4128 971.531 77.168V78.6035C971.531 79.3001 971.603 79.9544 971.746 80.5664C971.896 81.1784 972.12 81.7155 972.42 82.1777C972.719 82.64 973.1 83.0046 973.562 83.2715C974.025 83.5319 974.572 83.6621 975.203 83.6621C976.004 83.6621 976.642 83.5352 977.117 83.2812C977.592 83.0273 977.951 82.6628 978.191 82.1875C978.439 81.7122 978.615 81.1426 978.719 80.4785ZM984.383 70.7812L987.801 76.2305L991.219 70.7812H993.416L988.924 77.8223L993.523 85H991.307L987.801 79.4434L984.295 85H982.078L986.678 77.8223L982.186 70.7812H984.383ZM1006.39 77.4414V78.3398C1006.39 79.4076 1006.26 80.3646 1005.99 81.2109C1005.73 82.0573 1005.34 82.7767 1004.84 83.3691C1004.34 83.9616 1003.74 84.4141 1003.04 84.7266C1002.34 85.0391 1001.56 85.1953 1000.69 85.1953C999.852 85.1953 999.08 85.0391 998.377 84.7266C997.68 84.4141 997.075 83.9616 996.561 83.3691C996.053 82.7767 995.659 82.0573 995.379 81.2109C995.099 80.3646 994.959 79.4076 994.959 78.3398V77.4414C994.959 76.3737 995.096 75.4199 995.369 74.5801C995.649 73.7337 996.043 73.0143 996.551 72.4219C997.059 71.8229 997.661 71.3672 998.357 71.0547C999.061 70.7422 999.832 70.5859 1000.67 70.5859C1001.54 70.5859 1002.32 70.7422 1003.02 71.0547C1003.72 71.3672 1004.32 71.8229 1004.82 72.4219C1005.33 73.0143 1005.72 73.7337 1005.98 74.5801C1006.26 75.4199 1006.39 76.3737 1006.39 77.4414ZM1004.53 78.3398V77.4219C1004.53 76.5755 1004.44 75.8268 1004.27 75.1758C1004.1 74.5247 1003.85 73.9779 1003.51 73.5352C1003.18 73.0924 1002.77 72.7572 1002.29 72.5293C1001.82 72.3014 1001.28 72.1875 1000.67 72.1875C1000.09 72.1875 999.555 72.3014 999.08 72.5293C998.611 72.7572 998.208 73.0924 997.869 73.5352C997.537 73.9779 997.28 74.5247 997.098 75.1758C996.915 75.8268 996.824 76.5755 996.824 77.4219V78.3398C996.824 79.1927 996.915 79.9479 997.098 80.6055C997.28 81.2565 997.54 81.8066 997.879 82.2559C998.224 82.6986 998.631 83.0339 999.1 83.2617C999.575 83.4896 1000.11 83.6035 1000.69 83.6035C1001.3 83.6035 1001.85 83.4896 1002.32 83.2617C1002.8 83.0339 1003.2 82.6986 1003.52 82.2559C1003.86 81.8066 1004.11 81.2565 1004.28 80.6055C1004.44 79.9479 1004.53 79.1927 1004.53 78.3398ZM1015.1 82.1973C1015.1 81.9368 1015.04 81.696 1014.92 81.4746C1014.81 81.2467 1014.58 81.0417 1014.23 80.8594C1013.88 80.6706 1013.36 80.5078 1012.66 80.3711C1012.08 80.2474 1011.55 80.1009 1011.07 79.9316C1010.6 79.7624 1010.2 79.5573 1009.87 79.3164C1009.55 79.0755 1009.29 78.7923 1009.12 78.4668C1008.94 78.1413 1008.86 77.7604 1008.86 77.3242C1008.86 76.9076 1008.95 76.5137 1009.13 76.1426C1009.32 75.7715 1009.58 75.4427 1009.92 75.1562C1010.26 74.8698 1010.68 74.6452 1011.16 74.4824C1011.64 74.3197 1012.18 74.2383 1012.77 74.2383C1013.62 74.2383 1014.34 74.388 1014.94 74.6875C1015.54 74.987 1016 75.3874 1016.32 75.8887C1016.64 76.3835 1016.79 76.9336 1016.79 77.5391H1014.99C1014.99 77.2461 1014.9 76.9629 1014.72 76.6895C1014.56 76.4095 1014.3 76.1784 1013.97 75.9961C1013.65 75.8138 1013.25 75.7227 1012.77 75.7227C1012.27 75.7227 1011.86 75.8008 1011.55 75.957C1011.24 76.1068 1011.02 76.2988 1010.88 76.5332C1010.74 76.7676 1010.67 77.015 1010.67 77.2754C1010.67 77.4707 1010.7 77.6465 1010.77 77.8027C1010.84 77.9525 1010.96 78.0924 1011.14 78.2227C1011.32 78.3464 1011.56 78.4635 1011.88 78.5742C1012.2 78.6849 1012.61 78.7956 1013.1 78.9062C1013.97 79.1016 1014.68 79.3359 1015.24 79.6094C1015.8 79.8828 1016.22 80.2181 1016.49 80.6152C1016.77 81.0124 1016.9 81.4941 1016.9 82.0605C1016.9 82.5228 1016.8 82.946 1016.61 83.3301C1016.42 83.7142 1016.14 84.0462 1015.78 84.3262C1015.42 84.5996 1014.99 84.8145 1014.49 84.9707C1014 85.1204 1013.44 85.1953 1012.82 85.1953C1011.89 85.1953 1011.1 85.0293 1010.46 84.6973C1009.81 84.3652 1009.32 83.9355 1008.99 83.4082C1008.66 82.8809 1008.49 82.3242 1008.49 81.7383H1010.31C1010.34 82.2331 1010.48 82.627 1010.74 82.9199C1011 83.2064 1011.32 83.4115 1011.7 83.5352C1012.07 83.6523 1012.45 83.7109 1012.82 83.7109C1013.32 83.7109 1013.73 83.6458 1014.06 83.5156C1014.4 83.3854 1014.66 83.2064 1014.83 82.9785C1015.01 82.7507 1015.1 82.4902 1015.1 82.1973Z" fill="white"/>
<path d="M858.055 50.7041V54H843.465V51.1875L850.364 43.79C851.058 43.0186 851.604 42.3398 852.005 41.7539C852.405 41.1582 852.693 40.626 852.869 40.1572C853.055 39.6787 853.147 39.2246 853.147 38.7949C853.147 38.1504 853.04 37.5986 852.825 37.1396C852.61 36.6709 852.293 36.3096 851.873 36.0557C851.463 35.8018 850.955 35.6748 850.35 35.6748C849.705 35.6748 849.148 35.8311 848.68 36.1436C848.221 36.4561 847.869 36.8906 847.625 37.4473C847.391 38.0039 847.273 38.6338 847.273 39.3369H843.04C843.04 38.0674 843.343 36.9053 843.948 35.8506C844.554 34.7861 845.408 33.9414 846.512 33.3164C847.615 32.6816 848.924 32.3643 850.438 32.3643C851.932 32.3643 853.191 32.6084 854.217 33.0967C855.252 33.5752 856.033 34.2686 856.561 35.1768C857.098 36.0752 857.366 37.1494 857.366 38.3994C857.366 39.1025 857.254 39.791 857.029 40.4648C856.805 41.1289 856.482 41.793 856.062 42.457C855.652 43.1113 855.154 43.7754 854.568 44.4492C853.982 45.123 853.333 45.8213 852.62 46.5439L848.914 50.7041H858.055ZM875.047 41.4609V45.1523C875.047 46.7539 874.876 48.1357 874.534 49.2979C874.192 50.4502 873.699 51.3975 873.055 52.1396C872.42 52.8721 871.663 53.4141 870.784 53.7656C869.905 54.1172 868.929 54.293 867.854 54.293C866.995 54.293 866.194 54.1855 865.452 53.9707C864.71 53.7461 864.041 53.3994 863.445 52.9307C862.859 52.4619 862.352 51.8711 861.922 51.1582C861.502 50.4355 861.18 49.5762 860.955 48.5801C860.73 47.584 860.618 46.4414 860.618 45.1523V41.4609C860.618 39.8594 860.789 38.4873 861.131 37.3447C861.482 36.1924 861.976 35.25 862.61 34.5176C863.255 33.7852 864.017 33.248 864.896 32.9062C865.774 32.5547 866.751 32.3789 867.825 32.3789C868.685 32.3789 869.48 32.4912 870.213 32.7158C870.955 32.9307 871.624 33.2676 872.22 33.7266C872.815 34.1855 873.323 34.7764 873.743 35.499C874.163 36.2119 874.485 37.0664 874.71 38.0625C874.935 39.0488 875.047 40.1816 875.047 41.4609ZM870.813 45.709V40.8896C870.813 40.1182 870.77 39.4443 870.682 38.8682C870.604 38.292 870.481 37.8037 870.315 37.4033C870.149 36.9932 869.944 36.6611 869.7 36.4072C869.456 36.1533 869.178 35.9678 868.865 35.8506C868.553 35.7334 868.206 35.6748 867.825 35.6748C867.347 35.6748 866.922 35.7676 866.551 35.9531C866.189 36.1387 865.882 36.4365 865.628 36.8467C865.374 37.2471 865.179 37.7842 865.042 38.458C864.915 39.1221 864.852 39.9326 864.852 40.8896V45.709C864.852 46.4805 864.891 47.1592 864.969 47.7451C865.057 48.3311 865.184 48.834 865.35 49.2539C865.525 49.6641 865.73 50.001 865.965 50.2646C866.209 50.5186 866.487 50.7041 866.8 50.8213C867.122 50.9385 867.474 50.9971 867.854 50.9971C868.323 50.9971 868.738 50.9043 869.1 50.7188C869.471 50.5234 869.783 50.2207 870.037 49.8105C870.301 49.3906 870.496 48.8438 870.623 48.1699C870.75 47.4961 870.813 46.6758 870.813 45.709ZM877.859 37.9014V36.7734C877.859 35.9629 878.035 35.2256 878.387 34.5615C878.738 33.8975 879.256 33.3652 879.939 32.9648C880.623 32.5645 881.463 32.3643 882.459 32.3643C883.484 32.3643 884.339 32.5645 885.022 32.9648C885.716 33.3652 886.233 33.8975 886.575 34.5615C886.927 35.2256 887.103 35.9629 887.103 36.7734V37.9014C887.103 38.6924 886.927 39.4199 886.575 40.084C886.233 40.748 885.721 41.2803 885.037 41.6807C884.354 42.0811 883.509 42.2812 882.503 42.2812C881.487 42.2812 880.633 42.0811 879.939 41.6807C879.256 41.2803 878.738 40.748 878.387 40.084C878.035 39.4199 877.859 38.6924 877.859 37.9014ZM880.657 36.7734V37.9014C880.657 38.2432 880.721 38.5703 880.848 38.8828C880.984 39.1855 881.189 39.4346 881.463 39.6299C881.746 39.8154 882.088 39.9082 882.488 39.9082C882.908 39.9082 883.25 39.8154 883.514 39.6299C883.777 39.4346 883.973 39.1855 884.1 38.8828C884.227 38.5703 884.29 38.2432 884.29 37.9014V36.7734C884.29 36.4121 884.222 36.0801 884.085 35.7773C883.958 35.4648 883.758 35.2158 883.484 35.0303C883.221 34.835 882.879 34.7373 882.459 34.7373C882.068 34.7373 881.736 34.835 881.463 35.0303C881.189 35.2158 880.984 35.4648 880.848 35.7773C880.721 36.0801 880.657 36.4121 880.657 36.7734ZM888.055 49.8984V48.7705C888.055 47.9697 888.23 47.2373 888.582 46.5732C888.943 45.9092 889.466 45.377 890.149 44.9766C890.843 44.5762 891.692 44.376 892.698 44.376C893.714 44.376 894.563 44.5762 895.247 44.9766C895.931 45.377 896.448 45.9092 896.8 46.5732C897.151 47.2373 897.327 47.9697 897.327 48.7705V49.8984C897.327 50.6992 897.151 51.4316 896.8 52.0957C896.458 52.7598 895.945 53.292 895.262 53.6924C894.578 54.0928 893.733 54.293 892.728 54.293C891.712 54.293 890.857 54.0928 890.164 53.6924C889.471 53.292 888.943 52.7598 888.582 52.0957C888.23 51.4316 888.055 50.6992 888.055 49.8984ZM890.867 48.7705V49.8984C890.867 50.25 890.945 50.582 891.102 50.8945C891.258 51.207 891.473 51.4561 891.746 51.6416C892.029 51.8271 892.356 51.9199 892.728 51.9199C893.196 51.9199 893.562 51.8271 893.826 51.6416C894.09 51.4561 894.271 51.207 894.368 50.8945C894.476 50.582 894.529 50.25 894.529 49.8984V48.7705C894.529 48.4189 894.461 48.0918 894.324 47.7891C894.188 47.4766 893.982 47.2275 893.709 47.042C893.445 46.8467 893.108 46.749 892.698 46.749C892.288 46.749 891.946 46.8467 891.673 47.042C891.409 47.2275 891.209 47.4766 891.072 47.7891C890.936 48.0918 890.867 48.4189 890.867 48.7705ZM893.738 35.7188L883.323 52.3887L881.272 51.3047L891.688 34.6348L893.738 35.7188Z" fill="#ED1356"/>
<path d="M160.835 48.1553C160.835 49.4932 160.522 50.6211 159.897 51.5391C159.272 52.4473 158.413 53.1357 157.319 53.6045C156.235 54.0635 155.005 54.293 153.628 54.293C152.251 54.293 151.016 54.0635 149.922 53.6045C148.828 53.1357 147.964 52.4473 147.329 51.5391C146.694 50.6211 146.377 49.4932 146.377 48.1553C146.377 47.2568 146.558 46.4463 146.919 45.7236C147.28 44.9912 147.783 44.3662 148.428 43.8486C149.082 43.3213 149.849 42.9209 150.728 42.6475C151.606 42.3643 152.563 42.2227 153.599 42.2227C154.985 42.2227 156.226 42.4668 157.319 42.9551C158.413 43.4434 159.272 44.1318 159.897 45.0205C160.522 45.9092 160.835 46.9541 160.835 48.1553ZM156.587 47.877C156.587 47.2227 156.46 46.6611 156.206 46.1924C155.962 45.7139 155.615 45.3477 155.166 45.0938C154.717 44.8398 154.194 44.7129 153.599 44.7129C153.003 44.7129 152.48 44.8398 152.031 45.0938C151.582 45.3477 151.23 45.7139 150.977 46.1924C150.732 46.6611 150.61 47.2227 150.61 47.877C150.61 48.5215 150.732 49.0781 150.977 49.5469C151.23 50.0156 151.582 50.377 152.031 50.6309C152.49 50.875 153.022 50.9971 153.628 50.9971C154.233 50.9971 154.756 50.875 155.195 50.6309C155.645 50.377 155.986 50.0156 156.221 49.5469C156.465 49.0781 156.587 48.5215 156.587 47.877ZM160.381 38.3262C160.381 39.4102 160.093 40.3721 159.517 41.2119C158.94 42.042 158.14 42.6914 157.114 43.1602C156.099 43.6289 154.937 43.8633 153.628 43.8633C152.31 43.8633 151.138 43.6289 150.112 43.1602C149.087 42.6914 148.286 42.042 147.71 41.2119C147.134 40.3721 146.846 39.4102 146.846 38.3262C146.846 37.0371 147.134 35.9531 147.71 35.0742C148.296 34.1855 149.097 33.5117 150.112 33.0527C151.138 32.5938 152.3 32.3643 153.599 32.3643C154.917 32.3643 156.084 32.5938 157.1 33.0527C158.125 33.5117 158.926 34.1855 159.502 35.0742C160.088 35.9531 160.381 37.0371 160.381 38.3262ZM156.162 38.5166C156.162 37.9404 156.06 37.4424 155.854 37.0225C155.649 36.5928 155.356 36.2607 154.976 36.0264C154.604 35.792 154.146 35.6748 153.599 35.6748C153.071 35.6748 152.617 35.7871 152.236 36.0117C151.865 36.2363 151.577 36.5635 151.372 36.9932C151.177 37.4131 151.079 37.9209 151.079 38.5166C151.079 39.0928 151.177 39.6006 151.372 40.04C151.577 40.4697 151.87 40.8066 152.251 41.0508C152.632 41.2949 153.091 41.417 153.628 41.417C154.165 41.417 154.619 41.2949 154.99 41.0508C155.371 40.8066 155.659 40.4697 155.854 40.04C156.06 39.6006 156.162 39.0928 156.162 38.5166ZM178.047 41.4609V45.1523C178.047 46.7539 177.876 48.1357 177.534 49.2979C177.192 50.4502 176.699 51.3975 176.055 52.1396C175.42 52.8721 174.663 53.4141 173.784 53.7656C172.905 54.1172 171.929 54.293 170.854 54.293C169.995 54.293 169.194 54.1855 168.452 53.9707C167.71 53.7461 167.041 53.3994 166.445 52.9307C165.859 52.4619 165.352 51.8711 164.922 51.1582C164.502 50.4355 164.18 49.5762 163.955 48.5801C163.73 47.584 163.618 46.4414 163.618 45.1523V41.4609C163.618 39.8594 163.789 38.4873 164.131 37.3447C164.482 36.1924 164.976 35.25 165.61 34.5176C166.255 33.7852 167.017 33.248 167.896 32.9062C168.774 32.5547 169.751 32.3789 170.825 32.3789C171.685 32.3789 172.48 32.4912 173.213 32.7158C173.955 32.9307 174.624 33.2676 175.22 33.7266C175.815 34.1855 176.323 34.7764 176.743 35.499C177.163 36.2119 177.485 37.0664 177.71 38.0625C177.935 39.0488 178.047 40.1816 178.047 41.4609ZM173.813 45.709V40.8896C173.813 40.1182 173.77 39.4443 173.682 38.8682C173.604 38.292 173.481 37.8037 173.315 37.4033C173.149 36.9932 172.944 36.6611 172.7 36.4072C172.456 36.1533 172.178 35.9678 171.865 35.8506C171.553 35.7334 171.206 35.6748 170.825 35.6748C170.347 35.6748 169.922 35.7676 169.551 35.9531C169.189 36.1387 168.882 36.4365 168.628 36.8467C168.374 37.2471 168.179 37.7842 168.042 38.458C167.915 39.1221 167.852 39.9326 167.852 40.8896V45.709C167.852 46.4805 167.891 47.1592 167.969 47.7451C168.057 48.3311 168.184 48.834 168.35 49.2539C168.525 49.6641 168.73 50.001 168.965 50.2646C169.209 50.5186 169.487 50.7041 169.8 50.8213C170.122 50.9385 170.474 50.9971 170.854 50.9971C171.323 50.9971 171.738 50.9043 172.1 50.7188C172.471 50.5234 172.783 50.2207 173.037 49.8105C173.301 49.3906 173.496 48.8438 173.623 48.1699C173.75 47.4961 173.813 46.6758 173.813 45.709ZM180.859 37.9014V36.7734C180.859 35.9629 181.035 35.2256 181.387 34.5615C181.738 33.8975 182.256 33.3652 182.939 32.9648C183.623 32.5645 184.463 32.3643 185.459 32.3643C186.484 32.3643 187.339 32.5645 188.022 32.9648C188.716 33.3652 189.233 33.8975 189.575 34.5615C189.927 35.2256 190.103 35.9629 190.103 36.7734V37.9014C190.103 38.6924 189.927 39.4199 189.575 40.084C189.233 40.748 188.721 41.2803 188.037 41.6807C187.354 42.0811 186.509 42.2812 185.503 42.2812C184.487 42.2812 183.633 42.0811 182.939 41.6807C182.256 41.2803 181.738 40.748 181.387 40.084C181.035 39.4199 180.859 38.6924 180.859 37.9014ZM183.657 36.7734V37.9014C183.657 38.2432 183.721 38.5703 183.848 38.8828C183.984 39.1855 184.189 39.4346 184.463 39.6299C184.746 39.8154 185.088 39.9082 185.488 39.9082C185.908 39.9082 186.25 39.8154 186.514 39.6299C186.777 39.4346 186.973 39.1855 187.1 38.8828C187.227 38.5703 187.29 38.2432 187.29 37.9014V36.7734C187.29 36.4121 187.222 36.0801 187.085 35.7773C186.958 35.4648 186.758 35.2158 186.484 35.0303C186.221 34.835 185.879 34.7373 185.459 34.7373C185.068 34.7373 184.736 34.835 184.463 35.0303C184.189 35.2158 183.984 35.4648 183.848 35.7773C183.721 36.0801 183.657 36.4121 183.657 36.7734ZM191.055 49.8984V48.7705C191.055 47.9697 191.23 47.2373 191.582 46.5732C191.943 45.9092 192.466 45.377 193.149 44.9766C193.843 44.5762 194.692 44.376 195.698 44.376C196.714 44.376 197.563 44.5762 198.247 44.9766C198.931 45.377 199.448 45.9092 199.8 46.5732C200.151 47.2373 200.327 47.9697 200.327 48.7705V49.8984C200.327 50.6992 200.151 51.4316 199.8 52.0957C199.458 52.7598 198.945 53.292 198.262 53.6924C197.578 54.0928 196.733 54.293 195.728 54.293C194.712 54.293 193.857 54.0928 193.164 53.6924C192.471 53.292 191.943 52.7598 191.582 52.0957C191.23 51.4316 191.055 50.6992 191.055 49.8984ZM193.867 48.7705V49.8984C193.867 50.25 193.945 50.582 194.102 50.8945C194.258 51.207 194.473 51.4561 194.746 51.6416C195.029 51.8271 195.356 51.9199 195.728 51.9199C196.196 51.9199 196.562 51.8271 196.826 51.6416C197.09 51.4561 197.271 51.207 197.368 50.8945C197.476 50.582 197.529 50.25 197.529 49.8984V48.7705C197.529 48.4189 197.461 48.0918 197.324 47.7891C197.188 47.4766 196.982 47.2275 196.709 47.042C196.445 46.8467 196.108 46.749 195.698 46.749C195.288 46.749 194.946 46.8467 194.673 47.042C194.409 47.2275 194.209 47.4766 194.072 47.7891C193.936 48.0918 193.867 48.4189 193.867 48.7705ZM196.738 35.7188L186.323 52.3887L184.272 51.3047L194.688 34.6348L196.738 35.7188Z" fill="#9AD960"/>
<path d="M100.283 82.8418L104.473 70.7812H106.514L101.25 85H99.7949L100.283 82.8418ZM96.3672 70.7812L100.518 82.8418L101.035 85H99.5801L94.3262 70.7812H96.3672ZM116.875 80.4785H118.75C118.652 81.377 118.395 82.181 117.979 82.8906C117.562 83.6003 116.973 84.1634 116.211 84.5801C115.449 84.9902 114.499 85.1953 113.359 85.1953C112.526 85.1953 111.768 85.0391 111.084 84.7266C110.407 84.4141 109.824 83.9714 109.336 83.3984C108.848 82.819 108.47 82.1257 108.203 81.3184C107.943 80.5046 107.812 79.5996 107.812 78.6035V77.1875C107.812 76.1914 107.943 75.2897 108.203 74.4824C108.47 73.6686 108.851 72.972 109.346 72.3926C109.847 71.8132 110.449 71.3672 111.152 71.0547C111.855 70.7422 112.646 70.5859 113.525 70.5859C114.6 70.5859 115.508 70.7878 116.25 71.1914C116.992 71.5951 117.568 72.1549 117.979 72.8711C118.395 73.5807 118.652 74.4043 118.75 75.3418H116.875C116.784 74.6777 116.615 74.1081 116.367 73.6328C116.12 73.151 115.768 72.7799 115.312 72.5195C114.857 72.2591 114.261 72.1289 113.525 72.1289C112.894 72.1289 112.337 72.2493 111.855 72.4902C111.38 72.7311 110.98 73.0729 110.654 73.5156C110.335 73.9583 110.094 74.4889 109.932 75.1074C109.769 75.7259 109.688 76.4128 109.688 77.168V78.6035C109.688 79.3001 109.759 79.9544 109.902 80.5664C110.052 81.1784 110.277 81.7155 110.576 82.1777C110.876 82.64 111.257 83.0046 111.719 83.2715C112.181 83.5319 112.728 83.6621 113.359 83.6621C114.16 83.6621 114.798 83.5352 115.273 83.2812C115.749 83.0273 116.107 82.6628 116.348 82.1875C116.595 81.7122 116.771 81.1426 116.875 80.4785ZM127.197 82.1973C127.197 81.9368 127.139 81.696 127.021 81.4746C126.911 81.2467 126.68 81.0417 126.328 80.8594C125.983 80.6706 125.462 80.5078 124.766 80.3711C124.18 80.2474 123.649 80.1009 123.174 79.9316C122.705 79.7624 122.305 79.5573 121.973 79.3164C121.647 79.0755 121.396 78.7923 121.221 78.4668C121.045 78.1413 120.957 77.7604 120.957 77.3242C120.957 76.9076 121.048 76.5137 121.23 76.1426C121.419 75.7715 121.683 75.4427 122.021 75.1562C122.367 74.8698 122.78 74.6452 123.262 74.4824C123.743 74.3197 124.281 74.2383 124.873 74.2383C125.719 74.2383 126.442 74.388 127.041 74.6875C127.64 74.987 128.099 75.3874 128.418 75.8887C128.737 76.3835 128.896 76.9336 128.896 77.5391H127.09C127.09 77.2461 127.002 76.9629 126.826 76.6895C126.657 76.4095 126.406 76.1784 126.074 75.9961C125.749 75.8138 125.348 75.7227 124.873 75.7227C124.372 75.7227 123.965 75.8008 123.652 75.957C123.346 76.1068 123.122 76.2988 122.979 76.5332C122.842 76.7676 122.773 77.015 122.773 77.2754C122.773 77.4707 122.806 77.6465 122.871 77.8027C122.943 77.9525 123.066 78.0924 123.242 78.2227C123.418 78.3464 123.665 78.4635 123.984 78.5742C124.303 78.6849 124.71 78.7956 125.205 78.9062C126.071 79.1016 126.784 79.3359 127.344 79.6094C127.904 79.8828 128.32 80.2181 128.594 80.6152C128.867 81.0124 129.004 81.4941 129.004 82.0605C129.004 82.5228 128.906 82.946 128.711 83.3301C128.522 83.7142 128.245 84.0462 127.881 84.3262C127.523 84.5996 127.093 84.8145 126.592 84.9707C126.097 85.1204 125.54 85.1953 124.922 85.1953C123.991 85.1953 123.203 85.0293 122.559 84.6973C121.914 84.3652 121.426 83.9355 121.094 83.4082C120.762 82.8809 120.596 82.3242 120.596 81.7383H122.412C122.438 82.2331 122.581 82.627 122.842 82.9199C123.102 83.2064 123.421 83.4115 123.799 83.5352C124.176 83.6523 124.551 83.7109 124.922 83.7109C125.417 83.7109 125.83 83.6458 126.162 83.5156C126.501 83.3854 126.758 83.2064 126.934 82.9785C127.109 82.7507 127.197 82.4902 127.197 82.1973ZM133.018 82.8516V84.3066C133.018 84.8991 132.868 85.5241 132.568 86.1816C132.269 86.8457 131.849 87.3991 131.309 87.8418L130.283 87.1289C130.492 86.8424 130.667 86.5495 130.811 86.25C130.954 85.957 131.061 85.651 131.133 85.332C131.211 85.0195 131.25 84.6875 131.25 84.3359V82.8516H133.018ZM145.82 72.041L141.113 85H139.189L144.609 70.7812H145.85L145.82 72.041ZM149.766 85L145.049 72.041L145.02 70.7812H146.26L151.699 85H149.766ZM149.521 79.7363V81.2793H141.533V79.7363H149.521ZM155.137 76.6895V85H153.33V74.4336H155.039L155.137 76.6895ZM154.707 79.3164L153.955 79.2871C153.962 78.5645 154.069 77.8971 154.277 77.2852C154.486 76.6667 154.779 76.1296 155.156 75.6738C155.534 75.2181 155.983 74.8665 156.504 74.6191C157.031 74.3652 157.614 74.2383 158.252 74.2383C158.773 74.2383 159.242 74.3099 159.658 74.4531C160.075 74.5898 160.43 74.8112 160.723 75.1172C161.022 75.4232 161.25 75.8203 161.406 76.3086C161.562 76.7904 161.641 77.3796 161.641 78.0762V85H159.824V78.0566C159.824 77.5033 159.743 77.0605 159.58 76.7285C159.417 76.39 159.18 76.1458 158.867 75.9961C158.555 75.8398 158.171 75.7617 157.715 75.7617C157.266 75.7617 156.855 75.8561 156.484 76.0449C156.12 76.2337 155.804 76.4941 155.537 76.8262C155.277 77.1582 155.072 77.5391 154.922 77.9688C154.779 78.3919 154.707 78.8411 154.707 79.3164ZM171.23 74.4336H172.871V84.7754C172.871 85.7064 172.682 86.5007 172.305 87.1582C171.927 87.8158 171.4 88.3138 170.723 88.6523C170.052 88.9974 169.277 89.1699 168.398 89.1699C168.034 89.1699 167.604 89.1113 167.109 88.9941C166.621 88.8835 166.139 88.6914 165.664 88.418C165.195 88.151 164.801 87.7897 164.482 87.334L165.43 86.2598C165.872 86.7936 166.335 87.1647 166.816 87.373C167.305 87.5814 167.786 87.6855 168.262 87.6855C168.835 87.6855 169.329 87.5781 169.746 87.3633C170.163 87.1484 170.485 86.8294 170.713 86.4062C170.947 85.9896 171.064 85.4753 171.064 84.8633V76.7578L171.23 74.4336ZM163.955 79.834V79.6289C163.955 78.8216 164.049 78.0892 164.238 77.4316C164.434 76.7676 164.71 76.1979 165.068 75.7227C165.433 75.2474 165.872 74.8828 166.387 74.6289C166.901 74.3685 167.48 74.2383 168.125 74.2383C168.789 74.2383 169.368 74.3555 169.863 74.5898C170.365 74.8177 170.788 75.153 171.133 75.5957C171.484 76.0319 171.761 76.5592 171.963 77.1777C172.165 77.7962 172.305 78.4961 172.383 79.2773V80.1758C172.311 80.9505 172.171 81.6471 171.963 82.2656C171.761 82.8841 171.484 83.4115 171.133 83.8477C170.788 84.2839 170.365 84.6191 169.863 84.8535C169.362 85.0814 168.776 85.1953 168.105 85.1953C167.474 85.1953 166.901 85.0618 166.387 84.7949C165.879 84.528 165.443 84.1536 165.078 83.6719C164.714 83.1901 164.434 82.6237 164.238 81.9727C164.049 81.3151 163.955 80.6022 163.955 79.834ZM165.762 79.6289V79.834C165.762 80.3613 165.814 80.8561 165.918 81.3184C166.029 81.7806 166.195 82.1875 166.416 82.5391C166.644 82.8906 166.934 83.1673 167.285 83.3691C167.637 83.5645 168.057 83.6621 168.545 83.6621C169.144 83.6621 169.639 83.5352 170.029 83.2812C170.42 83.0273 170.729 82.6921 170.957 82.2754C171.191 81.8587 171.374 81.4062 171.504 80.918V78.5645C171.432 78.2064 171.322 77.8613 171.172 77.5293C171.029 77.1908 170.84 76.8913 170.605 76.6309C170.378 76.3639 170.094 76.1523 169.756 75.9961C169.417 75.8398 169.02 75.7617 168.564 75.7617C168.07 75.7617 167.643 75.8659 167.285 76.0742C166.934 76.276 166.644 76.556 166.416 76.9141C166.195 77.2656 166.029 77.6758 165.918 78.1445C165.814 78.6068 165.762 79.1016 165.762 79.6289ZM180 85.1953C179.264 85.1953 178.597 85.0716 177.998 84.8242C177.406 84.5703 176.895 84.2155 176.465 83.7598C176.042 83.304 175.716 82.7637 175.488 82.1387C175.26 81.5137 175.146 80.8301 175.146 80.0879V79.6777C175.146 78.8184 175.273 78.0534 175.527 77.3828C175.781 76.7057 176.126 76.1328 176.562 75.6641C176.999 75.1953 177.493 74.8405 178.047 74.5996C178.6 74.3587 179.173 74.2383 179.766 74.2383C180.521 74.2383 181.172 74.3685 181.719 74.6289C182.272 74.8893 182.725 75.2539 183.076 75.7227C183.428 76.1849 183.688 76.7318 183.857 77.3633C184.027 77.9883 184.111 78.6719 184.111 79.4141V80.2246H176.221V78.75H182.305V78.6133C182.279 78.1445 182.181 77.6888 182.012 77.2461C181.849 76.8034 181.589 76.4388 181.23 76.1523C180.872 75.8659 180.384 75.7227 179.766 75.7227C179.355 75.7227 178.978 75.8105 178.633 75.9863C178.288 76.1556 177.992 76.4095 177.744 76.748C177.497 77.0866 177.305 77.5 177.168 77.9883C177.031 78.4766 176.963 79.0397 176.963 79.6777V80.0879C176.963 80.5892 177.031 81.0612 177.168 81.5039C177.311 81.9401 177.516 82.3242 177.783 82.6562C178.057 82.9883 178.385 83.2487 178.77 83.4375C179.16 83.6263 179.603 83.7207 180.098 83.7207C180.736 83.7207 181.276 83.5905 181.719 83.3301C182.161 83.0697 182.549 82.7214 182.881 82.2852L183.975 83.1543C183.747 83.4993 183.457 83.8281 183.105 84.1406C182.754 84.4531 182.321 84.707 181.807 84.9023C181.299 85.0977 180.697 85.1953 180 85.1953ZM188.184 70V85H186.367V70H188.184ZM197.236 82.1973C197.236 81.9368 197.178 81.696 197.061 81.4746C196.95 81.2467 196.719 81.0417 196.367 80.8594C196.022 80.6706 195.501 80.5078 194.805 80.3711C194.219 80.2474 193.688 80.1009 193.213 79.9316C192.744 79.7624 192.344 79.5573 192.012 79.3164C191.686 79.0755 191.436 78.7923 191.26 78.4668C191.084 78.1413 190.996 77.7604 190.996 77.3242C190.996 76.9076 191.087 76.5137 191.27 76.1426C191.458 75.7715 191.722 75.4427 192.061 75.1562C192.406 74.8698 192.819 74.6452 193.301 74.4824C193.783 74.3197 194.32 74.2383 194.912 74.2383C195.758 74.2383 196.481 74.388 197.08 74.6875C197.679 74.987 198.138 75.3874 198.457 75.8887C198.776 76.3835 198.936 76.9336 198.936 77.5391H197.129C197.129 77.2461 197.041 76.9629 196.865 76.6895C196.696 76.4095 196.445 76.1784 196.113 75.9961C195.788 75.8138 195.387 75.7227 194.912 75.7227C194.411 75.7227 194.004 75.8008 193.691 75.957C193.385 76.1068 193.161 76.2988 193.018 76.5332C192.881 76.7676 192.812 77.015 192.812 77.2754C192.812 77.4707 192.845 77.6465 192.91 77.8027C192.982 77.9525 193.105 78.0924 193.281 78.2227C193.457 78.3464 193.704 78.4635 194.023 78.5742C194.342 78.6849 194.749 78.7956 195.244 78.9062C196.11 79.1016 196.823 79.3359 197.383 79.6094C197.943 79.8828 198.359 80.2181 198.633 80.6152C198.906 81.0124 199.043 81.4941 199.043 82.0605C199.043 82.5228 198.945 82.946 198.75 83.3301C198.561 83.7142 198.285 84.0462 197.92 84.3262C197.562 84.5996 197.132 84.8145 196.631 84.9707C196.136 85.1204 195.579 85.1953 194.961 85.1953C194.03 85.1953 193.242 85.0293 192.598 84.6973C191.953 84.3652 191.465 83.9355 191.133 83.4082C190.801 82.8809 190.635 82.3242 190.635 81.7383H192.451C192.477 82.2331 192.62 82.627 192.881 82.9199C193.141 83.2064 193.46 83.4115 193.838 83.5352C194.215 83.6523 194.59 83.7109 194.961 83.7109C195.456 83.7109 195.869 83.6458 196.201 83.5156C196.54 83.3854 196.797 83.2064 196.973 82.9785C197.148 82.7507 197.236 82.4902 197.236 82.1973ZM38.8965 113.193V107.754C38.8965 107.337 38.8118 106.976 38.6426 106.67C38.4798 106.357 38.2324 106.117 37.9004 105.947C37.5684 105.778 37.1582 105.693 36.6699 105.693C36.2142 105.693 35.8138 105.771 35.4688 105.928C35.1302 106.084 34.8633 106.289 34.668 106.543C34.4792 106.797 34.3848 107.07 34.3848 107.363H32.5781C32.5781 106.986 32.6758 106.611 32.8711 106.24C33.0664 105.869 33.3464 105.534 33.7109 105.234C34.082 104.928 34.5247 104.688 35.0391 104.512C35.5599 104.329 36.1393 104.238 36.7773 104.238C37.5456 104.238 38.2227 104.368 38.8086 104.629C39.401 104.889 39.8633 105.283 40.1953 105.811C40.5339 106.331 40.7031 106.986 40.7031 107.773V112.695C40.7031 113.047 40.7324 113.421 40.791 113.818C40.8561 114.215 40.9505 114.557 41.0742 114.844V115H39.1895C39.0983 114.792 39.0267 114.515 38.9746 114.17C38.9225 113.818 38.8965 113.493 38.8965 113.193ZM39.209 108.594L39.2285 109.863H37.4023C36.888 109.863 36.429 109.906 36.0254 109.99C35.6217 110.068 35.2832 110.189 35.0098 110.352C34.7363 110.514 34.528 110.719 34.3848 110.967C34.2415 111.208 34.1699 111.491 34.1699 111.816C34.1699 112.148 34.2448 112.451 34.3945 112.725C34.5443 112.998 34.7689 113.216 35.0684 113.379C35.3743 113.535 35.7487 113.613 36.1914 113.613C36.7448 113.613 37.2331 113.496 37.6562 113.262C38.0794 113.027 38.4147 112.741 38.6621 112.402C38.916 112.064 39.0527 111.735 39.0723 111.416L39.8438 112.285C39.7982 112.559 39.6745 112.861 39.4727 113.193C39.2708 113.525 39.0007 113.844 38.6621 114.15C38.3301 114.45 37.9329 114.701 37.4707 114.902C37.015 115.098 36.5007 115.195 35.9277 115.195C35.2116 115.195 34.5833 115.055 34.043 114.775C33.5091 114.495 33.0924 114.121 32.793 113.652C32.5 113.177 32.3535 112.646 32.3535 112.061C32.3535 111.494 32.4642 110.996 32.6855 110.566C32.9069 110.13 33.2259 109.769 33.6426 109.482C34.0592 109.189 34.5605 108.968 35.1465 108.818C35.7324 108.669 36.3867 108.594 37.1094 108.594H39.209ZM45.3516 106.689V115H43.5449V104.434H45.2539L45.3516 106.689ZM44.9219 109.316L44.1699 109.287C44.1764 108.564 44.2839 107.897 44.4922 107.285C44.7005 106.667 44.9935 106.13 45.3711 105.674C45.7487 105.218 46.1979 104.867 46.7188 104.619C47.2461 104.365 47.8288 104.238 48.4668 104.238C48.9876 104.238 49.4564 104.31 49.873 104.453C50.2897 104.59 50.6445 104.811 50.9375 105.117C51.237 105.423 51.4648 105.82 51.6211 106.309C51.7773 106.79 51.8555 107.38 51.8555 108.076V115H50.0391V108.057C50.0391 107.503 49.9577 107.061 49.7949 106.729C49.6322 106.39 49.3945 106.146 49.082 105.996C48.7695 105.84 48.3854 105.762 47.9297 105.762C47.4805 105.762 47.0703 105.856 46.6992 106.045C46.3346 106.234 46.0189 106.494 45.752 106.826C45.4915 107.158 45.2865 107.539 45.1367 107.969C44.9935 108.392 44.9219 108.841 44.9219 109.316ZM61.2598 112.949V100H63.0762V115H61.416L61.2598 112.949ZM54.1504 109.834V109.629C54.1504 108.822 54.248 108.089 54.4434 107.432C54.6452 106.768 54.9284 106.198 55.293 105.723C55.6641 105.247 56.1035 104.883 56.6113 104.629C57.1257 104.368 57.6986 104.238 58.3301 104.238C58.9941 104.238 59.5736 104.355 60.0684 104.59C60.5697 104.818 60.9928 105.153 61.3379 105.596C61.6895 106.032 61.9661 106.559 62.168 107.178C62.3698 107.796 62.5098 108.496 62.5879 109.277V110.176C62.5163 110.951 62.3763 111.647 62.168 112.266C61.9661 112.884 61.6895 113.411 61.3379 113.848C60.9928 114.284 60.5697 114.619 60.0684 114.854C59.5671 115.081 58.9811 115.195 58.3105 115.195C57.6921 115.195 57.1257 115.062 56.6113 114.795C56.1035 114.528 55.6641 114.154 55.293 113.672C54.9284 113.19 54.6452 112.624 54.4434 111.973C54.248 111.315 54.1504 110.602 54.1504 109.834ZM55.9668 109.629V109.834C55.9668 110.361 56.0189 110.856 56.123 111.318C56.2337 111.781 56.403 112.188 56.6309 112.539C56.8587 112.891 57.1484 113.167 57.5 113.369C57.8516 113.564 58.2715 113.662 58.7598 113.662C59.3587 113.662 59.8503 113.535 60.2344 113.281C60.625 113.027 60.9375 112.692 61.1719 112.275C61.4062 111.859 61.5885 111.406 61.7188 110.918V108.564C61.6406 108.206 61.5267 107.861 61.377 107.529C61.2337 107.191 61.0449 106.891 60.8105 106.631C60.5827 106.364 60.2995 106.152 59.9609 105.996C59.6289 105.84 59.235 105.762 58.7793 105.762C58.2845 105.762 57.8581 105.866 57.5 106.074C57.1484 106.276 56.8587 106.556 56.6309 106.914C56.403 107.266 56.2337 107.676 56.123 108.145C56.0189 108.607 55.9668 109.102 55.9668 109.629ZM82.0703 107.441V108.34C82.0703 109.408 81.9368 110.365 81.6699 111.211C81.403 112.057 81.0189 112.777 80.5176 113.369C80.0163 113.962 79.4141 114.414 78.7109 114.727C78.0143 115.039 77.2331 115.195 76.3672 115.195C75.5273 115.195 74.7559 115.039 74.0527 114.727C73.3561 114.414 72.7507 113.962 72.2363 113.369C71.7285 112.777 71.3346 112.057 71.0547 111.211C70.7747 110.365 70.6348 109.408 70.6348 108.34V107.441C70.6348 106.374 70.7715 105.42 71.0449 104.58C71.3249 103.734 71.7188 103.014 72.2266 102.422C72.7344 101.823 73.3366 101.367 74.0332 101.055C74.7363 100.742 75.5078 100.586 76.3477 100.586C77.2135 100.586 77.9948 100.742 78.6914 101.055C79.3945 101.367 79.9967 101.823 80.498 102.422C81.0059 103.014 81.3932 103.734 81.6602 104.58C81.9336 105.42 82.0703 106.374 82.0703 107.441ZM80.2051 108.34V107.422C80.2051 106.576 80.1172 105.827 79.9414 105.176C79.7721 104.525 79.5215 103.978 79.1895 103.535C78.8574 103.092 78.4505 102.757 77.9688 102.529C77.4935 102.301 76.9531 102.188 76.3477 102.188C75.7617 102.188 75.2311 102.301 74.7559 102.529C74.2871 102.757 73.8835 103.092 73.5449 103.535C73.2129 103.978 72.9557 104.525 72.7734 105.176C72.5911 105.827 72.5 106.576 72.5 107.422V108.34C72.5 109.193 72.5911 109.948 72.7734 110.605C72.9557 111.257 73.2161 111.807 73.5547 112.256C73.8997 112.699 74.3066 113.034 74.7754 113.262C75.2507 113.49 75.7812 113.604 76.3672 113.604C76.9792 113.604 77.5228 113.49 77.998 113.262C78.4733 113.034 78.8737 112.699 79.1992 112.256C79.5312 111.807 79.7819 111.257 79.9512 110.605C80.1204 109.948 80.2051 109.193 80.2051 108.34ZM89.043 104.434V105.82H83.3301V104.434H89.043ZM85.2637 101.865H87.0703V112.383C87.0703 112.741 87.1257 113.011 87.2363 113.193C87.347 113.376 87.4902 113.496 87.666 113.555C87.8418 113.613 88.0306 113.643 88.2324 113.643C88.3822 113.643 88.5384 113.63 88.7012 113.604C88.8704 113.571 88.9974 113.545 89.082 113.525L89.0918 115C88.9486 115.046 88.7598 115.088 88.5254 115.127C88.2975 115.173 88.0208 115.195 87.6953 115.195C87.2526 115.195 86.8457 115.107 86.4746 114.932C86.1035 114.756 85.8073 114.463 85.5859 114.053C85.3711 113.636 85.2637 113.076 85.2637 112.373V101.865ZM92.9688 100V115H91.1621V100H92.9688ZM92.5391 109.316L91.7871 109.287C91.7936 108.564 91.901 107.897 92.1094 107.285C92.3177 106.667 92.6107 106.13 92.9883 105.674C93.3659 105.218 93.8151 104.867 94.3359 104.619C94.8633 104.365 95.446 104.238 96.084 104.238C96.6048 104.238 97.0736 104.31 97.4902 104.453C97.9069 104.59 98.2617 104.811 98.5547 105.117C98.8542 105.423 99.082 105.82 99.2383 106.309C99.3945 106.79 99.4727 107.38 99.4727 108.076V115H97.6562V108.057C97.6562 107.503 97.5749 107.061 97.4121 106.729C97.2493 106.39 97.0117 106.146 96.6992 105.996C96.3867 105.84 96.0026 105.762 95.5469 105.762C95.0977 105.762 94.6875 105.856 94.3164 106.045C93.9518 106.234 93.6361 106.494 93.3691 106.826C93.1087 107.158 92.9036 107.539 92.7539 107.969C92.6107 108.392 92.5391 108.841 92.5391 109.316ZM106.562 115.195C105.827 115.195 105.16 115.072 104.561 114.824C103.968 114.57 103.457 114.215 103.027 113.76C102.604 113.304 102.279 112.764 102.051 112.139C101.823 111.514 101.709 110.83 101.709 110.088V109.678C101.709 108.818 101.836 108.053 102.09 107.383C102.344 106.706 102.689 106.133 103.125 105.664C103.561 105.195 104.056 104.84 104.609 104.6C105.163 104.359 105.736 104.238 106.328 104.238C107.083 104.238 107.734 104.368 108.281 104.629C108.835 104.889 109.287 105.254 109.639 105.723C109.99 106.185 110.251 106.732 110.42 107.363C110.589 107.988 110.674 108.672 110.674 109.414V110.225H102.783V108.75H108.867V108.613C108.841 108.145 108.743 107.689 108.574 107.246C108.411 106.803 108.151 106.439 107.793 106.152C107.435 105.866 106.947 105.723 106.328 105.723C105.918 105.723 105.54 105.811 105.195 105.986C104.85 106.156 104.554 106.41 104.307 106.748C104.059 107.087 103.867 107.5 103.73 107.988C103.594 108.477 103.525 109.04 103.525 109.678V110.088C103.525 110.589 103.594 111.061 103.73 111.504C103.874 111.94 104.079 112.324 104.346 112.656C104.619 112.988 104.948 113.249 105.332 113.438C105.723 113.626 106.165 113.721 106.66 113.721C107.298 113.721 107.839 113.59 108.281 113.33C108.724 113.07 109.111 112.721 109.443 112.285L110.537 113.154C110.309 113.499 110.02 113.828 109.668 114.141C109.316 114.453 108.883 114.707 108.369 114.902C107.861 115.098 107.259 115.195 106.562 115.195ZM114.59 106.094V115H112.783V104.434H114.541L114.59 106.094ZM117.891 104.375L117.881 106.055C117.731 106.022 117.588 106.003 117.451 105.996C117.321 105.983 117.171 105.977 117.002 105.977C116.585 105.977 116.217 106.042 115.898 106.172C115.579 106.302 115.309 106.484 115.088 106.719C114.867 106.953 114.691 107.233 114.561 107.559C114.437 107.878 114.355 108.229 114.316 108.613L113.809 108.906C113.809 108.268 113.87 107.669 113.994 107.109C114.124 106.549 114.323 106.055 114.59 105.625C114.857 105.189 115.195 104.85 115.605 104.609C116.022 104.362 116.517 104.238 117.09 104.238C117.22 104.238 117.37 104.255 117.539 104.287C117.708 104.313 117.826 104.342 117.891 104.375ZM126.816 100.781V115H124.932V100.781H126.816ZM131.777 106.689V115H129.971V104.434H131.68L131.777 106.689ZM131.348 109.316L130.596 109.287C130.602 108.564 130.71 107.897 130.918 107.285C131.126 106.667 131.419 106.13 131.797 105.674C132.174 105.218 132.624 104.867 133.145 104.619C133.672 104.365 134.255 104.238 134.893 104.238C135.413 104.238 135.882 104.31 136.299 104.453C136.715 104.59 137.07 104.811 137.363 105.117C137.663 105.423 137.891 105.82 138.047 106.309C138.203 106.79 138.281 107.38 138.281 108.076V115H136.465V108.057C136.465 107.503 136.383 107.061 136.221 106.729C136.058 106.39 135.82 106.146 135.508 105.996C135.195 105.84 134.811 105.762 134.355 105.762C133.906 105.762 133.496 105.856 133.125 106.045C132.76 106.234 132.445 106.494 132.178 106.826C131.917 107.158 131.712 107.539 131.562 107.969C131.419 108.392 131.348 108.841 131.348 109.316ZM144.238 113.369L147.129 104.434H148.975L145.176 115H143.965L144.238 113.369ZM141.826 104.434L144.805 113.418L145.01 115H143.799L139.971 104.434H141.826ZM154.961 115.195C154.225 115.195 153.558 115.072 152.959 114.824C152.367 114.57 151.855 114.215 151.426 113.76C151.003 113.304 150.677 112.764 150.449 112.139C150.221 111.514 150.107 110.83 150.107 110.088V109.678C150.107 108.818 150.234 108.053 150.488 107.383C150.742 106.706 151.087 106.133 151.523 105.664C151.96 105.195 152.454 104.84 153.008 104.6C153.561 104.359 154.134 104.238 154.727 104.238C155.482 104.238 156.133 104.368 156.68 104.629C157.233 104.889 157.686 105.254 158.037 105.723C158.389 106.185 158.649 106.732 158.818 107.363C158.988 107.988 159.072 108.672 159.072 109.414V110.225H151.182V108.75H157.266V108.613C157.24 108.145 157.142 107.689 156.973 107.246C156.81 106.803 156.549 106.439 156.191 106.152C155.833 105.866 155.345 105.723 154.727 105.723C154.316 105.723 153.939 105.811 153.594 105.986C153.249 106.156 152.952 106.41 152.705 106.748C152.458 107.087 152.266 107.5 152.129 107.988C151.992 108.477 151.924 109.04 151.924 109.678V110.088C151.924 110.589 151.992 111.061 152.129 111.504C152.272 111.94 152.477 112.324 152.744 112.656C153.018 112.988 153.346 113.249 153.73 113.438C154.121 113.626 154.564 113.721 155.059 113.721C155.697 113.721 156.237 113.59 156.68 113.33C157.122 113.07 157.51 112.721 157.842 112.285L158.936 113.154C158.708 113.499 158.418 113.828 158.066 114.141C157.715 114.453 157.282 114.707 156.768 114.902C156.26 115.098 155.658 115.195 154.961 115.195ZM167.334 112.197C167.334 111.937 167.275 111.696 167.158 111.475C167.048 111.247 166.816 111.042 166.465 110.859C166.12 110.671 165.599 110.508 164.902 110.371C164.316 110.247 163.786 110.101 163.311 109.932C162.842 109.762 162.441 109.557 162.109 109.316C161.784 109.076 161.533 108.792 161.357 108.467C161.182 108.141 161.094 107.76 161.094 107.324C161.094 106.908 161.185 106.514 161.367 106.143C161.556 105.771 161.82 105.443 162.158 105.156C162.503 104.87 162.917 104.645 163.398 104.482C163.88 104.32 164.417 104.238 165.01 104.238C165.856 104.238 166.579 104.388 167.178 104.688C167.777 104.987 168.236 105.387 168.555 105.889C168.874 106.383 169.033 106.934 169.033 107.539H167.227C167.227 107.246 167.139 106.963 166.963 106.689C166.794 106.41 166.543 106.178 166.211 105.996C165.885 105.814 165.485 105.723 165.01 105.723C164.508 105.723 164.102 105.801 163.789 105.957C163.483 106.107 163.258 106.299 163.115 106.533C162.979 106.768 162.91 107.015 162.91 107.275C162.91 107.471 162.943 107.646 163.008 107.803C163.079 107.952 163.203 108.092 163.379 108.223C163.555 108.346 163.802 108.464 164.121 108.574C164.44 108.685 164.847 108.796 165.342 108.906C166.208 109.102 166.921 109.336 167.48 109.609C168.04 109.883 168.457 110.218 168.73 110.615C169.004 111.012 169.141 111.494 169.141 112.061C169.141 112.523 169.043 112.946 168.848 113.33C168.659 113.714 168.382 114.046 168.018 114.326C167.66 114.6 167.23 114.814 166.729 114.971C166.234 115.12 165.677 115.195 165.059 115.195C164.128 115.195 163.34 115.029 162.695 114.697C162.051 114.365 161.562 113.936 161.23 113.408C160.898 112.881 160.732 112.324 160.732 111.738H162.549C162.575 112.233 162.718 112.627 162.979 112.92C163.239 113.206 163.558 113.411 163.936 113.535C164.313 113.652 164.688 113.711 165.059 113.711C165.553 113.711 165.967 113.646 166.299 113.516C166.637 113.385 166.895 113.206 167.07 112.979C167.246 112.751 167.334 112.49 167.334 112.197ZM175.938 104.434V105.82H170.225V104.434H175.938ZM172.158 101.865H173.965V112.383C173.965 112.741 174.02 113.011 174.131 113.193C174.242 113.376 174.385 113.496 174.561 113.555C174.736 113.613 174.925 113.643 175.127 113.643C175.277 113.643 175.433 113.63 175.596 113.604C175.765 113.571 175.892 113.545 175.977 113.525L175.986 115C175.843 115.046 175.654 115.088 175.42 115.127C175.192 115.173 174.915 115.195 174.59 115.195C174.147 115.195 173.74 115.107 173.369 114.932C172.998 114.756 172.702 114.463 172.48 114.053C172.266 113.636 172.158 113.076 172.158 112.373V101.865ZM177.383 109.834V109.609C177.383 108.848 177.493 108.141 177.715 107.49C177.936 106.833 178.255 106.263 178.672 105.781C179.089 105.293 179.593 104.915 180.186 104.648C180.778 104.375 181.442 104.238 182.178 104.238C182.92 104.238 183.587 104.375 184.18 104.648C184.779 104.915 185.286 105.293 185.703 105.781C186.126 106.263 186.449 106.833 186.67 107.49C186.891 108.141 187.002 108.848 187.002 109.609V109.834C187.002 110.596 186.891 111.302 186.67 111.953C186.449 112.604 186.126 113.174 185.703 113.662C185.286 114.144 184.782 114.521 184.189 114.795C183.604 115.062 182.939 115.195 182.197 115.195C181.455 115.195 180.788 115.062 180.195 114.795C179.603 114.521 179.095 114.144 178.672 113.662C178.255 113.174 177.936 112.604 177.715 111.953C177.493 111.302 177.383 110.596 177.383 109.834ZM179.189 109.609V109.834C179.189 110.361 179.251 110.859 179.375 111.328C179.499 111.79 179.684 112.201 179.932 112.559C180.186 112.917 180.501 113.2 180.879 113.408C181.257 113.61 181.696 113.711 182.197 113.711C182.692 113.711 183.125 113.61 183.496 113.408C183.874 113.2 184.186 112.917 184.434 112.559C184.681 112.201 184.867 111.79 184.99 111.328C185.12 110.859 185.186 110.361 185.186 109.834V109.609C185.186 109.089 185.12 108.597 184.99 108.135C184.867 107.666 184.678 107.253 184.424 106.895C184.176 106.53 183.864 106.243 183.486 106.035C183.115 105.827 182.679 105.723 182.178 105.723C181.683 105.723 181.247 105.827 180.869 106.035C180.498 106.243 180.186 106.53 179.932 106.895C179.684 107.253 179.499 107.666 179.375 108.135C179.251 108.597 179.189 109.089 179.189 109.609ZM191.074 106.094V115H189.268V104.434H191.025L191.074 106.094ZM194.375 104.375L194.365 106.055C194.215 106.022 194.072 106.003 193.936 105.996C193.805 105.983 193.656 105.977 193.486 105.977C193.07 105.977 192.702 106.042 192.383 106.172C192.064 106.302 191.794 106.484 191.572 106.719C191.351 106.953 191.175 107.233 191.045 107.559C190.921 107.878 190.84 108.229 190.801 108.613L190.293 108.906C190.293 108.268 190.355 107.669 190.479 107.109C190.609 106.549 190.807 106.055 191.074 105.625C191.341 105.189 191.68 104.85 192.09 104.609C192.507 104.362 193.001 104.238 193.574 104.238C193.704 104.238 193.854 104.255 194.023 104.287C194.193 104.313 194.31 104.342 194.375 104.375ZM202.197 112.197C202.197 111.937 202.139 111.696 202.021 111.475C201.911 111.247 201.68 111.042 201.328 110.859C200.983 110.671 200.462 110.508 199.766 110.371C199.18 110.247 198.649 110.101 198.174 109.932C197.705 109.762 197.305 109.557 196.973 109.316C196.647 109.076 196.396 108.792 196.221 108.467C196.045 108.141 195.957 107.76 195.957 107.324C195.957 106.908 196.048 106.514 196.23 106.143C196.419 105.771 196.683 105.443 197.021 105.156C197.367 104.87 197.78 104.645 198.262 104.482C198.743 104.32 199.281 104.238 199.873 104.238C200.719 104.238 201.442 104.388 202.041 104.688C202.64 104.987 203.099 105.387 203.418 105.889C203.737 106.383 203.896 106.934 203.896 107.539H202.09C202.09 107.246 202.002 106.963 201.826 106.689C201.657 106.41 201.406 106.178 201.074 105.996C200.749 105.814 200.348 105.723 199.873 105.723C199.372 105.723 198.965 105.801 198.652 105.957C198.346 106.107 198.122 106.299 197.979 106.533C197.842 106.768 197.773 107.015 197.773 107.275C197.773 107.471 197.806 107.646 197.871 107.803C197.943 107.952 198.066 108.092 198.242 108.223C198.418 108.346 198.665 108.464 198.984 108.574C199.303 108.685 199.71 108.796 200.205 108.906C201.071 109.102 201.784 109.336 202.344 109.609C202.904 109.883 203.32 110.218 203.594 110.615C203.867 111.012 204.004 111.494 204.004 112.061C204.004 112.523 203.906 112.946 203.711 113.33C203.522 113.714 203.245 114.046 202.881 114.326C202.523 114.6 202.093 114.814 201.592 114.971C201.097 115.12 200.54 115.195 199.922 115.195C198.991 115.195 198.203 115.029 197.559 114.697C196.914 114.365 196.426 113.936 196.094 113.408C195.762 112.881 195.596 112.324 195.596 111.738H197.412C197.438 112.233 197.581 112.627 197.842 112.92C198.102 113.206 198.421 113.411 198.799 113.535C199.176 113.652 199.551 113.711 199.922 113.711C200.417 113.711 200.83 113.646 201.162 113.516C201.501 113.385 201.758 113.206 201.934 112.979C202.109 112.751 202.197 112.49 202.197 112.197Z" fill="white"/>
<path d="M687.8 175.333C697.965 171.01 702.787 159.203 697.462 149.526C677.309 112.91 645.981 83.4444 607.804 65.6097C569.627 47.775 526.925 42.6566 485.91 50.6978C475.071 52.8229 469.11 64.0984 472.317 74.6682L486.227 120.512C489.435 131.082 500.619 136.853 511.594 135.608C531.648 133.334 552.08 136.604 570.597 145.255C589.114 153.905 604.734 167.477 615.858 184.316C621.947 193.533 633.55 198.407 643.715 194.084L687.8 175.333Z" fill="#ED1356"/>
<path d="M463.714 77.5199C459.973 67.127 448.458 61.6439 438.495 66.4139C409.39 80.3491 384.034 101.237 364.74 127.355C341.472 158.854 328.067 196.545 326.22 235.662C324.373 274.779 334.168 313.565 354.364 347.116C374.561 380.667 404.253 407.475 439.686 424.151C475.119 440.827 514.701 446.621 553.426 440.801C592.152 434.981 628.282 417.808 657.248 391.454C686.214 365.1 706.715 330.749 716.158 292.743C723.987 261.23 723.923 228.378 716.111 197.069C713.437 186.351 701.873 180.973 691.48 184.714L646.404 200.939C636.011 204.681 630.816 216.144 632.618 227.042C635.054 241.774 634.478 256.92 630.844 271.546C625.594 292.678 614.195 311.778 598.089 326.432C581.983 341.085 561.894 350.634 540.362 353.87C518.829 357.106 496.821 353.884 477.119 344.612C457.418 335.34 440.908 320.434 429.679 301.779C418.449 283.124 413.003 261.558 414.03 239.808C415.057 218.058 422.51 197.101 435.448 179.587C444.403 167.464 455.707 157.368 468.612 149.855C478.158 144.298 483.681 132.989 479.939 122.596L463.714 77.5199Z" fill="url(#paint0_linear_501_1356)"/>
<path d="M222 53.5H346.5L398.5 82.5" stroke="white" stroke-width="2" stroke-dasharray="2 2"/>
<path d="M824.5 53.5H700L648 82.5" stroke="white" stroke-width="2" stroke-dasharray="2 2"/>
<defs>
<linearGradient id="paint0_linear_501_1356" x1="524" y1="47" x2="524" y2="443" gradientUnits="userSpaceOnUse">
<stop stop-color="#A1DC67"/>
<stop offset="1" stop-color="#72CA3D"/>
</linearGradient>
</defs>
</svg>
