<svg width="1119" height="629" viewBox="0 0 1119 629" fill="none" xmlns="http://www.w3.org/2000/svg">
<path d="M888.88 128V126.28H892.74C893.767 126.28 894.667 126.06 895.44 125.62C896.213 125.167 896.813 124.547 897.24 123.76C897.68 122.973 897.9 122.067 897.9 121.04C897.9 120.027 897.68 119.127 897.24 118.34C896.8 117.553 896.193 116.94 895.42 116.5C894.647 116.06 893.753 115.84 892.74 115.84H888.9V114.12H892.78C893.793 114.12 894.727 114.293 895.58 114.64C896.447 114.987 897.193 115.473 897.82 116.1C898.46 116.727 898.953 117.46 899.3 118.3C899.66 119.14 899.84 120.06 899.84 121.06C899.84 122.047 899.66 122.967 899.3 123.82C898.953 124.66 898.467 125.393 897.84 126.02C897.213 126.647 896.467 127.133 895.6 127.48C894.747 127.827 893.82 128 892.82 128H888.88ZM887.64 128V114.12H889.52V128H887.64ZM902.145 128V118.5H903.945V128H902.145ZM903.045 116.6C902.711 116.6 902.438 116.493 902.225 116.28C902.011 116.053 901.905 115.773 901.905 115.44C901.905 115.12 902.011 114.853 902.225 114.64C902.438 114.413 902.711 114.3 903.045 114.3C903.378 114.3 903.651 114.413 903.865 114.64C904.078 114.853 904.185 115.12 904.185 115.44C904.185 115.773 904.078 116.053 903.865 116.28C903.651 116.493 903.378 116.6 903.045 116.6ZM906.597 128V118.5H908.397V128H906.597ZM908.397 122.58L907.717 122.28C907.717 121.067 907.997 120.1 908.557 119.38C909.117 118.66 909.924 118.3 910.977 118.3C911.457 118.3 911.891 118.387 912.277 118.56C912.664 118.72 913.024 118.993 913.357 119.38L912.177 120.6C911.977 120.387 911.757 120.233 911.517 120.14C911.277 120.047 910.997 120 910.677 120C910.011 120 909.464 120.213 909.037 120.64C908.611 121.067 908.397 121.713 908.397 122.58ZM918.712 128.2C917.766 128.2 916.912 127.987 916.152 127.56C915.392 127.12 914.792 126.527 914.352 125.78C913.912 125.033 913.692 124.187 913.692 123.24C913.692 122.307 913.906 121.467 914.332 120.72C914.772 119.973 915.359 119.387 916.092 118.96C916.839 118.52 917.672 118.3 918.592 118.3C919.472 118.3 920.246 118.5 920.912 118.9C921.592 119.3 922.119 119.853 922.492 120.56C922.879 121.267 923.072 122.067 923.072 122.96C923.072 123.093 923.066 123.24 923.052 123.4C923.039 123.547 923.012 123.72 922.972 123.92H914.952V122.42H922.012L921.352 123C921.352 122.36 921.239 121.82 921.012 121.38C920.786 120.927 920.466 120.58 920.052 120.34C919.639 120.087 919.139 119.96 918.552 119.96C917.939 119.96 917.399 120.093 916.932 120.36C916.466 120.627 916.106 121 915.852 121.48C915.599 121.96 915.472 122.527 915.472 123.18C915.472 123.847 915.606 124.433 915.872 124.94C916.139 125.433 916.519 125.82 917.012 126.1C917.506 126.367 918.072 126.5 918.712 126.5C919.246 126.5 919.732 126.407 920.172 126.22C920.626 126.033 921.012 125.753 921.332 125.38L922.492 126.56C922.039 127.093 921.479 127.5 920.812 127.78C920.159 128.06 919.459 128.2 918.712 128.2ZM929.375 128.2C928.442 128.2 927.595 127.98 926.835 127.54C926.088 127.1 925.495 126.507 925.055 125.76C924.628 125 924.415 124.16 924.415 123.24C924.415 122.307 924.628 121.467 925.055 120.72C925.495 119.973 926.088 119.387 926.835 118.96C927.595 118.52 928.442 118.3 929.375 118.3C930.108 118.3 930.788 118.44 931.415 118.72C932.042 118.987 932.582 119.38 933.035 119.9L931.835 121.1C931.542 120.753 931.182 120.493 930.755 120.32C930.342 120.133 929.882 120.04 929.375 120.04C928.775 120.04 928.242 120.18 927.775 120.46C927.308 120.727 926.942 121.1 926.675 121.58C926.408 122.06 926.275 122.613 926.275 123.24C926.275 123.867 926.408 124.42 926.675 124.9C926.942 125.38 927.308 125.76 927.775 126.04C928.242 126.32 928.775 126.46 929.375 126.46C929.882 126.46 930.342 126.373 930.755 126.2C931.182 126.013 931.548 125.747 931.855 125.4L933.035 126.6C932.595 127.107 932.055 127.5 931.415 127.78C930.788 128.06 930.108 128.2 929.375 128.2ZM936.163 128V114.52H937.963V128H936.163ZM933.823 120.14V118.5H940.303V120.14H933.823ZM946.113 128.2C945.18 128.2 944.34 127.98 943.593 127.54C942.846 127.1 942.253 126.507 941.813 125.76C941.373 125 941.153 124.153 941.153 123.22C941.153 122.3 941.373 121.473 941.813 120.74C942.253 119.993 942.846 119.4 943.593 118.96C944.34 118.52 945.18 118.3 946.113 118.3C947.033 118.3 947.866 118.52 948.613 118.96C949.373 119.387 949.973 119.973 950.413 120.72C950.853 121.467 951.073 122.3 951.073 123.22C951.073 124.153 950.853 125 950.413 125.76C949.973 126.507 949.373 127.1 948.613 127.54C947.866 127.98 947.033 128.2 946.113 128.2ZM946.113 126.46C946.713 126.46 947.246 126.32 947.713 126.04C948.18 125.76 948.546 125.38 948.813 124.9C949.08 124.407 949.213 123.847 949.213 123.22C949.213 122.607 949.073 122.06 948.793 121.58C948.526 121.1 948.16 120.727 947.693 120.46C947.24 120.18 946.713 120.04 946.113 120.04C945.513 120.04 944.98 120.18 944.513 120.46C944.046 120.727 943.68 121.1 943.413 121.58C943.146 122.06 943.013 122.607 943.013 123.22C943.013 123.847 943.146 124.407 943.413 124.9C943.68 125.38 944.046 125.76 944.513 126.04C944.98 126.32 945.513 126.46 946.113 126.46ZM953.101 128V118.5H954.901V128H953.101ZM954.901 122.58L954.221 122.28C954.221 121.067 954.501 120.1 955.061 119.38C955.621 118.66 956.428 118.3 957.481 118.3C957.961 118.3 958.395 118.387 958.781 118.56C959.168 118.72 959.528 118.993 959.861 119.38L958.681 120.6C958.481 120.387 958.261 120.233 958.021 120.14C957.781 120.047 957.501 120 957.181 120C956.515 120 955.968 120.213 955.541 120.64C955.115 121.067 954.901 121.713 954.901 122.58ZM959.112 128.8L964.672 113.34H966.352L960.812 128.8H959.112ZM974.018 128.2C973.018 128.2 972.091 128.02 971.238 127.66C970.385 127.287 969.638 126.773 968.998 126.12C968.371 125.467 967.885 124.707 967.538 123.84C967.191 122.973 967.018 122.047 967.018 121.06C967.018 120.06 967.191 119.127 967.538 118.26C967.885 117.393 968.371 116.64 968.998 116C969.638 115.347 970.378 114.84 971.218 114.48C972.071 114.107 972.998 113.92 973.998 113.92C975.091 113.92 976.051 114.107 976.878 114.48C977.705 114.853 978.438 115.36 979.078 116L977.778 117.3C977.338 116.807 976.798 116.42 976.158 116.14C975.531 115.86 974.811 115.72 973.998 115.72C973.265 115.72 972.591 115.853 971.978 116.12C971.365 116.373 970.831 116.74 970.378 117.22C969.925 117.7 969.571 118.267 969.318 118.92C969.078 119.573 968.958 120.287 968.958 121.06C968.958 121.833 969.078 122.547 969.318 123.2C969.571 123.853 969.925 124.42 970.378 124.9C970.831 125.38 971.365 125.753 971.978 126.02C972.591 126.273 973.265 126.4 973.998 126.4C974.865 126.4 975.618 126.26 976.258 125.98C976.898 125.687 977.438 125.293 977.878 124.8L979.178 126.08C978.538 126.747 977.785 127.267 976.918 127.64C976.065 128.013 975.098 128.2 974.018 128.2ZM980.757 123.76V122.06H987.338V123.76H980.757ZM993.551 128.2C992.457 128.2 991.524 128 990.751 127.6C989.977 127.2 989.291 126.62 988.691 125.86L989.971 124.58C990.411 125.193 990.917 125.66 991.491 125.98C992.064 126.287 992.771 126.44 993.611 126.44C994.437 126.44 995.097 126.26 995.591 125.9C996.097 125.54 996.351 125.047 996.351 124.42C996.351 123.9 996.231 123.48 995.991 123.16C995.751 122.84 995.424 122.58 995.011 122.38C994.611 122.167 994.171 121.98 993.691 121.82C993.211 121.647 992.731 121.467 992.251 121.28C991.771 121.08 991.331 120.84 990.931 120.56C990.531 120.267 990.204 119.887 989.951 119.42C989.711 118.953 989.591 118.367 989.591 117.66C989.591 116.873 989.777 116.207 990.151 115.66C990.537 115.1 991.057 114.673 991.711 114.38C992.377 114.073 993.124 113.92 993.951 113.92C994.857 113.92 995.671 114.1 996.391 114.46C997.111 114.807 997.697 115.267 998.151 115.84L996.871 117.12C996.457 116.64 996.011 116.28 995.531 116.04C995.064 115.8 994.524 115.68 993.911 115.68C993.164 115.68 992.571 115.847 992.131 116.18C991.691 116.5 991.471 116.953 991.471 117.54C991.471 118.007 991.591 118.387 991.831 118.68C992.084 118.96 992.411 119.2 992.811 119.4C993.211 119.6 993.651 119.787 994.131 119.96C994.624 120.12 995.111 120.3 995.591 120.5C996.071 120.7 996.511 120.953 996.911 121.26C997.311 121.567 997.631 121.967 997.871 122.46C998.124 122.94 998.251 123.547 998.251 124.28C998.251 125.507 997.824 126.467 996.971 127.16C996.131 127.853 994.991 128.2 993.551 128.2ZM1004.28 128.2C1003.51 128.2 1002.81 128.027 1002.18 127.68C1001.57 127.32 1001.09 126.827 1000.74 126.2C1000.4 125.573 1000.22 124.847 1000.22 124.02V118.5H1002.02V123.94C1002.02 124.46 1002.11 124.913 1002.28 125.3C1002.47 125.673 1002.74 125.96 1003.08 126.16C1003.43 126.36 1003.84 126.46 1004.3 126.46C1005.01 126.46 1005.56 126.24 1005.96 125.8C1006.36 125.347 1006.56 124.727 1006.56 123.94V118.5H1008.36V124.02C1008.36 124.847 1008.19 125.573 1007.84 126.2C1007.5 126.827 1007.02 127.32 1006.4 127.68C1005.8 128.027 1005.1 128.2 1004.28 128.2ZM1010.8 128V118.5H1012.6V128H1010.8ZM1011.7 116.6C1011.36 116.6 1011.09 116.493 1010.88 116.28C1010.66 116.053 1010.56 115.773 1010.56 115.44C1010.56 115.12 1010.66 114.853 1010.88 114.64C1011.09 114.413 1011.36 114.3 1011.7 114.3C1012.03 114.3 1012.3 114.413 1012.52 114.64C1012.73 114.853 1012.84 115.12 1012.84 115.44C1012.84 115.773 1012.73 116.053 1012.52 116.28C1012.3 116.493 1012.03 116.6 1011.7 116.6ZM1016.71 128V114.52H1018.51V128H1016.71ZM1014.37 120.14V118.5H1020.85V120.14H1014.37ZM1026.72 128.2C1025.77 128.2 1024.92 127.987 1024.16 127.56C1023.4 127.12 1022.8 126.527 1022.36 125.78C1021.92 125.033 1021.7 124.187 1021.7 123.24C1021.7 122.307 1021.91 121.467 1022.34 120.72C1022.78 119.973 1023.37 119.387 1024.1 118.96C1024.85 118.52 1025.68 118.3 1026.6 118.3C1027.48 118.3 1028.25 118.5 1028.92 118.9C1029.6 119.3 1030.13 119.853 1030.5 120.56C1030.89 121.267 1031.08 122.067 1031.08 122.96C1031.08 123.093 1031.07 123.24 1031.06 123.4C1031.05 123.547 1031.02 123.72 1030.98 123.92H1022.96V122.42H1030.02L1029.36 123C1029.36 122.36 1029.25 121.82 1029.02 121.38C1028.79 120.927 1028.47 120.58 1028.06 120.34C1027.65 120.087 1027.15 119.96 1026.56 119.96C1025.95 119.96 1025.41 120.093 1024.94 120.36C1024.47 120.627 1024.11 121 1023.86 121.48C1023.61 121.96 1023.48 122.527 1023.48 123.18C1023.48 123.847 1023.61 124.433 1023.88 124.94C1024.15 125.433 1024.53 125.82 1025.02 126.1C1025.51 126.367 1026.08 126.5 1026.72 126.5C1027.25 126.5 1027.74 126.407 1028.18 126.22C1028.63 126.033 1029.02 125.753 1029.34 125.38L1030.5 126.56C1030.05 127.093 1029.49 127.5 1028.82 127.78C1028.17 128.06 1027.47 128.2 1026.72 128.2ZM1037.52 128V114.12H1039.4V128H1037.52ZM1038.8 128V126.28H1046.24V128H1038.8ZM1052.23 128.2C1051.28 128.2 1050.43 127.987 1049.67 127.56C1048.91 127.12 1048.31 126.527 1047.87 125.78C1047.43 125.033 1047.21 124.187 1047.21 123.24C1047.21 122.307 1047.42 121.467 1047.85 120.72C1048.29 119.973 1048.87 119.387 1049.61 118.96C1050.35 118.52 1051.19 118.3 1052.11 118.3C1052.99 118.3 1053.76 118.5 1054.43 118.9C1055.11 119.3 1055.63 119.853 1056.01 120.56C1056.39 121.267 1056.59 122.067 1056.59 122.96C1056.59 123.093 1056.58 123.24 1056.57 123.4C1056.55 123.547 1056.53 123.72 1056.49 123.92H1048.47V122.42H1055.53L1054.87 123C1054.87 122.36 1054.75 121.82 1054.53 121.38C1054.3 120.927 1053.98 120.58 1053.57 120.34C1053.15 120.087 1052.65 119.96 1052.07 119.96C1051.45 119.96 1050.91 120.093 1050.45 120.36C1049.98 120.627 1049.62 121 1049.37 121.48C1049.11 121.96 1048.99 122.527 1048.99 123.18C1048.99 123.847 1049.12 124.433 1049.39 124.94C1049.65 125.433 1050.03 125.82 1050.53 126.1C1051.02 126.367 1051.59 126.5 1052.23 126.5C1052.76 126.5 1053.25 126.407 1053.69 126.22C1054.14 126.033 1054.53 125.753 1054.85 125.38L1056.01 126.56C1055.55 127.093 1054.99 127.5 1054.33 127.78C1053.67 128.06 1052.97 128.2 1052.23 128.2ZM1061.65 128L1057.29 118.5H1059.29L1062.79 126.52H1061.63L1065.15 118.5H1067.07L1062.71 128H1061.65ZM1072.64 128.2C1071.69 128.2 1070.84 127.987 1070.08 127.56C1069.32 127.12 1068.72 126.527 1068.28 125.78C1067.84 125.033 1067.62 124.187 1067.62 123.24C1067.62 122.307 1067.83 121.467 1068.26 120.72C1068.7 119.973 1069.28 119.387 1070.02 118.96C1070.76 118.52 1071.6 118.3 1072.52 118.3C1073.4 118.3 1074.17 118.5 1074.84 118.9C1075.52 119.3 1076.04 119.853 1076.42 120.56C1076.8 121.267 1077 122.067 1077 122.96C1077 123.093 1076.99 123.24 1076.98 123.4C1076.96 123.547 1076.94 123.72 1076.9 123.92H1068.88V122.42H1075.94L1075.28 123C1075.28 122.36 1075.16 121.82 1074.94 121.38C1074.71 120.927 1074.39 120.58 1073.98 120.34C1073.56 120.087 1073.06 119.96 1072.48 119.96C1071.86 119.96 1071.32 120.093 1070.86 120.36C1070.39 120.627 1070.03 121 1069.78 121.48C1069.52 121.96 1069.4 122.527 1069.4 123.18C1069.4 123.847 1069.53 124.433 1069.8 124.94C1070.06 125.433 1070.44 125.82 1070.94 126.1C1071.43 126.367 1072 126.5 1072.64 126.5C1073.17 126.5 1073.66 126.407 1074.1 126.22C1074.55 126.033 1074.94 125.753 1075.26 125.38L1076.42 126.56C1075.96 127.093 1075.4 127.5 1074.74 127.78C1074.08 128.06 1073.38 128.2 1072.64 128.2ZM1078.96 128V113.72H1080.76V128H1078.96Z" fill="white"/>
<path d="M894.61 98.33C893.13 98.33 891.79 98 890.59 97.34C889.41 96.68 888.47 95.8 887.77 94.7C887.09 93.58 886.75 92.33 886.75 90.95C886.75 89.15 887.38 87.33 888.64 85.49L894.61 76.82H899.92L893.29 86.06L891.52 86.21C891.8 85.73 892.09 85.32 892.39 84.98C892.71 84.62 893.11 84.35 893.59 84.17C894.07 83.97 894.68 83.87 895.42 83.87C896.74 83.87 897.92 84.18 898.96 84.8C900.02 85.4 900.87 86.23 901.51 87.29C902.15 88.33 902.47 89.53 902.47 90.89C902.47 92.27 902.12 93.53 901.42 94.67C900.72 95.79 899.78 96.68 898.6 97.34C897.42 98 896.09 98.33 894.61 98.33ZM894.61 94.22C895.23 94.22 895.79 94.07 896.29 93.77C896.79 93.47 897.18 93.06 897.46 92.54C897.74 92.02 897.88 91.44 897.88 90.8C897.88 90.14 897.74 89.56 897.46 89.06C897.18 88.54 896.79 88.14 896.29 87.86C895.79 87.56 895.23 87.41 894.61 87.41C893.97 87.41 893.4 87.56 892.9 87.86C892.42 88.14 892.04 88.54 891.76 89.06C891.48 89.56 891.34 90.14 891.34 90.8C891.34 91.44 891.48 92.02 891.76 92.54C892.04 93.06 892.42 93.47 892.9 93.77C893.4 94.07 893.97 94.22 894.61 94.22ZM913.217 98.33C911.517 98.33 909.977 97.87 908.597 96.95C907.217 96.03 906.127 94.75 905.327 93.11C904.547 91.45 904.157 89.54 904.157 87.38C904.157 85.2 904.547 83.3 905.327 81.68C906.107 80.04 907.177 78.77 908.537 77.87C909.897 76.95 911.437 76.49 913.157 76.49C914.897 76.49 916.447 76.95 917.807 77.87C919.167 78.77 920.237 80.04 921.017 81.68C921.817 83.32 922.217 85.23 922.217 87.41C922.217 89.59 921.817 91.5 921.017 93.14C920.237 94.78 919.167 96.06 917.807 96.98C916.467 97.88 914.937 98.33 913.217 98.33ZM913.187 94.16C914.067 94.16 914.827 93.91 915.467 93.41C916.107 92.89 916.597 92.13 916.937 91.13C917.297 90.11 917.477 88.87 917.477 87.41C917.477 85.93 917.297 84.69 916.937 83.69C916.597 82.69 916.107 81.94 915.467 81.44C914.827 80.92 914.057 80.66 913.157 80.66C912.297 80.66 911.537 80.91 910.877 81.41C910.237 81.91 909.747 82.66 909.407 83.66C909.067 84.66 908.897 85.9 908.897 87.38C908.897 88.86 909.067 90.1 909.407 91.1C909.747 92.1 910.237 92.86 910.877 93.38C911.537 93.9 912.307 94.16 913.187 94.16ZM928.608 85.34C927.788 85.34 927.038 85.15 926.358 84.77C925.698 84.37 925.168 83.84 924.768 83.18C924.368 82.5 924.168 81.74 924.168 80.9C924.168 80.08 924.368 79.34 924.768 78.68C925.168 78.02 925.698 77.5 926.358 77.12C927.018 76.72 927.758 76.52 928.578 76.52C929.438 76.52 930.198 76.72 930.858 77.12C931.538 77.5 932.078 78.02 932.478 78.68C932.878 79.34 933.078 80.08 933.078 80.9C933.078 81.74 932.878 82.5 932.478 83.18C932.078 83.84 931.538 84.37 930.858 84.77C930.198 85.15 929.448 85.34 928.608 85.34ZM928.608 82.22C928.988 82.22 929.298 82.1 929.538 81.86C929.778 81.62 929.898 81.31 929.898 80.93C929.898 80.55 929.778 80.24 929.538 80C929.298 79.76 928.988 79.64 928.608 79.64C928.248 79.64 927.948 79.76 927.708 80C927.468 80.24 927.348 80.55 927.348 80.93C927.348 81.31 927.468 81.62 927.708 81.86C927.948 82.1 928.248 82.22 928.608 82.22ZM938.268 98.3C937.448 98.3 936.698 98.1 936.018 97.7C935.358 97.3 934.828 96.77 934.428 96.11C934.028 95.43 933.828 94.68 933.828 93.86C933.828 93.02 934.028 92.28 934.428 91.64C934.828 90.98 935.358 90.45 936.018 90.05C936.678 89.65 937.418 89.45 938.238 89.45C939.098 89.45 939.858 89.65 940.518 90.05C941.198 90.45 941.738 90.98 942.138 91.64C942.538 92.28 942.738 93.02 942.738 93.86C942.738 94.68 942.538 95.43 942.138 96.11C941.738 96.79 941.198 97.33 940.518 97.73C939.858 98.11 939.108 98.3 938.268 98.3ZM938.268 95.18C938.648 95.18 938.958 95.06 939.198 94.82C939.438 94.58 939.558 94.26 939.558 93.86C939.558 93.5 939.438 93.2 939.198 92.96C938.958 92.7 938.648 92.57 938.268 92.57C937.908 92.57 937.608 92.7 937.368 92.96C937.128 93.2 937.008 93.5 937.008 93.86C937.008 94.26 937.128 94.58 937.368 94.82C937.608 95.06 937.908 95.18 938.268 95.18ZM925.008 98L937.698 76.82H941.898L929.208 98H925.008Z" fill="#ED1356"/>
<path d="M206.18 508L200.62 494.12H202.66L207.24 505.86H206.5L211.12 494.12H213.14L207.54 508H206.18ZM216.67 502.6V500.96H220.45C220.97 500.96 221.43 500.853 221.83 500.64C222.243 500.427 222.563 500.127 222.79 499.74C223.03 499.353 223.15 498.893 223.15 498.36C223.15 497.827 223.03 497.367 222.79 496.98C222.563 496.593 222.243 496.293 221.83 496.08C221.43 495.867 220.97 495.76 220.45 495.76H216.67V494.12H220.57C221.423 494.12 222.183 494.293 222.85 494.64C223.53 494.987 224.063 495.48 224.45 496.12C224.85 496.747 225.05 497.493 225.05 498.36C225.05 499.213 224.85 499.96 224.45 500.6C224.063 501.227 223.53 501.72 222.85 502.08C222.183 502.427 221.423 502.6 220.57 502.6H216.67ZM215.41 508V494.12H217.29V508H215.41ZM231.347 508V494.12H233.227V508H231.347ZM232.627 508V506.28H240.067V508H232.627ZM246.052 508.2C245.105 508.2 244.252 507.987 243.492 507.56C242.732 507.12 242.132 506.527 241.692 505.78C241.252 505.033 241.032 504.187 241.032 503.24C241.032 502.307 241.245 501.467 241.672 500.72C242.112 499.973 242.699 499.387 243.432 498.96C244.179 498.52 245.012 498.3 245.932 498.3C246.812 498.3 247.585 498.5 248.252 498.9C248.932 499.3 249.459 499.853 249.832 500.56C250.219 501.267 250.412 502.067 250.412 502.96C250.412 503.093 250.405 503.24 250.392 503.4C250.379 503.547 250.352 503.72 250.312 503.92H242.292V502.42H249.352L248.692 503C248.692 502.36 248.579 501.82 248.352 501.38C248.125 500.927 247.805 500.58 247.392 500.34C246.979 500.087 246.479 499.96 245.892 499.96C245.279 499.96 244.739 500.093 244.272 500.36C243.805 500.627 243.445 501 243.192 501.48C242.939 501.96 242.812 502.527 242.812 503.18C242.812 503.847 242.945 504.433 243.212 504.94C243.479 505.433 243.859 505.82 244.352 506.1C244.845 506.367 245.412 506.5 246.052 506.5C246.585 506.5 247.072 506.407 247.512 506.22C247.965 506.033 248.352 505.753 248.672 505.38L249.832 506.56C249.379 507.093 248.819 507.5 248.152 507.78C247.499 508.06 246.799 508.2 246.052 508.2ZM255.478 508L251.118 498.5H253.118L256.618 506.52H255.458L258.978 498.5H260.898L256.538 508H255.478ZM266.462 508.2C265.516 508.2 264.662 507.987 263.902 507.56C263.142 507.12 262.542 506.527 262.102 505.78C261.662 505.033 261.442 504.187 261.442 503.24C261.442 502.307 261.656 501.467 262.082 500.72C262.522 499.973 263.109 499.387 263.842 498.96C264.589 498.52 265.422 498.3 266.342 498.3C267.222 498.3 267.996 498.5 268.662 498.9C269.342 499.3 269.869 499.853 270.242 500.56C270.629 501.267 270.822 502.067 270.822 502.96C270.822 503.093 270.816 503.24 270.802 503.4C270.789 503.547 270.762 503.72 270.722 503.92H262.702V502.42H269.762L269.102 503C269.102 502.36 268.989 501.82 268.762 501.38C268.536 500.927 268.216 500.58 267.802 500.34C267.389 500.087 266.889 499.96 266.302 499.96C265.689 499.96 265.149 500.093 264.682 500.36C264.216 500.627 263.856 501 263.602 501.48C263.349 501.96 263.222 502.527 263.222 503.18C263.222 503.847 263.356 504.433 263.622 504.94C263.889 505.433 264.269 505.82 264.762 506.1C265.256 506.367 265.822 506.5 266.462 506.5C266.996 506.5 267.482 506.407 267.922 506.22C268.376 506.033 268.762 505.753 269.082 505.38L270.242 506.56C269.789 507.093 269.229 507.5 268.562 507.78C267.909 508.06 267.209 508.2 266.462 508.2ZM272.785 508V493.72H274.585V508H272.785Z" fill="white"/>
<path d="M223.72 475.36L231.85 466.96C232.35 466.46 232.75 466 233.05 465.58C233.35 465.16 233.57 464.77 233.71 464.41C233.85 464.03 233.92 463.65 233.92 463.27C233.92 462.45 233.65 461.81 233.11 461.35C232.59 460.87 231.9 460.63 231.04 460.63C230.2 460.63 229.44 460.86 228.76 461.32C228.1 461.76 227.46 462.49 226.84 463.51L223.69 460.78C224.53 459.36 225.6 458.29 226.9 457.57C228.2 456.85 229.69 456.49 231.37 456.49C232.83 456.49 234.09 456.76 235.15 457.3C236.23 457.84 237.06 458.61 237.64 459.61C238.24 460.61 238.54 461.78 238.54 463.12C238.54 463.96 238.43 464.74 238.21 465.46C237.99 466.16 237.63 466.86 237.13 467.56C236.65 468.24 236 468.99 235.18 469.81L229.54 475.42L223.72 475.36ZM223.72 478V475.36L227.71 473.98H238.96V478H223.72ZM249.954 478.33C248.254 478.33 246.714 477.87 245.334 476.95C243.954 476.03 242.864 474.75 242.064 473.11C241.284 471.45 240.894 469.54 240.894 467.38C240.894 465.2 241.284 463.3 242.064 461.68C242.844 460.04 243.914 458.77 245.274 457.87C246.634 456.95 248.174 456.49 249.894 456.49C251.634 456.49 253.184 456.95 254.544 457.87C255.904 458.77 256.974 460.04 257.754 461.68C258.554 463.32 258.954 465.23 258.954 467.41C258.954 469.59 258.554 471.5 257.754 473.14C256.974 474.78 255.904 476.06 254.544 476.98C253.204 477.88 251.674 478.33 249.954 478.33ZM249.924 474.16C250.804 474.16 251.564 473.91 252.204 473.41C252.844 472.89 253.334 472.13 253.674 471.13C254.034 470.11 254.214 468.87 254.214 467.41C254.214 465.93 254.034 464.69 253.674 463.69C253.334 462.69 252.844 461.94 252.204 461.44C251.564 460.92 250.794 460.66 249.894 460.66C249.034 460.66 248.274 460.91 247.614 461.41C246.974 461.91 246.484 462.66 246.144 463.66C245.804 464.66 245.634 465.9 245.634 467.38C245.634 468.86 245.804 470.1 246.144 471.1C246.484 472.1 246.974 472.86 247.614 473.38C248.274 473.9 249.044 474.16 249.924 474.16ZM265.344 465.34C264.524 465.34 263.774 465.15 263.094 464.77C262.434 464.37 261.904 463.84 261.504 463.18C261.104 462.5 260.904 461.74 260.904 460.9C260.904 460.08 261.104 459.34 261.504 458.68C261.904 458.02 262.434 457.5 263.094 457.12C263.754 456.72 264.494 456.52 265.314 456.52C266.174 456.52 266.934 456.72 267.594 457.12C268.274 457.5 268.814 458.02 269.214 458.68C269.614 459.34 269.814 460.08 269.814 460.9C269.814 461.74 269.614 462.5 269.214 463.18C268.814 463.84 268.274 464.37 267.594 464.77C266.934 465.15 266.184 465.34 265.344 465.34ZM265.344 462.22C265.724 462.22 266.034 462.1 266.274 461.86C266.514 461.62 266.634 461.31 266.634 460.93C266.634 460.55 266.514 460.24 266.274 460C266.034 459.76 265.724 459.64 265.344 459.64C264.984 459.64 264.684 459.76 264.444 460C264.204 460.24 264.084 460.55 264.084 460.93C264.084 461.31 264.204 461.62 264.444 461.86C264.684 462.1 264.984 462.22 265.344 462.22ZM275.004 478.3C274.184 478.3 273.434 478.1 272.754 477.7C272.094 477.3 271.564 476.77 271.164 476.11C270.764 475.43 270.564 474.68 270.564 473.86C270.564 473.02 270.764 472.28 271.164 471.64C271.564 470.98 272.094 470.45 272.754 470.05C273.414 469.65 274.154 469.45 274.974 469.45C275.834 469.45 276.594 469.65 277.254 470.05C277.934 470.45 278.474 470.98 278.874 471.64C279.274 472.28 279.474 473.02 279.474 473.86C279.474 474.68 279.274 475.43 278.874 476.11C278.474 476.79 277.934 477.33 277.254 477.73C276.594 478.11 275.844 478.3 275.004 478.3ZM275.004 475.18C275.384 475.18 275.694 475.06 275.934 474.82C276.174 474.58 276.294 474.26 276.294 473.86C276.294 473.5 276.174 473.2 275.934 472.96C275.694 472.7 275.384 472.57 275.004 472.57C274.644 472.57 274.344 472.7 274.104 472.96C273.864 473.2 273.744 473.5 273.744 473.86C273.744 474.26 273.864 474.58 274.104 474.82C274.344 475.06 274.644 475.18 275.004 475.18ZM261.744 478L274.434 456.82H278.634L265.944 478H261.744Z" fill="#84D14D"/>
<path d="M74.64 355V341.12H75.96L81.84 350.78H80.94L86.82 341.12H88.14V355H86.26V344.42L86.7 344.54L82.06 352.16H80.74L76.1 344.54L76.52 344.42V355H74.64ZM95.1373 355.2C94.2707 355.2 93.484 354.987 92.7773 354.56C92.0707 354.12 91.5107 353.527 91.0973 352.78C90.6973 352.033 90.4973 351.193 90.4973 350.26C90.4973 349.327 90.6973 348.487 91.0973 347.74C91.5107 346.993 92.064 346.4 92.7573 345.96C93.464 345.52 94.2573 345.3 95.1373 345.3C95.8573 345.3 96.4973 345.453 97.0573 345.76C97.6307 346.053 98.0907 346.467 98.4373 347C98.784 347.52 98.9773 348.127 99.0173 348.82V351.68C98.9773 352.36 98.784 352.967 98.4373 353.5C98.104 354.033 97.6507 354.453 97.0773 354.76C96.5173 355.053 95.8707 355.2 95.1373 355.2ZM95.4373 353.5C96.3307 353.5 97.0507 353.2 97.5973 352.6C98.144 351.987 98.4173 351.207 98.4173 350.26C98.4173 349.607 98.2907 349.04 98.0373 348.56C97.7973 348.067 97.4507 347.687 96.9973 347.42C96.544 347.14 96.0173 347 95.4173 347C94.8173 347 94.284 347.14 93.8173 347.42C93.364 347.7 93.004 348.087 92.7373 348.58C92.484 349.06 92.3573 349.613 92.3573 350.24C92.3573 350.88 92.484 351.447 92.7373 351.94C93.004 352.42 93.3707 352.8 93.8373 353.08C94.304 353.36 94.8373 353.5 95.4373 353.5ZM98.2973 355V352.44L98.6373 350.12L98.2973 347.82V345.5H100.117V355H98.2973ZM109.458 355V349.46C109.458 348.74 109.231 348.147 108.778 347.68C108.325 347.213 107.738 346.98 107.018 346.98C106.538 346.98 106.111 347.087 105.738 347.3C105.365 347.513 105.071 347.807 104.858 348.18C104.645 348.553 104.538 348.98 104.538 349.46L103.798 349.04C103.798 348.32 103.958 347.68 104.278 347.12C104.598 346.56 105.045 346.12 105.618 345.8C106.191 345.467 106.838 345.3 107.558 345.3C108.278 345.3 108.911 345.48 109.458 345.84C110.018 346.2 110.458 346.673 110.778 347.26C111.098 347.833 111.258 348.447 111.258 349.1V355H109.458ZM102.738 355V345.5H104.538V355H102.738ZM117.735 355.2C116.868 355.2 116.082 354.987 115.375 354.56C114.668 354.12 114.108 353.527 113.695 352.78C113.295 352.033 113.095 351.193 113.095 350.26C113.095 349.327 113.295 348.487 113.695 347.74C114.108 346.993 114.662 346.4 115.355 345.96C116.062 345.52 116.855 345.3 117.735 345.3C118.455 345.3 119.095 345.453 119.655 345.76C120.228 346.053 120.688 346.467 121.035 347C121.382 347.52 121.575 348.127 121.615 348.82V351.68C121.575 352.36 121.382 352.967 121.035 353.5C120.702 354.033 120.248 354.453 119.675 354.76C119.115 355.053 118.468 355.2 117.735 355.2ZM118.035 353.5C118.928 353.5 119.648 353.2 120.195 352.6C120.742 351.987 121.015 351.207 121.015 350.26C121.015 349.607 120.888 349.04 120.635 348.56C120.395 348.067 120.048 347.687 119.595 347.42C119.142 347.14 118.615 347 118.015 347C117.415 347 116.882 347.14 116.415 347.42C115.962 347.7 115.602 348.087 115.335 348.58C115.082 349.06 114.955 349.613 114.955 350.24C114.955 350.88 115.082 351.447 115.335 351.94C115.602 352.42 115.968 352.8 116.435 353.08C116.902 353.36 117.435 353.5 118.035 353.5ZM120.895 355V352.44L121.235 350.12L120.895 347.82V345.5H122.715V355H120.895ZM129.276 359.18C128.302 359.18 127.436 359 126.676 358.64C125.929 358.28 125.329 357.773 124.876 357.12L126.036 355.94C126.422 356.433 126.882 356.807 127.416 357.06C127.949 357.327 128.582 357.46 129.316 357.46C130.289 357.46 131.056 357.2 131.616 356.68C132.189 356.173 132.476 355.487 132.476 354.62V352.26L132.796 350.12L132.476 348V345.5H134.276V354.62C134.276 355.527 134.062 356.32 133.636 357C133.222 357.68 132.636 358.213 131.876 358.6C131.129 358.987 130.262 359.18 129.276 359.18ZM129.276 354.84C128.409 354.84 127.629 354.633 126.936 354.22C126.256 353.807 125.716 353.24 125.316 352.52C124.916 351.787 124.716 350.967 124.716 350.06C124.716 349.153 124.916 348.347 125.316 347.64C125.716 346.92 126.256 346.353 126.936 345.94C127.629 345.513 128.409 345.3 129.276 345.3C130.022 345.3 130.682 345.447 131.256 345.74C131.829 346.033 132.282 346.447 132.616 346.98C132.962 347.5 133.149 348.113 133.176 348.82V351.34C133.136 352.033 132.942 352.647 132.596 353.18C132.262 353.7 131.809 354.107 131.236 354.4C130.662 354.693 130.009 354.84 129.276 354.84ZM129.636 353.14C130.222 353.14 130.736 353.013 131.176 352.76C131.629 352.507 131.976 352.153 132.216 351.7C132.456 351.233 132.576 350.693 132.576 350.08C132.576 349.467 132.449 348.933 132.196 348.48C131.956 348.013 131.616 347.653 131.176 347.4C130.736 347.133 130.216 347 129.616 347C129.016 347 128.489 347.133 128.036 347.4C127.582 347.653 127.222 348.013 126.956 348.48C126.702 348.933 126.576 349.46 126.576 350.06C126.576 350.66 126.702 351.193 126.956 351.66C127.222 352.127 127.582 352.493 128.036 352.76C128.502 353.013 129.036 353.14 129.636 353.14ZM141.318 355.2C140.371 355.2 139.518 354.987 138.758 354.56C137.998 354.12 137.398 353.527 136.958 352.78C136.518 352.033 136.298 351.187 136.298 350.24C136.298 349.307 136.511 348.467 136.938 347.72C137.378 346.973 137.964 346.387 138.698 345.96C139.444 345.52 140.278 345.3 141.198 345.3C142.078 345.3 142.851 345.5 143.518 345.9C144.198 346.3 144.724 346.853 145.098 347.56C145.484 348.267 145.678 349.067 145.678 349.96C145.678 350.093 145.671 350.24 145.658 350.4C145.644 350.547 145.618 350.72 145.578 350.92H137.558V349.42H144.618L143.958 350C143.958 349.36 143.844 348.82 143.618 348.38C143.391 347.927 143.071 347.58 142.658 347.34C142.244 347.087 141.744 346.96 141.158 346.96C140.544 346.96 140.004 347.093 139.538 347.36C139.071 347.627 138.711 348 138.458 348.48C138.204 348.96 138.078 349.527 138.078 350.18C138.078 350.847 138.211 351.433 138.478 351.94C138.744 352.433 139.124 352.82 139.618 353.1C140.111 353.367 140.678 353.5 141.318 353.5C141.851 353.5 142.338 353.407 142.778 353.22C143.231 353.033 143.618 352.753 143.938 352.38L145.098 353.56C144.644 354.093 144.084 354.5 143.418 354.78C142.764 355.06 142.064 355.2 141.318 355.2ZM147.64 355V345.5H149.44V355H147.64ZM149.44 349.58L148.76 349.28C148.76 348.067 149.04 347.1 149.6 346.38C150.16 345.66 150.967 345.3 152.02 345.3C152.5 345.3 152.934 345.387 153.32 345.56C153.707 345.72 154.067 345.993 154.4 346.38L153.22 347.6C153.02 347.387 152.8 347.233 152.56 347.14C152.32 347.047 152.04 347 151.72 347C151.054 347 150.507 347.213 150.08 347.64C149.654 348.067 149.44 348.713 149.44 349.58ZM160.499 355V341.12H162.379V355H160.499ZM161.779 355V353.28H169.219V355H161.779ZM175.204 355.2C174.258 355.2 173.404 354.987 172.644 354.56C171.884 354.12 171.284 353.527 170.844 352.78C170.404 352.033 170.184 351.187 170.184 350.24C170.184 349.307 170.398 348.467 170.824 347.72C171.264 346.973 171.851 346.387 172.584 345.96C173.331 345.52 174.164 345.3 175.084 345.3C175.964 345.3 176.738 345.5 177.404 345.9C178.084 346.3 178.611 346.853 178.984 347.56C179.371 348.267 179.564 349.067 179.564 349.96C179.564 350.093 179.558 350.24 179.544 350.4C179.531 350.547 179.504 350.72 179.464 350.92H171.444V349.42H178.504L177.844 350C177.844 349.36 177.731 348.82 177.504 348.38C177.278 347.927 176.958 347.58 176.544 347.34C176.131 347.087 175.631 346.96 175.044 346.96C174.431 346.96 173.891 347.093 173.424 347.36C172.958 347.627 172.598 348 172.344 348.48C172.091 348.96 171.964 349.527 171.964 350.18C171.964 350.847 172.098 351.433 172.364 351.94C172.631 352.433 173.011 352.82 173.504 353.1C173.998 353.367 174.564 353.5 175.204 353.5C175.738 353.5 176.224 353.407 176.664 353.22C177.118 353.033 177.504 352.753 177.824 352.38L178.984 353.56C178.531 354.093 177.971 354.5 177.304 354.78C176.651 355.06 175.951 355.2 175.204 355.2ZM184.631 355L180.271 345.5H182.271L185.771 353.52H184.611L188.131 345.5H190.051L185.691 355H184.631ZM195.615 355.2C194.668 355.2 193.815 354.987 193.055 354.56C192.295 354.12 191.695 353.527 191.255 352.78C190.815 352.033 190.595 351.187 190.595 350.24C190.595 349.307 190.808 348.467 191.235 347.72C191.675 346.973 192.261 346.387 192.995 345.96C193.741 345.52 194.575 345.3 195.495 345.3C196.375 345.3 197.148 345.5 197.815 345.9C198.495 346.3 199.021 346.853 199.395 347.56C199.781 348.267 199.975 349.067 199.975 349.96C199.975 350.093 199.968 350.24 199.955 350.4C199.941 350.547 199.915 350.72 199.875 350.92H191.855V349.42H198.915L198.255 350C198.255 349.36 198.141 348.82 197.915 348.38C197.688 347.927 197.368 347.58 196.955 347.34C196.541 347.087 196.041 346.96 195.455 346.96C194.841 346.96 194.301 347.093 193.835 347.36C193.368 347.627 193.008 348 192.755 348.48C192.501 348.96 192.375 349.527 192.375 350.18C192.375 350.847 192.508 351.433 192.775 351.94C193.041 352.433 193.421 352.82 193.915 353.1C194.408 353.367 194.975 353.5 195.615 353.5C196.148 353.5 196.635 353.407 197.075 353.22C197.528 353.033 197.915 352.753 198.235 352.38L199.395 353.56C198.941 354.093 198.381 354.5 197.715 354.78C197.061 355.06 196.361 355.2 195.615 355.2ZM201.937 355V340.72H203.737V355H201.937Z" fill="white"/>
<path d="M158.68 325V303.82H163.36V325H158.68ZM154.6 307.81V303.82H163.06V307.81H154.6ZM175.358 325.33C173.658 325.33 172.118 324.87 170.738 323.95C169.358 323.03 168.268 321.75 167.468 320.11C166.688 318.45 166.298 316.54 166.298 314.38C166.298 312.2 166.688 310.3 167.468 308.68C168.248 307.04 169.318 305.77 170.678 304.87C172.038 303.95 173.578 303.49 175.298 303.49C177.038 303.49 178.588 303.95 179.948 304.87C181.308 305.77 182.378 307.04 183.158 308.68C183.958 310.32 184.358 312.23 184.358 314.41C184.358 316.59 183.958 318.5 183.158 320.14C182.378 321.78 181.308 323.06 179.948 323.98C178.608 324.88 177.078 325.33 175.358 325.33ZM175.328 321.16C176.208 321.16 176.968 320.91 177.608 320.41C178.248 319.89 178.738 319.13 179.078 318.13C179.438 317.11 179.618 315.87 179.618 314.41C179.618 312.93 179.438 311.69 179.078 310.69C178.738 309.69 178.248 308.94 177.608 308.44C176.968 307.92 176.198 307.66 175.298 307.66C174.438 307.66 173.678 307.91 173.018 308.41C172.378 308.91 171.888 309.66 171.548 310.66C171.208 311.66 171.038 312.9 171.038 314.38C171.038 315.86 171.208 317.1 171.548 318.1C171.888 319.1 172.378 319.86 173.018 320.38C173.678 320.9 174.448 321.16 175.328 321.16ZM190.748 312.34C189.928 312.34 189.178 312.15 188.498 311.77C187.838 311.37 187.308 310.84 186.908 310.18C186.508 309.5 186.308 308.74 186.308 307.9C186.308 307.08 186.508 306.34 186.908 305.68C187.308 305.02 187.838 304.5 188.498 304.12C189.158 303.72 189.898 303.52 190.718 303.52C191.578 303.52 192.338 303.72 192.998 304.12C193.678 304.5 194.218 305.02 194.618 305.68C195.018 306.34 195.218 307.08 195.218 307.9C195.218 308.74 195.018 309.5 194.618 310.18C194.218 310.84 193.678 311.37 192.998 311.77C192.338 312.15 191.588 312.34 190.748 312.34ZM190.748 309.22C191.128 309.22 191.438 309.1 191.678 308.86C191.918 308.62 192.038 308.31 192.038 307.93C192.038 307.55 191.918 307.24 191.678 307C191.438 306.76 191.128 306.64 190.748 306.64C190.388 306.64 190.088 306.76 189.848 307C189.608 307.24 189.488 307.55 189.488 307.93C189.488 308.31 189.608 308.62 189.848 308.86C190.088 309.1 190.388 309.22 190.748 309.22ZM200.408 325.3C199.588 325.3 198.838 325.1 198.158 324.7C197.498 324.3 196.968 323.77 196.568 323.11C196.168 322.43 195.968 321.68 195.968 320.86C195.968 320.02 196.168 319.28 196.568 318.64C196.968 317.98 197.498 317.45 198.158 317.05C198.818 316.65 199.558 316.45 200.378 316.45C201.238 316.45 201.998 316.65 202.658 317.05C203.338 317.45 203.878 317.98 204.278 318.64C204.678 319.28 204.878 320.02 204.878 320.86C204.878 321.68 204.678 322.43 204.278 323.11C203.878 323.79 203.338 324.33 202.658 324.73C201.998 325.11 201.248 325.3 200.408 325.3ZM200.408 322.18C200.788 322.18 201.098 322.06 201.338 321.82C201.578 321.58 201.698 321.26 201.698 320.86C201.698 320.5 201.578 320.2 201.338 319.96C201.098 319.7 200.788 319.57 200.408 319.57C200.048 319.57 199.748 319.7 199.508 319.96C199.268 320.2 199.148 320.5 199.148 320.86C199.148 321.26 199.268 321.58 199.508 321.82C199.748 322.06 200.048 322.18 200.408 322.18ZM187.148 325L199.838 303.82H204.038L191.348 325H187.148Z" fill="#59A82A"/>
<path d="M394.781 149.644C386.017 142.92 373.366 144.527 367.559 153.924C352.657 178.042 343.107 205.085 339.558 233.212C338.175 244.171 347.011 253.368 358.053 253.638L405.947 254.812C416.989 255.083 425.978 246.274 428.239 235.462C430.245 225.871 433.523 216.589 437.985 207.865C443.015 198.031 441.552 185.531 432.789 178.807L394.781 149.644Z" fill="#43861B"/>
<path d="M399.519 372.266C391.049 379.357 389.866 392.056 397.775 399.767C418.372 419.85 443.161 435.262 470.458 444.838C497.756 454.413 526.74 457.865 555.37 455.05C566.363 453.97 573.372 443.315 571.188 432.487L561.718 385.525C559.534 374.697 548.952 367.885 537.908 368.076C524.911 368.301 511.923 366.224 499.557 361.886C487.192 357.548 475.752 351.057 465.744 342.761C457.24 335.713 444.721 334.422 436.252 341.512L399.519 372.266Z" fill="url(#paint0_linear_512_1581)"/>
<path d="M358 258C346.954 258 337.895 266.977 339.009 277.967C342.099 308.458 352.23 337.825 368.597 363.736C374.495 373.075 387.163 374.558 395.859 367.747L433.577 338.21C442.273 331.399 443.613 318.885 438.486 309.101C433.349 299.299 429.719 288.776 427.719 277.891C425.723 267.027 416.953 258 405.907 258H358Z" fill="#59A82A"/>
<path d="M578.639 430.818C581.285 441.542 592.17 448.186 602.573 444.473C625.6 436.252 646.962 423.816 665.541 407.743C689.175 387.298 707.634 361.549 719.408 332.602C731.182 303.655 735.938 272.332 733.286 241.195C730.633 210.058 720.649 179.991 704.148 153.452C687.647 126.914 665.1 104.658 638.348 88.5043C611.597 72.3508 581.402 62.7587 550.233 60.5122C519.064 58.2658 487.806 63.429 459.015 75.5794C436.382 85.131 415.779 98.7873 398.219 115.802C390.286 123.488 391.429 136.19 399.877 143.307L436.513 174.176C444.96 181.293 457.483 180.041 466.01 173.019C474.201 166.273 483.353 160.723 493.194 156.57C509.203 149.814 526.583 146.943 543.914 148.192C561.245 149.441 578.034 154.775 592.908 163.757C607.782 172.738 620.319 185.113 629.494 199.869C638.669 214.625 644.221 231.343 645.695 248.656C647.17 265.969 644.526 283.385 637.979 299.481C631.432 315.576 621.169 329.893 608.028 341.261C599.949 348.25 590.924 354.002 581.249 358.364C571.18 362.904 564.517 373.581 567.163 384.305L578.639 430.818Z" fill="#ED1356"/>
<path d="M190.42 156.5H329.875L388.122 185.5" stroke="white" stroke-width="2" stroke-dasharray="2 2"/>
<path d="M972.824 96.5H833.369L775.123 125.5" stroke="white" stroke-width="2" stroke-dasharray="2 2"/>
<path d="M339.396 475H447.488L510.215 452" stroke="white" stroke-width="2" stroke-dasharray="2 2"/>
<path d="M258.748 325H318.114L369.08 325" stroke="white" stroke-width="2" stroke-dasharray="2 2"/>
<path d="M23.7158 168.041L19.0088 181H17.085L22.5049 166.781H23.7451L23.7158 168.041ZM27.6611 181L22.9443 168.041L22.915 166.781H24.1553L29.5947 181H27.6611ZM27.417 175.736V177.279H19.4287V175.736H27.417ZM37.3779 178.197C37.3779 177.937 37.3193 177.696 37.2021 177.475C37.0915 177.247 36.8604 177.042 36.5088 176.859C36.1637 176.671 35.6429 176.508 34.9463 176.371C34.3604 176.247 33.8298 176.101 33.3545 175.932C32.8857 175.762 32.4854 175.557 32.1533 175.316C31.8278 175.076 31.5771 174.792 31.4014 174.467C31.2256 174.141 31.1377 173.76 31.1377 173.324C31.1377 172.908 31.2288 172.514 31.4111 172.143C31.5999 171.771 31.8636 171.443 32.2021 171.156C32.5472 170.87 32.9606 170.645 33.4424 170.482C33.9242 170.32 34.4613 170.238 35.0537 170.238C35.9001 170.238 36.6227 170.388 37.2217 170.688C37.8206 170.987 38.2796 171.387 38.5986 171.889C38.9176 172.383 39.0771 172.934 39.0771 173.539H37.2705C37.2705 173.246 37.1826 172.963 37.0068 172.689C36.8376 172.41 36.5869 172.178 36.2549 171.996C35.9294 171.814 35.529 171.723 35.0537 171.723C34.5524 171.723 34.1455 171.801 33.833 171.957C33.527 172.107 33.3024 172.299 33.1592 172.533C33.0225 172.768 32.9541 173.015 32.9541 173.275C32.9541 173.471 32.9867 173.646 33.0518 173.803C33.1234 173.952 33.2471 174.092 33.4229 174.223C33.5986 174.346 33.846 174.464 34.165 174.574C34.484 174.685 34.891 174.796 35.3857 174.906C36.2516 175.102 36.9645 175.336 37.5244 175.609C38.0843 175.883 38.501 176.218 38.7744 176.615C39.0479 177.012 39.1846 177.494 39.1846 178.061C39.1846 178.523 39.0869 178.946 38.8916 179.33C38.7028 179.714 38.4261 180.046 38.0615 180.326C37.7035 180.6 37.2738 180.814 36.7725 180.971C36.2777 181.12 35.721 181.195 35.1025 181.195C34.1715 181.195 33.3838 181.029 32.7393 180.697C32.0947 180.365 31.6064 179.936 31.2744 179.408C30.9424 178.881 30.7764 178.324 30.7764 177.738H32.5928C32.6188 178.233 32.762 178.627 33.0225 178.92C33.2829 179.206 33.6019 179.411 33.9795 179.535C34.3571 179.652 34.7314 179.711 35.1025 179.711C35.5973 179.711 36.0107 179.646 36.3428 179.516C36.6813 179.385 36.9385 179.206 37.1143 178.979C37.29 178.751 37.3779 178.49 37.3779 178.197ZM47.71 178.197C47.71 177.937 47.6514 177.696 47.5342 177.475C47.4235 177.247 47.1924 177.042 46.8408 176.859C46.4958 176.671 45.9749 176.508 45.2783 176.371C44.6924 176.247 44.1618 176.101 43.6865 175.932C43.2178 175.762 42.8174 175.557 42.4854 175.316C42.1598 175.076 41.9092 174.792 41.7334 174.467C41.5576 174.141 41.4697 173.76 41.4697 173.324C41.4697 172.908 41.5609 172.514 41.7432 172.143C41.932 171.771 42.1956 171.443 42.5342 171.156C42.8792 170.87 43.2926 170.645 43.7744 170.482C44.2562 170.32 44.7933 170.238 45.3857 170.238C46.2321 170.238 46.9548 170.388 47.5537 170.688C48.1527 170.987 48.6117 171.387 48.9307 171.889C49.2497 172.383 49.4092 172.934 49.4092 173.539H47.6025C47.6025 173.246 47.5146 172.963 47.3389 172.689C47.1696 172.41 46.9189 172.178 46.5869 171.996C46.2614 171.814 45.861 171.723 45.3857 171.723C44.8844 171.723 44.4775 171.801 44.165 171.957C43.859 172.107 43.6344 172.299 43.4912 172.533C43.3545 172.768 43.2861 173.015 43.2861 173.275C43.2861 173.471 43.3187 173.646 43.3838 173.803C43.4554 173.952 43.5791 174.092 43.7549 174.223C43.9307 174.346 44.1781 174.464 44.4971 174.574C44.8161 174.685 45.223 174.796 45.7178 174.906C46.5837 175.102 47.2965 175.336 47.8564 175.609C48.4163 175.883 48.833 176.218 49.1064 176.615C49.3799 177.012 49.5166 177.494 49.5166 178.061C49.5166 178.523 49.4189 178.946 49.2236 179.33C49.0348 179.714 48.7581 180.046 48.3936 180.326C48.0355 180.6 47.6058 180.814 47.1045 180.971C46.6097 181.12 46.0531 181.195 45.4346 181.195C44.5036 181.195 43.7158 181.029 43.0713 180.697C42.4268 180.365 41.9385 179.936 41.6064 179.408C41.2744 178.881 41.1084 178.324 41.1084 177.738H42.9248C42.9508 178.233 43.0941 178.627 43.3545 178.92C43.6149 179.206 43.9339 179.411 44.3115 179.535C44.6891 179.652 45.0635 179.711 45.4346 179.711C45.9294 179.711 46.3428 179.646 46.6748 179.516C47.0133 179.385 47.2705 179.206 47.4463 178.979C47.6221 178.751 47.71 178.49 47.71 178.197ZM51.4111 175.834V175.609C51.4111 174.848 51.5218 174.141 51.7432 173.49C51.9645 172.833 52.2835 172.263 52.7002 171.781C53.1169 171.293 53.6214 170.915 54.2139 170.648C54.8063 170.375 55.4704 170.238 56.2061 170.238C56.9482 170.238 57.6156 170.375 58.208 170.648C58.807 170.915 59.3148 171.293 59.7314 171.781C60.1546 172.263 60.4769 172.833 60.6982 173.49C60.9196 174.141 61.0303 174.848 61.0303 175.609V175.834C61.0303 176.596 60.9196 177.302 60.6982 177.953C60.4769 178.604 60.1546 179.174 59.7314 179.662C59.3148 180.144 58.8102 180.521 58.2178 180.795C57.6318 181.062 56.9678 181.195 56.2256 181.195C55.4834 181.195 54.8161 181.062 54.2236 180.795C53.6312 180.521 53.1234 180.144 52.7002 179.662C52.2835 179.174 51.9645 178.604 51.7432 177.953C51.5218 177.302 51.4111 176.596 51.4111 175.834ZM53.2178 175.609V175.834C53.2178 176.361 53.2796 176.859 53.4033 177.328C53.527 177.79 53.7126 178.201 53.96 178.559C54.2139 178.917 54.5296 179.2 54.9072 179.408C55.2848 179.61 55.7243 179.711 56.2256 179.711C56.7204 179.711 57.1533 179.61 57.5244 179.408C57.902 179.2 58.2145 178.917 58.4619 178.559C58.7093 178.201 58.8949 177.79 59.0186 177.328C59.1488 176.859 59.2139 176.361 59.2139 175.834V175.609C59.2139 175.089 59.1488 174.597 59.0186 174.135C58.8949 173.666 58.7061 173.253 58.4521 172.895C58.2048 172.53 57.8923 172.243 57.5146 172.035C57.1436 171.827 56.7074 171.723 56.2061 171.723C55.7113 171.723 55.2751 171.827 54.8975 172.035C54.5264 172.243 54.2139 172.53 53.96 172.895C53.7126 173.253 53.527 173.666 53.4033 174.135C53.2796 174.597 53.2178 175.089 53.2178 175.609ZM67.5244 179.711C67.9541 179.711 68.3512 179.623 68.7158 179.447C69.0804 179.271 69.3799 179.031 69.6143 178.725C69.8486 178.412 69.9821 178.057 70.0146 177.66H71.7334C71.7008 178.285 71.4893 178.868 71.0986 179.408C70.7145 179.942 70.21 180.375 69.585 180.707C68.96 181.033 68.2731 181.195 67.5244 181.195C66.7301 181.195 66.0368 181.055 65.4443 180.775C64.8584 180.495 64.3701 180.111 63.9795 179.623C63.5954 179.135 63.3057 178.575 63.1104 177.943C62.9215 177.305 62.8271 176.632 62.8271 175.922V175.512C62.8271 174.802 62.9215 174.132 63.1104 173.5C63.3057 172.862 63.5954 172.299 63.9795 171.811C64.3701 171.322 64.8584 170.938 65.4443 170.658C66.0368 170.378 66.7301 170.238 67.5244 170.238C68.3512 170.238 69.0739 170.408 69.6924 170.746C70.3109 171.078 70.7959 171.534 71.1475 172.113C71.5055 172.686 71.7008 173.337 71.7334 174.066H70.0146C69.9821 173.63 69.8584 173.236 69.6436 172.885C69.4352 172.533 69.1488 172.253 68.7842 172.045C68.4261 171.83 68.0062 171.723 67.5244 171.723C66.971 171.723 66.5055 171.833 66.1279 172.055C65.7568 172.27 65.4606 172.562 65.2393 172.934C65.0244 173.298 64.8682 173.705 64.7705 174.154C64.6794 174.597 64.6338 175.049 64.6338 175.512V175.922C64.6338 176.384 64.6794 176.84 64.7705 177.289C64.8617 177.738 65.0146 178.145 65.2295 178.51C65.4508 178.874 65.7471 179.167 66.1182 179.389C66.4958 179.604 66.9645 179.711 67.5244 179.711ZM75.7275 170.434V181H73.9111V170.434H75.7275ZM73.7744 167.631C73.7744 167.338 73.8623 167.09 74.0381 166.889C74.2204 166.687 74.4873 166.586 74.8389 166.586C75.1839 166.586 75.4476 166.687 75.6299 166.889C75.8187 167.09 75.9131 167.338 75.9131 167.631C75.9131 167.911 75.8187 168.152 75.6299 168.354C75.4476 168.549 75.1839 168.646 74.8389 168.646C74.4873 168.646 74.2204 168.549 74.0381 168.354C73.8623 168.152 73.7744 167.911 73.7744 167.631ZM84.8584 179.193V173.754C84.8584 173.337 84.7738 172.976 84.6045 172.67C84.4417 172.357 84.1943 172.117 83.8623 171.947C83.5303 171.778 83.1201 171.693 82.6318 171.693C82.1761 171.693 81.7757 171.771 81.4307 171.928C81.0921 172.084 80.8252 172.289 80.6299 172.543C80.4411 172.797 80.3467 173.07 80.3467 173.363H78.54C78.54 172.986 78.6377 172.611 78.833 172.24C79.0283 171.869 79.3083 171.534 79.6729 171.234C80.0439 170.928 80.4867 170.688 81.001 170.512C81.5218 170.329 82.1012 170.238 82.7393 170.238C83.5075 170.238 84.1846 170.368 84.7705 170.629C85.363 170.889 85.8252 171.283 86.1572 171.811C86.4958 172.331 86.665 172.986 86.665 173.773V178.695C86.665 179.047 86.6943 179.421 86.7529 179.818C86.818 180.215 86.9124 180.557 87.0361 180.844V181H85.1514C85.0602 180.792 84.9886 180.515 84.9365 180.17C84.8844 179.818 84.8584 179.493 84.8584 179.193ZM85.1709 174.594L85.1904 175.863H83.3643C82.8499 175.863 82.391 175.906 81.9873 175.99C81.5837 176.068 81.2451 176.189 80.9717 176.352C80.6982 176.514 80.4899 176.719 80.3467 176.967C80.2035 177.208 80.1318 177.491 80.1318 177.816C80.1318 178.148 80.2067 178.451 80.3564 178.725C80.5062 178.998 80.7308 179.216 81.0303 179.379C81.3363 179.535 81.7106 179.613 82.1533 179.613C82.7067 179.613 83.195 179.496 83.6182 179.262C84.0413 179.027 84.3766 178.741 84.624 178.402C84.8779 178.064 85.0146 177.735 85.0342 177.416L85.8057 178.285C85.7601 178.559 85.6364 178.861 85.4346 179.193C85.2327 179.525 84.9626 179.844 84.624 180.15C84.292 180.45 83.8949 180.701 83.4326 180.902C82.9769 181.098 82.4626 181.195 81.8896 181.195C81.1735 181.195 80.5452 181.055 80.0049 180.775C79.471 180.495 79.0544 180.121 78.7549 179.652C78.4619 179.177 78.3154 178.646 78.3154 178.061C78.3154 177.494 78.4261 176.996 78.6475 176.566C78.8688 176.13 79.1878 175.769 79.6045 175.482C80.0212 175.189 80.5225 174.968 81.1084 174.818C81.6943 174.669 82.3486 174.594 83.0713 174.594H85.1709ZM93.9307 170.434V171.82H88.2178V170.434H93.9307ZM90.1514 167.865H91.958V178.383C91.958 178.741 92.0133 179.011 92.124 179.193C92.2347 179.376 92.3779 179.496 92.5537 179.555C92.7295 179.613 92.9183 179.643 93.1201 179.643C93.2699 179.643 93.4261 179.63 93.5889 179.604C93.7581 179.571 93.8851 179.545 93.9697 179.525L93.9795 181C93.8363 181.046 93.6475 181.088 93.4131 181.127C93.1852 181.173 92.9085 181.195 92.583 181.195C92.1403 181.195 91.7334 181.107 91.3623 180.932C90.9912 180.756 90.695 180.463 90.4736 180.053C90.2588 179.636 90.1514 179.076 90.1514 178.373V167.865ZM100.435 181.195C99.6989 181.195 99.0316 181.072 98.4326 180.824C97.8402 180.57 97.3291 180.215 96.8994 179.76C96.4762 179.304 96.1507 178.764 95.9229 178.139C95.695 177.514 95.5811 176.83 95.5811 176.088V175.678C95.5811 174.818 95.708 174.053 95.9619 173.383C96.2158 172.706 96.5609 172.133 96.9971 171.664C97.4333 171.195 97.9281 170.84 98.4814 170.6C99.0348 170.359 99.6077 170.238 100.2 170.238C100.955 170.238 101.606 170.368 102.153 170.629C102.707 170.889 103.159 171.254 103.511 171.723C103.862 172.185 104.123 172.732 104.292 173.363C104.461 173.988 104.546 174.672 104.546 175.414V176.225H96.6553V174.75H102.739V174.613C102.713 174.145 102.616 173.689 102.446 173.246C102.284 172.803 102.023 172.439 101.665 172.152C101.307 171.866 100.819 171.723 100.2 171.723C99.79 171.723 99.4124 171.811 99.0674 171.986C98.7223 172.156 98.4261 172.41 98.1787 172.748C97.9313 173.087 97.7393 173.5 97.6025 173.988C97.4658 174.477 97.3975 175.04 97.3975 175.678V176.088C97.3975 176.589 97.4658 177.061 97.6025 177.504C97.7458 177.94 97.9508 178.324 98.2178 178.656C98.4912 178.988 98.82 179.249 99.2041 179.438C99.5947 179.626 100.037 179.721 100.532 179.721C101.17 179.721 101.711 179.59 102.153 179.33C102.596 179.07 102.983 178.721 103.315 178.285L104.409 179.154C104.181 179.499 103.892 179.828 103.54 180.141C103.188 180.453 102.756 180.707 102.241 180.902C101.733 181.098 101.131 181.195 100.435 181.195ZM120.513 179.467V181H113.403V179.467H120.513ZM113.774 166.781V181H111.89V166.781H113.774ZM126.782 181.195C126.047 181.195 125.379 181.072 124.78 180.824C124.188 180.57 123.677 180.215 123.247 179.76C122.824 179.304 122.498 178.764 122.271 178.139C122.043 177.514 121.929 176.83 121.929 176.088V175.678C121.929 174.818 122.056 174.053 122.31 173.383C122.563 172.706 122.909 172.133 123.345 171.664C123.781 171.195 124.276 170.84 124.829 170.6C125.382 170.359 125.955 170.238 126.548 170.238C127.303 170.238 127.954 170.368 128.501 170.629C129.054 170.889 129.507 171.254 129.858 171.723C130.21 172.185 130.47 172.732 130.64 173.363C130.809 173.988 130.894 174.672 130.894 175.414V176.225H123.003V174.75H129.087V174.613C129.061 174.145 128.963 173.689 128.794 173.246C128.631 172.803 128.371 172.439 128.013 172.152C127.655 171.866 127.166 171.723 126.548 171.723C126.138 171.723 125.76 171.811 125.415 171.986C125.07 172.156 124.774 172.41 124.526 172.748C124.279 173.087 124.087 173.5 123.95 173.988C123.813 174.477 123.745 175.04 123.745 175.678V176.088C123.745 176.589 123.813 177.061 123.95 177.504C124.093 177.94 124.299 178.324 124.565 178.656C124.839 178.988 125.168 179.249 125.552 179.438C125.942 179.626 126.385 179.721 126.88 179.721C127.518 179.721 128.058 179.59 128.501 179.33C128.944 179.07 129.331 178.721 129.663 178.285L130.757 179.154C130.529 179.499 130.239 179.828 129.888 180.141C129.536 180.453 129.103 180.707 128.589 180.902C128.081 181.098 127.479 181.195 126.782 181.195ZM136.079 179.369L138.97 170.434H140.815L137.017 181H135.806L136.079 179.369ZM133.667 170.434L136.646 179.418L136.851 181H135.64L131.812 170.434H133.667ZM146.802 181.195C146.066 181.195 145.399 181.072 144.8 180.824C144.207 180.57 143.696 180.215 143.267 179.76C142.843 179.304 142.518 178.764 142.29 178.139C142.062 177.514 141.948 176.83 141.948 176.088V175.678C141.948 174.818 142.075 174.053 142.329 173.383C142.583 172.706 142.928 172.133 143.364 171.664C143.8 171.195 144.295 170.84 144.849 170.6C145.402 170.359 145.975 170.238 146.567 170.238C147.323 170.238 147.974 170.368 148.521 170.629C149.074 170.889 149.526 171.254 149.878 171.723C150.229 172.185 150.49 172.732 150.659 173.363C150.828 173.988 150.913 174.672 150.913 175.414V176.225H143.022V174.75H149.106V174.613C149.08 174.145 148.983 173.689 148.813 173.246C148.651 172.803 148.39 172.439 148.032 172.152C147.674 171.866 147.186 171.723 146.567 171.723C146.157 171.723 145.78 171.811 145.435 171.986C145.09 172.156 144.793 172.41 144.546 172.748C144.299 173.087 144.106 173.5 143.97 173.988C143.833 174.477 143.765 175.04 143.765 175.678V176.088C143.765 176.589 143.833 177.061 143.97 177.504C144.113 177.94 144.318 178.324 144.585 178.656C144.858 178.988 145.187 179.249 145.571 179.438C145.962 179.626 146.405 179.721 146.899 179.721C147.537 179.721 148.078 179.59 148.521 179.33C148.963 179.07 149.351 178.721 149.683 178.285L150.776 179.154C150.549 179.499 150.259 179.828 149.907 180.141C149.556 180.453 149.123 180.707 148.608 180.902C148.101 181.098 147.498 181.195 146.802 181.195ZM154.985 166V181H153.169V166H154.985Z" fill="white"/>
<path d="M135.734 151V129.82H140.414V151H135.734ZM131.654 133.81V129.82H140.114V133.81H131.654ZM152.412 151.33C150.712 151.33 149.172 150.87 147.792 149.95C146.412 149.03 145.322 147.75 144.522 146.11C143.742 144.45 143.352 142.54 143.352 140.38C143.352 138.2 143.742 136.3 144.522 134.68C145.302 133.04 146.372 131.77 147.732 130.87C149.092 129.95 150.632 129.49 152.352 129.49C154.092 129.49 155.642 129.95 157.002 130.87C158.362 131.77 159.432 133.04 160.212 134.68C161.012 136.32 161.412 138.23 161.412 140.41C161.412 142.59 161.012 144.5 160.212 146.14C159.432 147.78 158.362 149.06 157.002 149.98C155.662 150.88 154.132 151.33 152.412 151.33ZM152.382 147.16C153.262 147.16 154.022 146.91 154.662 146.41C155.302 145.89 155.792 145.13 156.132 144.13C156.492 143.11 156.672 141.87 156.672 140.41C156.672 138.93 156.492 137.69 156.132 136.69C155.792 135.69 155.302 134.94 154.662 134.44C154.022 133.92 153.252 133.66 152.352 133.66C151.492 133.66 150.732 133.91 150.072 134.41C149.432 134.91 148.942 135.66 148.602 136.66C148.262 137.66 148.092 138.9 148.092 140.38C148.092 141.86 148.262 143.1 148.602 144.1C148.942 145.1 149.432 145.86 150.072 146.38C150.732 146.9 151.502 147.16 152.382 147.16ZM167.802 138.34C166.982 138.34 166.232 138.15 165.552 137.77C164.892 137.37 164.362 136.84 163.962 136.18C163.562 135.5 163.362 134.74 163.362 133.9C163.362 133.08 163.562 132.34 163.962 131.68C164.362 131.02 164.892 130.5 165.552 130.12C166.212 129.72 166.952 129.52 167.772 129.52C168.632 129.52 169.392 129.72 170.052 130.12C170.732 130.5 171.272 131.02 171.672 131.68C172.072 132.34 172.272 133.08 172.272 133.9C172.272 134.74 172.072 135.5 171.672 136.18C171.272 136.84 170.732 137.37 170.052 137.77C169.392 138.15 168.642 138.34 167.802 138.34ZM167.802 135.22C168.182 135.22 168.492 135.1 168.732 134.86C168.972 134.62 169.092 134.31 169.092 133.93C169.092 133.55 168.972 133.24 168.732 133C168.492 132.76 168.182 132.64 167.802 132.64C167.442 132.64 167.142 132.76 166.902 133C166.662 133.24 166.542 133.55 166.542 133.93C166.542 134.31 166.662 134.62 166.902 134.86C167.142 135.1 167.442 135.22 167.802 135.22ZM177.462 151.3C176.642 151.3 175.892 151.1 175.212 150.7C174.552 150.3 174.022 149.77 173.622 149.11C173.222 148.43 173.022 147.68 173.022 146.86C173.022 146.02 173.222 145.28 173.622 144.64C174.022 143.98 174.552 143.45 175.212 143.05C175.872 142.65 176.612 142.45 177.432 142.45C178.292 142.45 179.052 142.65 179.712 143.05C180.392 143.45 180.932 143.98 181.332 144.64C181.732 145.28 181.932 146.02 181.932 146.86C181.932 147.68 181.732 148.43 181.332 149.11C180.932 149.79 180.392 150.33 179.712 150.73C179.052 151.11 178.302 151.3 177.462 151.3ZM177.462 148.18C177.842 148.18 178.152 148.06 178.392 147.82C178.632 147.58 178.752 147.26 178.752 146.86C178.752 146.5 178.632 146.2 178.392 145.96C178.152 145.7 177.842 145.57 177.462 145.57C177.102 145.57 176.802 145.7 176.562 145.96C176.322 146.2 176.202 146.5 176.202 146.86C176.202 147.26 176.322 147.58 176.562 147.82C176.802 148.06 177.102 148.18 177.462 148.18ZM164.202 151L176.892 129.82H181.092L168.402 151H164.202Z" fill="#43861B"/>
<defs>
<linearGradient id="paint0_linear_512_1581" x1="387" y1="304" x2="536" y2="456" gradientUnits="userSpaceOnUse">
<stop stop-color="#A1DC67"/>
<stop offset="1" stop-color="#72CA3D"/>
</linearGradient>
</defs>
</svg>
